M48
; DRILL file {KiCad (5.1.5-0)} date domingo, 17 de julio de 2022, 15:28:06
; FORMAT={-:-/ absolute / metric / decimal}
; #@! TF.CreationDate,2022-07-17T15:28:06+01:00
; #@! TF.GenerationSoftware,Kicad,Pcbnew,(5.1.5-0)
FMAT,2
METRIC
T1C0.400
T2C0.950
T3C1.000
T4C1.520
T5C2.100
%
G90
G05
T1
X56.878Y-123.85
X57.666Y-142.357
X62.865Y-123.19
X67.249Y-133.252
X71.262Y-123.16
X72.956Y-117.909
X73.177Y-138.34
T2
X87.884Y-161.925
X90.384Y-161.925
X92.884Y-161.925
X95.384Y-161.925
X73.025Y-161.925
X75.525Y-161.925
X78.025Y-161.925
X80.525Y-161.925
X57.404Y-161.925
X59.904Y-161.925
X62.404Y-161.925
X64.904Y-161.925
T3
X53.34Y-134.62
X55.88Y-134.62
X58.42Y-134.62
X60.96Y-134.62
X63.5Y-134.62
X66.04Y-134.62
X68.58Y-134.62
X71.12Y-134.62
X73.66Y-134.62
X76.2Y-134.62
X78.74Y-134.62
X81.28Y-134.62
X83.82Y-134.62
X86.36Y-134.62
X88.9Y-134.62
X75.25Y-104.14
X77.75Y-104.14
X84.201Y-104.14
X86.701Y-104.14
X83.185Y-139.065
X83.185Y-141.605
X83.185Y-144.145
X83.185Y-146.685
X83.185Y-149.225
X83.185Y-151.765
X83.185Y-154.305
X83.185Y-156.845
X70.485Y-139.065
X70.485Y-141.605
X70.485Y-144.145
X70.485Y-146.685
X70.485Y-149.225
X70.485Y-151.765
X70.485Y-154.305
X70.485Y-156.845
X62.865Y-113.03
X62.865Y-115.57
X62.865Y-118.11
X62.865Y-120.65
X62.865Y-123.19
X62.865Y-125.73
X62.865Y-128.27
X62.865Y-130.81
X57.47Y-104.14
X59.97Y-104.14
X97.79Y-119.97
X97.79Y-122.47
X53.34Y-139.065
X53.34Y-141.605
X53.34Y-144.145
X53.34Y-146.685
X53.34Y-149.225
X53.34Y-151.765
X53.34Y-154.305
X53.34Y-156.845
X66.04Y-139.065
X66.04Y-141.605
X66.04Y-144.145
X66.04Y-146.685
X66.04Y-149.225
X66.04Y-151.765
X66.04Y-154.305
X66.04Y-156.845
X93.131Y-104.14
X95.631Y-104.14
X53.34Y-109.22
X55.88Y-109.22
X58.42Y-109.22
X60.96Y-109.22
X63.5Y-109.22
X66.04Y-109.22
X68.58Y-109.22
X71.12Y-109.22
X73.66Y-109.22
X76.2Y-109.22
X78.74Y-109.22
X81.28Y-109.22
X83.82Y-109.22
X86.36Y-109.22
X88.9Y-109.22
X66.36Y-104.14
X68.86Y-104.14
X97.79Y-110.53
X97.79Y-113.03
X100.33Y-139.065
X100.33Y-141.605
X100.33Y-144.145
X100.33Y-146.685
X100.33Y-149.225
X100.33Y-151.765
X100.33Y-154.305
X100.33Y-156.845
X87.63Y-139.065
X87.63Y-141.605
X87.63Y-144.145
X87.63Y-146.685
X87.63Y-149.225
X87.63Y-151.765
X87.63Y-154.305
X87.63Y-156.845
T4
X97.841Y-128.306
X97.841Y-133.386
T5
X100.838Y-102.362
X51.943Y-164.211
X100.711Y-164.211
X51.689Y-102.489
T0
M30
