G04 #@! TF.GenerationSoftware,KiCad,Pcbnew,(5.1.5-0)*
G04 #@! TF.CreationDate,2022-07-17T15:28:17+01:00*
G04 #@! TF.ProjectId,Esp32_Cnc_Shield_30Pin_SMD,45737033-325f-4436-9e63-5f536869656c,rev?*
G04 #@! TF.SameCoordinates,Original*
G04 #@! TF.FileFunction,Legend,Top*
G04 #@! TF.FilePolarity,Positive*
%FSLAX46Y46*%
G04 Gerber Fmt 4.6, Leading zero omitted, Abs format (unit mm)*
G04 Created by KiCad (PCBNEW (5.1.5-0)) date 2022-07-17 15:28:17*
%MOMM*%
%LPD*%
G04 APERTURE LIST*
%ADD10C,0.150000*%
%ADD11C,0.010000*%
%ADD12C,0.120000*%
G04 APERTURE END LIST*
D10*
X87732857Y-107243571D02*
X86970952Y-107243571D01*
X87351904Y-106862619D02*
X87351904Y-107624523D01*
X86304285Y-107338809D02*
X86304285Y-106862619D01*
X86637619Y-107862619D02*
X86304285Y-107338809D01*
X85970952Y-107862619D01*
X85161428Y-106862619D02*
X85637619Y-106862619D01*
X85637619Y-107862619D01*
X84828095Y-106862619D02*
X84828095Y-107862619D01*
X84351904Y-106862619D02*
X84351904Y-107862619D01*
X84018571Y-107148333D01*
X83685238Y-107862619D01*
X83685238Y-106862619D01*
X83209047Y-107243571D02*
X82447142Y-107243571D01*
X97305476Y-107243571D02*
X96543571Y-107243571D01*
X96924523Y-106862619D02*
X96924523Y-107624523D01*
X96162619Y-107862619D02*
X95495952Y-107862619D01*
X96162619Y-106862619D01*
X95495952Y-106862619D01*
X94638809Y-106862619D02*
X95115000Y-106862619D01*
X95115000Y-107862619D01*
X94305476Y-106862619D02*
X94305476Y-107862619D01*
X93829285Y-106862619D02*
X93829285Y-107862619D01*
X93495952Y-107148333D01*
X93162619Y-107862619D01*
X93162619Y-106862619D01*
X92686428Y-107243571D02*
X91924523Y-107243571D01*
X78890476Y-107243571D02*
X78128571Y-107243571D01*
X78509523Y-106862619D02*
X78509523Y-107624523D01*
X77747619Y-107862619D02*
X77080952Y-106862619D01*
X77080952Y-107862619D02*
X77747619Y-106862619D01*
X76223809Y-106862619D02*
X76700000Y-106862619D01*
X76700000Y-107862619D01*
X75890476Y-106862619D02*
X75890476Y-107862619D01*
X75414285Y-106862619D02*
X75414285Y-107862619D01*
X75080952Y-107148333D01*
X74747619Y-107862619D01*
X74747619Y-106862619D01*
X74271428Y-107243571D02*
X73509523Y-107243571D01*
X69976666Y-107243571D02*
X69214761Y-107243571D01*
X69595714Y-106862619D02*
X69595714Y-107624523D01*
X68738571Y-106862619D02*
X68738571Y-107862619D01*
X68405238Y-107148333D01*
X68071904Y-107862619D01*
X68071904Y-106862619D01*
X67595714Y-106862619D02*
X67595714Y-107862619D01*
X67167142Y-106910238D02*
X67024285Y-106862619D01*
X66786190Y-106862619D01*
X66690952Y-106910238D01*
X66643333Y-106957857D01*
X66595714Y-107053095D01*
X66595714Y-107148333D01*
X66643333Y-107243571D01*
X66690952Y-107291190D01*
X66786190Y-107338809D01*
X66976666Y-107386428D01*
X67071904Y-107434047D01*
X67119523Y-107481666D01*
X67167142Y-107576904D01*
X67167142Y-107672142D01*
X67119523Y-107767380D01*
X67071904Y-107815000D01*
X66976666Y-107862619D01*
X66738571Y-107862619D01*
X66595714Y-107815000D01*
X66310000Y-107862619D02*
X65738571Y-107862619D01*
X66024285Y-106862619D02*
X66024285Y-107862619D01*
X65405238Y-107243571D02*
X64643333Y-107243571D01*
X61753333Y-107243571D02*
X60991428Y-107243571D01*
X61372380Y-106862619D02*
X61372380Y-107624523D01*
X60562857Y-106910238D02*
X60420000Y-106862619D01*
X60181904Y-106862619D01*
X60086666Y-106910238D01*
X60039047Y-106957857D01*
X59991428Y-107053095D01*
X59991428Y-107148333D01*
X60039047Y-107243571D01*
X60086666Y-107291190D01*
X60181904Y-107338809D01*
X60372380Y-107386428D01*
X60467619Y-107434047D01*
X60515238Y-107481666D01*
X60562857Y-107576904D01*
X60562857Y-107672142D01*
X60515238Y-107767380D01*
X60467619Y-107815000D01*
X60372380Y-107862619D01*
X60134285Y-107862619D01*
X59991428Y-107815000D01*
X59562857Y-106862619D02*
X59562857Y-107862619D01*
X59181904Y-107862619D01*
X59086666Y-107815000D01*
X59039047Y-107767380D01*
X58991428Y-107672142D01*
X58991428Y-107529285D01*
X59039047Y-107434047D01*
X59086666Y-107386428D01*
X59181904Y-107338809D01*
X59562857Y-107338809D01*
X58800952Y-106767380D02*
X58039047Y-106767380D01*
X57800952Y-107386428D02*
X57467619Y-107386428D01*
X57324761Y-106862619D02*
X57800952Y-106862619D01*
X57800952Y-107862619D01*
X57324761Y-107862619D01*
X56896190Y-106862619D02*
X56896190Y-107862619D01*
X56324761Y-106862619D01*
X56324761Y-107862619D01*
X55848571Y-107243571D02*
X55086666Y-107243571D01*
X94051428Y-115871190D02*
X94051428Y-115109285D01*
X94432380Y-115490238D02*
X93670476Y-115490238D01*
X94432380Y-114633095D02*
X93432380Y-114633095D01*
X93432380Y-114252142D01*
X93480000Y-114156904D01*
X93527619Y-114109285D01*
X93622857Y-114061666D01*
X93765714Y-114061666D01*
X93860952Y-114109285D01*
X93908571Y-114156904D01*
X93956190Y-114252142D01*
X93956190Y-114633095D01*
X94432380Y-113061666D02*
X93956190Y-113395000D01*
X94432380Y-113633095D02*
X93432380Y-113633095D01*
X93432380Y-113252142D01*
X93480000Y-113156904D01*
X93527619Y-113109285D01*
X93622857Y-113061666D01*
X93765714Y-113061666D01*
X93860952Y-113109285D01*
X93908571Y-113156904D01*
X93956190Y-113252142D01*
X93956190Y-113633095D01*
X93432380Y-112442619D02*
X93432380Y-112252142D01*
X93480000Y-112156904D01*
X93575238Y-112061666D01*
X93765714Y-112014047D01*
X94099047Y-112014047D01*
X94289523Y-112061666D01*
X94384761Y-112156904D01*
X94432380Y-112252142D01*
X94432380Y-112442619D01*
X94384761Y-112537857D01*
X94289523Y-112633095D01*
X94099047Y-112680714D01*
X93765714Y-112680714D01*
X93575238Y-112633095D01*
X93480000Y-112537857D01*
X93432380Y-112442619D01*
X93908571Y-111252142D02*
X93956190Y-111109285D01*
X94003809Y-111061666D01*
X94099047Y-111014047D01*
X94241904Y-111014047D01*
X94337142Y-111061666D01*
X94384761Y-111109285D01*
X94432380Y-111204523D01*
X94432380Y-111585476D01*
X93432380Y-111585476D01*
X93432380Y-111252142D01*
X93480000Y-111156904D01*
X93527619Y-111109285D01*
X93622857Y-111061666D01*
X93718095Y-111061666D01*
X93813333Y-111109285D01*
X93860952Y-111156904D01*
X93908571Y-111252142D01*
X93908571Y-111585476D01*
X93908571Y-110585476D02*
X93908571Y-110252142D01*
X94432380Y-110109285D02*
X94432380Y-110585476D01*
X93432380Y-110585476D01*
X93432380Y-110109285D01*
X94051428Y-109680714D02*
X94051428Y-108918809D01*
X94051428Y-123665952D02*
X94051428Y-122904047D01*
X94432380Y-123285000D02*
X93670476Y-123285000D01*
X93908571Y-122094523D02*
X93908571Y-122427857D01*
X94432380Y-122427857D02*
X93432380Y-122427857D01*
X93432380Y-121951666D01*
X94146666Y-121618333D02*
X94146666Y-121142142D01*
X94432380Y-121713571D02*
X93432380Y-121380238D01*
X94432380Y-121046904D01*
X94432380Y-120713571D02*
X93432380Y-120713571D01*
X94432380Y-120142142D01*
X93432380Y-120142142D01*
X94051428Y-119665952D02*
X94051428Y-118904047D01*
X92781428Y-133190952D02*
X92781428Y-132429047D01*
X93162380Y-132810000D02*
X92400476Y-132810000D01*
X92257619Y-132000476D02*
X92210000Y-131952857D01*
X92162380Y-131857619D01*
X92162380Y-131619523D01*
X92210000Y-131524285D01*
X92257619Y-131476666D01*
X92352857Y-131429047D01*
X92448095Y-131429047D01*
X92590952Y-131476666D01*
X93162380Y-132048095D01*
X93162380Y-131429047D01*
X92495714Y-130571904D02*
X93162380Y-130571904D01*
X92114761Y-130810000D02*
X92829047Y-131048095D01*
X92829047Y-130429047D01*
X92162380Y-130190952D02*
X93162380Y-129857619D01*
X92162380Y-129524285D01*
X92781428Y-129190952D02*
X92781428Y-128429047D01*
X59356666Y-157567380D02*
X60023333Y-158567380D01*
X60023333Y-157567380D02*
X59356666Y-158567380D01*
X76835000Y-158091190D02*
X76835000Y-158567380D01*
X76501666Y-157567380D02*
X76835000Y-158091190D01*
X77168333Y-157567380D01*
X93011666Y-157567380D02*
X93678333Y-157567380D01*
X93011666Y-158567380D01*
X93678333Y-158567380D01*
X50871428Y-109348571D02*
X50871428Y-109681904D01*
X50347619Y-109824761D02*
X50347619Y-109348571D01*
X51347619Y-109348571D01*
X51347619Y-109824761D01*
X50395238Y-110205714D02*
X50347619Y-110348571D01*
X50347619Y-110586666D01*
X50395238Y-110681904D01*
X50442857Y-110729523D01*
X50538095Y-110777142D01*
X50633333Y-110777142D01*
X50728571Y-110729523D01*
X50776190Y-110681904D01*
X50823809Y-110586666D01*
X50871428Y-110396190D01*
X50919047Y-110300952D01*
X50966666Y-110253333D01*
X51061904Y-110205714D01*
X51157142Y-110205714D01*
X51252380Y-110253333D01*
X51300000Y-110300952D01*
X51347619Y-110396190D01*
X51347619Y-110634285D01*
X51300000Y-110777142D01*
X50347619Y-111205714D02*
X51347619Y-111205714D01*
X51347619Y-111586666D01*
X51300000Y-111681904D01*
X51252380Y-111729523D01*
X51157142Y-111777142D01*
X51014285Y-111777142D01*
X50919047Y-111729523D01*
X50871428Y-111681904D01*
X50823809Y-111586666D01*
X50823809Y-111205714D01*
X51347619Y-112110476D02*
X51347619Y-112729523D01*
X50966666Y-112396190D01*
X50966666Y-112539047D01*
X50919047Y-112634285D01*
X50871428Y-112681904D01*
X50776190Y-112729523D01*
X50538095Y-112729523D01*
X50442857Y-112681904D01*
X50395238Y-112634285D01*
X50347619Y-112539047D01*
X50347619Y-112253333D01*
X50395238Y-112158095D01*
X50442857Y-112110476D01*
X51252380Y-113110476D02*
X51300000Y-113158095D01*
X51347619Y-113253333D01*
X51347619Y-113491428D01*
X51300000Y-113586666D01*
X51252380Y-113634285D01*
X51157142Y-113681904D01*
X51061904Y-113681904D01*
X50919047Y-113634285D01*
X50347619Y-113062857D01*
X50347619Y-113681904D01*
X50728571Y-114110476D02*
X50728571Y-114872380D01*
X50442857Y-115920000D02*
X50395238Y-115872380D01*
X50347619Y-115729523D01*
X50347619Y-115634285D01*
X50395238Y-115491428D01*
X50490476Y-115396190D01*
X50585714Y-115348571D01*
X50776190Y-115300952D01*
X50919047Y-115300952D01*
X51109523Y-115348571D01*
X51204761Y-115396190D01*
X51300000Y-115491428D01*
X51347619Y-115634285D01*
X51347619Y-115729523D01*
X51300000Y-115872380D01*
X51252380Y-115920000D01*
X50347619Y-116348571D02*
X51347619Y-116348571D01*
X50347619Y-116920000D01*
X51347619Y-116920000D01*
X50442857Y-117967619D02*
X50395238Y-117920000D01*
X50347619Y-117777142D01*
X50347619Y-117681904D01*
X50395238Y-117539047D01*
X50490476Y-117443809D01*
X50585714Y-117396190D01*
X50776190Y-117348571D01*
X50919047Y-117348571D01*
X51109523Y-117396190D01*
X51204761Y-117443809D01*
X51300000Y-117539047D01*
X51347619Y-117681904D01*
X51347619Y-117777142D01*
X51300000Y-117920000D01*
X51252380Y-117967619D01*
X50728571Y-118396190D02*
X50728571Y-119158095D01*
X50395238Y-119586666D02*
X50347619Y-119729523D01*
X50347619Y-119967619D01*
X50395238Y-120062857D01*
X50442857Y-120110476D01*
X50538095Y-120158095D01*
X50633333Y-120158095D01*
X50728571Y-120110476D01*
X50776190Y-120062857D01*
X50823809Y-119967619D01*
X50871428Y-119777142D01*
X50919047Y-119681904D01*
X50966666Y-119634285D01*
X51061904Y-119586666D01*
X51157142Y-119586666D01*
X51252380Y-119634285D01*
X51300000Y-119681904D01*
X51347619Y-119777142D01*
X51347619Y-120015238D01*
X51300000Y-120158095D01*
X50347619Y-120586666D02*
X51347619Y-120586666D01*
X50871428Y-120586666D02*
X50871428Y-121158095D01*
X50347619Y-121158095D02*
X51347619Y-121158095D01*
X50347619Y-121634285D02*
X51347619Y-121634285D01*
X50871428Y-122110476D02*
X50871428Y-122443809D01*
X50347619Y-122586666D02*
X50347619Y-122110476D01*
X51347619Y-122110476D01*
X51347619Y-122586666D01*
X50347619Y-123491428D02*
X50347619Y-123015238D01*
X51347619Y-123015238D01*
X50347619Y-123824761D02*
X51347619Y-123824761D01*
X51347619Y-124062857D01*
X51300000Y-124205714D01*
X51204761Y-124300952D01*
X51109523Y-124348571D01*
X50919047Y-124396190D01*
X50776190Y-124396190D01*
X50585714Y-124348571D01*
X50490476Y-124300952D01*
X50395238Y-124205714D01*
X50347619Y-124062857D01*
X50347619Y-123824761D01*
X50728571Y-124824761D02*
X50728571Y-125586666D01*
X51347619Y-125920000D02*
X50347619Y-126253333D01*
X51347619Y-126586666D01*
X50347619Y-127443809D02*
X50347619Y-126872380D01*
X50347619Y-127158095D02*
X51347619Y-127158095D01*
X51204761Y-127062857D01*
X51109523Y-126967619D01*
X51061904Y-126872380D01*
X50442857Y-127872380D02*
X50395238Y-127920000D01*
X50347619Y-127872380D01*
X50395238Y-127824761D01*
X50442857Y-127872380D01*
X50347619Y-127872380D01*
X51252380Y-128300952D02*
X51300000Y-128348571D01*
X51347619Y-128443809D01*
X51347619Y-128681904D01*
X51300000Y-128777142D01*
X51252380Y-128824761D01*
X51157142Y-128872380D01*
X51061904Y-128872380D01*
X50919047Y-128824761D01*
X50347619Y-128253333D01*
X50347619Y-128872380D01*
X50728571Y-129300952D02*
X50728571Y-130062857D01*
X51347619Y-130443809D02*
X51347619Y-131062857D01*
X50966666Y-130729523D01*
X50966666Y-130872380D01*
X50919047Y-130967619D01*
X50871428Y-131015238D01*
X50776190Y-131062857D01*
X50538095Y-131062857D01*
X50442857Y-131015238D01*
X50395238Y-130967619D01*
X50347619Y-130872380D01*
X50347619Y-130586666D01*
X50395238Y-130491428D01*
X50442857Y-130443809D01*
X51347619Y-131681904D02*
X51347619Y-131777142D01*
X51300000Y-131872380D01*
X51252380Y-131920000D01*
X51157142Y-131967619D01*
X50966666Y-132015238D01*
X50728571Y-132015238D01*
X50538095Y-131967619D01*
X50442857Y-131920000D01*
X50395238Y-131872380D01*
X50347619Y-131777142D01*
X50347619Y-131681904D01*
X50395238Y-131586666D01*
X50442857Y-131539047D01*
X50538095Y-131491428D01*
X50728571Y-131443809D01*
X50966666Y-131443809D01*
X51157142Y-131491428D01*
X51252380Y-131539047D01*
X51300000Y-131586666D01*
X51347619Y-131681904D01*
X50347619Y-132443809D02*
X51347619Y-132443809D01*
X51347619Y-132824761D01*
X51300000Y-132920000D01*
X51252380Y-132967619D01*
X51157142Y-133015238D01*
X51014285Y-133015238D01*
X50919047Y-132967619D01*
X50871428Y-132920000D01*
X50823809Y-132824761D01*
X50823809Y-132443809D01*
X50347619Y-133443809D02*
X51347619Y-133443809D01*
X50347619Y-133920000D02*
X51347619Y-133920000D01*
X50347619Y-134491428D01*
X51347619Y-134491428D01*
X53268571Y-132818095D02*
X53268571Y-132484761D01*
X53792380Y-132341904D02*
X53792380Y-132818095D01*
X52792380Y-132818095D01*
X52792380Y-132341904D01*
X53792380Y-131913333D02*
X52792380Y-131913333D01*
X53792380Y-131341904D01*
X52792380Y-131341904D01*
X53792380Y-113609285D02*
X52792380Y-113609285D01*
X52792380Y-113371190D01*
X52840000Y-113228333D01*
X52935238Y-113133095D01*
X53030476Y-113085476D01*
X53220952Y-113037857D01*
X53363809Y-113037857D01*
X53554285Y-113085476D01*
X53649523Y-113133095D01*
X53744761Y-113228333D01*
X53792380Y-113371190D01*
X53792380Y-113609285D01*
X52887619Y-112656904D02*
X52840000Y-112609285D01*
X52792380Y-112514047D01*
X52792380Y-112275952D01*
X52840000Y-112180714D01*
X52887619Y-112133095D01*
X52982857Y-112085476D01*
X53078095Y-112085476D01*
X53220952Y-112133095D01*
X53792380Y-112704523D01*
X53792380Y-112085476D01*
X52792380Y-111752142D02*
X52792380Y-111133095D01*
X53173333Y-111466428D01*
X53173333Y-111323571D01*
X53220952Y-111228333D01*
X53268571Y-111180714D01*
X53363809Y-111133095D01*
X53601904Y-111133095D01*
X53697142Y-111180714D01*
X53744761Y-111228333D01*
X53792380Y-111323571D01*
X53792380Y-111609285D01*
X53744761Y-111704523D01*
X53697142Y-111752142D01*
X88352380Y-113633095D02*
X88352380Y-113014047D01*
X88733333Y-113347380D01*
X88733333Y-113204523D01*
X88780952Y-113109285D01*
X88828571Y-113061666D01*
X88923809Y-113014047D01*
X89161904Y-113014047D01*
X89257142Y-113061666D01*
X89304761Y-113109285D01*
X89352380Y-113204523D01*
X89352380Y-113490238D01*
X89304761Y-113585476D01*
X89257142Y-113633095D01*
X88352380Y-112728333D02*
X89352380Y-112395000D01*
X88352380Y-112061666D01*
X88352380Y-111823571D02*
X88352380Y-111204523D01*
X88733333Y-111537857D01*
X88733333Y-111395000D01*
X88780952Y-111299761D01*
X88828571Y-111252142D01*
X88923809Y-111204523D01*
X89161904Y-111204523D01*
X89257142Y-111252142D01*
X89304761Y-111299761D01*
X89352380Y-111395000D01*
X89352380Y-111680714D01*
X89304761Y-111775952D01*
X89257142Y-111823571D01*
X88352380Y-132540238D02*
X89352380Y-132206904D01*
X88352380Y-131873571D01*
X89352380Y-131540238D02*
X88352380Y-131540238D01*
X89352380Y-131064047D02*
X88352380Y-131064047D01*
X89352380Y-130492619D01*
X88352380Y-130492619D01*
X96250238Y-137247380D02*
X96583571Y-138247380D01*
X96916904Y-137247380D01*
X97250238Y-138247380D02*
X97250238Y-137247380D01*
X97583571Y-137961666D01*
X97916904Y-137247380D01*
X97916904Y-138247380D01*
X79105238Y-137247380D02*
X79438571Y-138247380D01*
X79771904Y-137247380D01*
X80105238Y-138247380D02*
X80105238Y-137247380D01*
X80438571Y-137961666D01*
X80771904Y-137247380D01*
X80771904Y-138247380D01*
X61960238Y-137247380D02*
X62293571Y-138247380D01*
X62626904Y-137247380D01*
X62960238Y-138247380D02*
X62960238Y-137247380D01*
X63293571Y-137961666D01*
X63626904Y-137247380D01*
X63626904Y-138247380D01*
X78613095Y-156345000D02*
X78517857Y-156297380D01*
X78375000Y-156297380D01*
X78232142Y-156345000D01*
X78136904Y-156440238D01*
X78089285Y-156535476D01*
X78041666Y-156725952D01*
X78041666Y-156868809D01*
X78089285Y-157059285D01*
X78136904Y-157154523D01*
X78232142Y-157249761D01*
X78375000Y-157297380D01*
X78470238Y-157297380D01*
X78613095Y-157249761D01*
X78660714Y-157202142D01*
X78660714Y-156868809D01*
X78470238Y-156868809D01*
X79089285Y-157297380D02*
X79089285Y-156297380D01*
X79660714Y-157297380D01*
X79660714Y-156297380D01*
X80136904Y-157297380D02*
X80136904Y-156297380D01*
X80375000Y-156297380D01*
X80517857Y-156345000D01*
X80613095Y-156440238D01*
X80660714Y-156535476D01*
X80708333Y-156725952D01*
X80708333Y-156868809D01*
X80660714Y-157059285D01*
X80613095Y-157154523D01*
X80517857Y-157249761D01*
X80375000Y-157297380D01*
X80136904Y-157297380D01*
X62103095Y-156345000D02*
X62007857Y-156297380D01*
X61865000Y-156297380D01*
X61722142Y-156345000D01*
X61626904Y-156440238D01*
X61579285Y-156535476D01*
X61531666Y-156725952D01*
X61531666Y-156868809D01*
X61579285Y-157059285D01*
X61626904Y-157154523D01*
X61722142Y-157249761D01*
X61865000Y-157297380D01*
X61960238Y-157297380D01*
X62103095Y-157249761D01*
X62150714Y-157202142D01*
X62150714Y-156868809D01*
X61960238Y-156868809D01*
X62579285Y-157297380D02*
X62579285Y-156297380D01*
X63150714Y-157297380D01*
X63150714Y-156297380D01*
X63626904Y-157297380D02*
X63626904Y-156297380D01*
X63865000Y-156297380D01*
X64007857Y-156345000D01*
X64103095Y-156440238D01*
X64150714Y-156535476D01*
X64198333Y-156725952D01*
X64198333Y-156868809D01*
X64150714Y-157059285D01*
X64103095Y-157154523D01*
X64007857Y-157249761D01*
X63865000Y-157297380D01*
X63626904Y-157297380D01*
X96393095Y-156345000D02*
X96297857Y-156297380D01*
X96155000Y-156297380D01*
X96012142Y-156345000D01*
X95916904Y-156440238D01*
X95869285Y-156535476D01*
X95821666Y-156725952D01*
X95821666Y-156868809D01*
X95869285Y-157059285D01*
X95916904Y-157154523D01*
X96012142Y-157249761D01*
X96155000Y-157297380D01*
X96250238Y-157297380D01*
X96393095Y-157249761D01*
X96440714Y-157202142D01*
X96440714Y-156868809D01*
X96250238Y-156868809D01*
X96869285Y-157297380D02*
X96869285Y-156297380D01*
X97440714Y-157297380D01*
X97440714Y-156297380D01*
X97916904Y-157297380D02*
X97916904Y-156297380D01*
X98155000Y-156297380D01*
X98297857Y-156345000D01*
X98393095Y-156440238D01*
X98440714Y-156535476D01*
X98488333Y-156725952D01*
X98488333Y-156868809D01*
X98440714Y-157059285D01*
X98393095Y-157154523D01*
X98297857Y-157249761D01*
X98155000Y-157297380D01*
X97916904Y-157297380D01*
X89805000Y-157297380D02*
X89805000Y-156297380D01*
X90043095Y-156297380D01*
X90185952Y-156345000D01*
X90281190Y-156440238D01*
X90328809Y-156535476D01*
X90376428Y-156725952D01*
X90376428Y-156868809D01*
X90328809Y-157059285D01*
X90281190Y-157154523D01*
X90185952Y-157249761D01*
X90043095Y-157297380D01*
X89805000Y-157297380D01*
X90805000Y-157297380D02*
X90805000Y-156297380D01*
X91852619Y-157297380D02*
X91519285Y-156821190D01*
X91281190Y-157297380D02*
X91281190Y-156297380D01*
X91662142Y-156297380D01*
X91757380Y-156345000D01*
X91805000Y-156392619D01*
X91852619Y-156487857D01*
X91852619Y-156630714D01*
X91805000Y-156725952D01*
X91757380Y-156773571D01*
X91662142Y-156821190D01*
X91281190Y-156821190D01*
X72660000Y-157297380D02*
X72660000Y-156297380D01*
X72898095Y-156297380D01*
X73040952Y-156345000D01*
X73136190Y-156440238D01*
X73183809Y-156535476D01*
X73231428Y-156725952D01*
X73231428Y-156868809D01*
X73183809Y-157059285D01*
X73136190Y-157154523D01*
X73040952Y-157249761D01*
X72898095Y-157297380D01*
X72660000Y-157297380D01*
X73660000Y-157297380D02*
X73660000Y-156297380D01*
X74707619Y-157297380D02*
X74374285Y-156821190D01*
X74136190Y-157297380D02*
X74136190Y-156297380D01*
X74517142Y-156297380D01*
X74612380Y-156345000D01*
X74660000Y-156392619D01*
X74707619Y-156487857D01*
X74707619Y-156630714D01*
X74660000Y-156725952D01*
X74612380Y-156773571D01*
X74517142Y-156821190D01*
X74136190Y-156821190D01*
X55515000Y-157297380D02*
X55515000Y-156297380D01*
X55753095Y-156297380D01*
X55895952Y-156345000D01*
X55991190Y-156440238D01*
X56038809Y-156535476D01*
X56086428Y-156725952D01*
X56086428Y-156868809D01*
X56038809Y-157059285D01*
X55991190Y-157154523D01*
X55895952Y-157249761D01*
X55753095Y-157297380D01*
X55515000Y-157297380D01*
X56515000Y-157297380D02*
X56515000Y-156297380D01*
X57562619Y-157297380D02*
X57229285Y-156821190D01*
X56991190Y-157297380D02*
X56991190Y-156297380D01*
X57372142Y-156297380D01*
X57467380Y-156345000D01*
X57515000Y-156392619D01*
X57562619Y-156487857D01*
X57562619Y-156630714D01*
X57515000Y-156725952D01*
X57467380Y-156773571D01*
X57372142Y-156821190D01*
X56991190Y-156821190D01*
X89431904Y-137723571D02*
X89765238Y-137723571D01*
X89908095Y-138247380D02*
X89431904Y-138247380D01*
X89431904Y-137247380D01*
X89908095Y-137247380D01*
X90336666Y-138247380D02*
X90336666Y-137247380D01*
X90908095Y-138247380D01*
X90908095Y-137247380D01*
X72286904Y-137088571D02*
X72620238Y-137088571D01*
X72763095Y-137612380D02*
X72286904Y-137612380D01*
X72286904Y-136612380D01*
X72763095Y-136612380D01*
X73191666Y-137612380D02*
X73191666Y-136612380D01*
X73763095Y-137612380D01*
X73763095Y-136612380D01*
X55141904Y-137723571D02*
X55475238Y-137723571D01*
X55618095Y-138247380D02*
X55141904Y-138247380D01*
X55141904Y-137247380D01*
X55618095Y-137247380D01*
X56046666Y-138247380D02*
X56046666Y-137247380D01*
X56618095Y-138247380D01*
X56618095Y-137247380D01*
X65873333Y-127992142D02*
X65825714Y-128039761D01*
X65682857Y-128087380D01*
X65587619Y-128087380D01*
X65444761Y-128039761D01*
X65349523Y-127944523D01*
X65301904Y-127849285D01*
X65254285Y-127658809D01*
X65254285Y-127515952D01*
X65301904Y-127325476D01*
X65349523Y-127230238D01*
X65444761Y-127135000D01*
X65587619Y-127087380D01*
X65682857Y-127087380D01*
X65825714Y-127135000D01*
X65873333Y-127182619D01*
X66254285Y-128039761D02*
X66397142Y-128087380D01*
X66635238Y-128087380D01*
X66730476Y-128039761D01*
X66778095Y-127992142D01*
X66825714Y-127896904D01*
X66825714Y-127801666D01*
X66778095Y-127706428D01*
X66730476Y-127658809D01*
X66635238Y-127611190D01*
X66444761Y-127563571D01*
X66349523Y-127515952D01*
X66301904Y-127468333D01*
X66254285Y-127373095D01*
X66254285Y-127277857D01*
X66301904Y-127182619D01*
X66349523Y-127135000D01*
X66444761Y-127087380D01*
X66682857Y-127087380D01*
X66825714Y-127135000D01*
X65103571Y-126182380D02*
X65103571Y-125182380D01*
X65436904Y-125896666D01*
X65770238Y-125182380D01*
X65770238Y-126182380D01*
X66436904Y-125182380D02*
X66627380Y-125182380D01*
X66722619Y-125230000D01*
X66817857Y-125325238D01*
X66865476Y-125515714D01*
X66865476Y-125849047D01*
X66817857Y-126039523D01*
X66722619Y-126134761D01*
X66627380Y-126182380D01*
X66436904Y-126182380D01*
X66341666Y-126134761D01*
X66246428Y-126039523D01*
X66198809Y-125849047D01*
X66198809Y-125515714D01*
X66246428Y-125325238D01*
X66341666Y-125230000D01*
X66436904Y-125182380D01*
X67246428Y-126134761D02*
X67389285Y-126182380D01*
X67627380Y-126182380D01*
X67722619Y-126134761D01*
X67770238Y-126087142D01*
X67817857Y-125991904D01*
X67817857Y-125896666D01*
X67770238Y-125801428D01*
X67722619Y-125753809D01*
X67627380Y-125706190D01*
X67436904Y-125658571D01*
X67341666Y-125610952D01*
X67294047Y-125563333D01*
X67246428Y-125468095D01*
X67246428Y-125372857D01*
X67294047Y-125277619D01*
X67341666Y-125230000D01*
X67436904Y-125182380D01*
X67675000Y-125182380D01*
X67817857Y-125230000D01*
X68246428Y-126182380D02*
X68246428Y-125182380D01*
X65198809Y-122642380D02*
X65817857Y-122642380D01*
X65484523Y-123023333D01*
X65627380Y-123023333D01*
X65722619Y-123070952D01*
X65770238Y-123118571D01*
X65817857Y-123213809D01*
X65817857Y-123451904D01*
X65770238Y-123547142D01*
X65722619Y-123594761D01*
X65627380Y-123642380D01*
X65341666Y-123642380D01*
X65246428Y-123594761D01*
X65198809Y-123547142D01*
X66246428Y-123547142D02*
X66294047Y-123594761D01*
X66246428Y-123642380D01*
X66198809Y-123594761D01*
X66246428Y-123547142D01*
X66246428Y-123642380D01*
X66627380Y-122642380D02*
X67246428Y-122642380D01*
X66913095Y-123023333D01*
X67055952Y-123023333D01*
X67151190Y-123070952D01*
X67198809Y-123118571D01*
X67246428Y-123213809D01*
X67246428Y-123451904D01*
X67198809Y-123547142D01*
X67151190Y-123594761D01*
X67055952Y-123642380D01*
X66770238Y-123642380D01*
X66675000Y-123594761D01*
X66627380Y-123547142D01*
X67532142Y-122642380D02*
X67865476Y-123642380D01*
X68198809Y-122642380D01*
X65389285Y-121054761D02*
X65532142Y-121102380D01*
X65770238Y-121102380D01*
X65865476Y-121054761D01*
X65913095Y-121007142D01*
X65960714Y-120911904D01*
X65960714Y-120816666D01*
X65913095Y-120721428D01*
X65865476Y-120673809D01*
X65770238Y-120626190D01*
X65579761Y-120578571D01*
X65484523Y-120530952D01*
X65436904Y-120483333D01*
X65389285Y-120388095D01*
X65389285Y-120292857D01*
X65436904Y-120197619D01*
X65484523Y-120150000D01*
X65579761Y-120102380D01*
X65817857Y-120102380D01*
X65960714Y-120150000D01*
X66960714Y-121007142D02*
X66913095Y-121054761D01*
X66770238Y-121102380D01*
X66675000Y-121102380D01*
X66532142Y-121054761D01*
X66436904Y-120959523D01*
X66389285Y-120864285D01*
X66341666Y-120673809D01*
X66341666Y-120530952D01*
X66389285Y-120340476D01*
X66436904Y-120245238D01*
X66532142Y-120150000D01*
X66675000Y-120102380D01*
X66770238Y-120102380D01*
X66913095Y-120150000D01*
X66960714Y-120197619D01*
X67389285Y-121102380D02*
X67389285Y-120102380D01*
X67960714Y-121102380D02*
X67532142Y-120530952D01*
X67960714Y-120102380D02*
X67389285Y-120673809D01*
X65913095Y-117610000D02*
X65817857Y-117562380D01*
X65675000Y-117562380D01*
X65532142Y-117610000D01*
X65436904Y-117705238D01*
X65389285Y-117800476D01*
X65341666Y-117990952D01*
X65341666Y-118133809D01*
X65389285Y-118324285D01*
X65436904Y-118419523D01*
X65532142Y-118514761D01*
X65675000Y-118562380D01*
X65770238Y-118562380D01*
X65913095Y-118514761D01*
X65960714Y-118467142D01*
X65960714Y-118133809D01*
X65770238Y-118133809D01*
X66389285Y-118562380D02*
X66389285Y-117562380D01*
X66960714Y-118562380D01*
X66960714Y-117562380D01*
X67436904Y-118562380D02*
X67436904Y-117562380D01*
X67675000Y-117562380D01*
X67817857Y-117610000D01*
X67913095Y-117705238D01*
X67960714Y-117800476D01*
X68008333Y-117990952D01*
X68008333Y-118133809D01*
X67960714Y-118324285D01*
X67913095Y-118419523D01*
X67817857Y-118514761D01*
X67675000Y-118562380D01*
X67436904Y-118562380D01*
X65103571Y-116022380D02*
X65103571Y-115022380D01*
X65436904Y-115736666D01*
X65770238Y-115022380D01*
X65770238Y-116022380D01*
X66246428Y-116022380D02*
X66246428Y-115022380D01*
X66675000Y-115974761D02*
X66817857Y-116022380D01*
X67055952Y-116022380D01*
X67151190Y-115974761D01*
X67198809Y-115927142D01*
X67246428Y-115831904D01*
X67246428Y-115736666D01*
X67198809Y-115641428D01*
X67151190Y-115593809D01*
X67055952Y-115546190D01*
X66865476Y-115498571D01*
X66770238Y-115450952D01*
X66722619Y-115403333D01*
X66675000Y-115308095D01*
X66675000Y-115212857D01*
X66722619Y-115117619D01*
X66770238Y-115070000D01*
X66865476Y-115022380D01*
X67103571Y-115022380D01*
X67246428Y-115070000D01*
X67865476Y-115022380D02*
X68055952Y-115022380D01*
X68151190Y-115070000D01*
X68246428Y-115165238D01*
X68294047Y-115355714D01*
X68294047Y-115689047D01*
X68246428Y-115879523D01*
X68151190Y-115974761D01*
X68055952Y-116022380D01*
X67865476Y-116022380D01*
X67770238Y-115974761D01*
X67675000Y-115879523D01*
X67627380Y-115689047D01*
X67627380Y-115355714D01*
X67675000Y-115165238D01*
X67770238Y-115070000D01*
X67865476Y-115022380D01*
X72580952Y-95942380D02*
X72104761Y-95942380D01*
X72057142Y-96418571D01*
X72104761Y-96370952D01*
X72200000Y-96323333D01*
X72438095Y-96323333D01*
X72533333Y-96370952D01*
X72580952Y-96418571D01*
X72628571Y-96513809D01*
X72628571Y-96751904D01*
X72580952Y-96847142D01*
X72533333Y-96894761D01*
X72438095Y-96942380D01*
X72200000Y-96942380D01*
X72104761Y-96894761D01*
X72057142Y-96847142D01*
X72961904Y-95942380D02*
X73580952Y-95942380D01*
X73247619Y-96323333D01*
X73390476Y-96323333D01*
X73485714Y-96370952D01*
X73533333Y-96418571D01*
X73580952Y-96513809D01*
X73580952Y-96751904D01*
X73533333Y-96847142D01*
X73485714Y-96894761D01*
X73390476Y-96942380D01*
X73104761Y-96942380D01*
X73009523Y-96894761D01*
X72961904Y-96847142D01*
X74057142Y-96894761D02*
X74057142Y-96942380D01*
X74009523Y-97037619D01*
X73961904Y-97085238D01*
X74390476Y-95942380D02*
X75009523Y-95942380D01*
X74676190Y-96323333D01*
X74819047Y-96323333D01*
X74914285Y-96370952D01*
X74961904Y-96418571D01*
X75009523Y-96513809D01*
X75009523Y-96751904D01*
X74961904Y-96847142D01*
X74914285Y-96894761D01*
X74819047Y-96942380D01*
X74533333Y-96942380D01*
X74438095Y-96894761D01*
X74390476Y-96847142D01*
X75866666Y-96275714D02*
X75866666Y-96942380D01*
X75628571Y-95894761D02*
X75390476Y-96609047D01*
X76009523Y-96609047D01*
X76580952Y-95942380D02*
X76676190Y-95942380D01*
X76771428Y-95990000D01*
X76819047Y-96037619D01*
X76866666Y-96132857D01*
X76914285Y-96323333D01*
X76914285Y-96561428D01*
X76866666Y-96751904D01*
X76819047Y-96847142D01*
X76771428Y-96894761D01*
X76676190Y-96942380D01*
X76580952Y-96942380D01*
X76485714Y-96894761D01*
X76438095Y-96847142D01*
X76390476Y-96751904D01*
X76342857Y-96561428D01*
X76342857Y-96323333D01*
X76390476Y-96132857D01*
X76438095Y-96037619D01*
X76485714Y-95990000D01*
X76580952Y-95942380D01*
X78104761Y-96942380D02*
X78104761Y-96275714D01*
X78104761Y-96370952D02*
X78152380Y-96323333D01*
X78247619Y-96275714D01*
X78390476Y-96275714D01*
X78485714Y-96323333D01*
X78533333Y-96418571D01*
X78533333Y-96942380D01*
X78533333Y-96418571D02*
X78580952Y-96323333D01*
X78676190Y-96275714D01*
X78819047Y-96275714D01*
X78914285Y-96323333D01*
X78961904Y-96418571D01*
X78961904Y-96942380D01*
X79438095Y-96942380D02*
X79438095Y-96275714D01*
X79438095Y-96370952D02*
X79485714Y-96323333D01*
X79580952Y-96275714D01*
X79723809Y-96275714D01*
X79819047Y-96323333D01*
X79866666Y-96418571D01*
X79866666Y-96942380D01*
X79866666Y-96418571D02*
X79914285Y-96323333D01*
X80009523Y-96275714D01*
X80152380Y-96275714D01*
X80247619Y-96323333D01*
X80295238Y-96418571D01*
X80295238Y-96942380D01*
X102870000Y-97790000D02*
X49530000Y-97790000D01*
X102870000Y-105409999D02*
X102870000Y-97203579D01*
X49530000Y-105409999D02*
X49530000Y-97203579D01*
X49530000Y-97790000D02*
X50656504Y-97203579D01*
X49530000Y-97790000D02*
X50656504Y-98376421D01*
X102870000Y-97790000D02*
X101743496Y-97203579D01*
X102870000Y-97790000D02*
X101743496Y-98376421D01*
X106162380Y-137016666D02*
X106162380Y-137207142D01*
X106210000Y-137302380D01*
X106257619Y-137350000D01*
X106400476Y-137445238D01*
X106590952Y-137492857D01*
X106971904Y-137492857D01*
X107067142Y-137445238D01*
X107114761Y-137397619D01*
X107162380Y-137302380D01*
X107162380Y-137111904D01*
X107114761Y-137016666D01*
X107067142Y-136969047D01*
X106971904Y-136921428D01*
X106733809Y-136921428D01*
X106638571Y-136969047D01*
X106590952Y-137016666D01*
X106543333Y-137111904D01*
X106543333Y-137302380D01*
X106590952Y-137397619D01*
X106638571Y-137445238D01*
X106733809Y-137492857D01*
X106162380Y-136064285D02*
X106162380Y-136254761D01*
X106210000Y-136350000D01*
X106257619Y-136397619D01*
X106400476Y-136492857D01*
X106590952Y-136540476D01*
X106971904Y-136540476D01*
X107067142Y-136492857D01*
X107114761Y-136445238D01*
X107162380Y-136350000D01*
X107162380Y-136159523D01*
X107114761Y-136064285D01*
X107067142Y-136016666D01*
X106971904Y-135969047D01*
X106733809Y-135969047D01*
X106638571Y-136016666D01*
X106590952Y-136064285D01*
X106543333Y-136159523D01*
X106543333Y-136350000D01*
X106590952Y-136445238D01*
X106638571Y-136492857D01*
X106733809Y-136540476D01*
X107114761Y-135492857D02*
X107162380Y-135492857D01*
X107257619Y-135540476D01*
X107305238Y-135588095D01*
X106162380Y-134873809D02*
X106162380Y-134778571D01*
X106210000Y-134683333D01*
X106257619Y-134635714D01*
X106352857Y-134588095D01*
X106543333Y-134540476D01*
X106781428Y-134540476D01*
X106971904Y-134588095D01*
X107067142Y-134635714D01*
X107114761Y-134683333D01*
X107162380Y-134778571D01*
X107162380Y-134873809D01*
X107114761Y-134969047D01*
X107067142Y-135016666D01*
X106971904Y-135064285D01*
X106781428Y-135111904D01*
X106543333Y-135111904D01*
X106352857Y-135064285D01*
X106257619Y-135016666D01*
X106210000Y-134969047D01*
X106162380Y-134873809D01*
X106495714Y-133683333D02*
X107162380Y-133683333D01*
X106114761Y-133921428D02*
X106829047Y-134159523D01*
X106829047Y-133540476D01*
X106162380Y-132969047D02*
X106162380Y-132873809D01*
X106210000Y-132778571D01*
X106257619Y-132730952D01*
X106352857Y-132683333D01*
X106543333Y-132635714D01*
X106781428Y-132635714D01*
X106971904Y-132683333D01*
X107067142Y-132730952D01*
X107114761Y-132778571D01*
X107162380Y-132873809D01*
X107162380Y-132969047D01*
X107114761Y-133064285D01*
X107067142Y-133111904D01*
X106971904Y-133159523D01*
X106781428Y-133207142D01*
X106543333Y-133207142D01*
X106352857Y-133159523D01*
X106257619Y-133111904D01*
X106210000Y-133064285D01*
X106162380Y-132969047D01*
X107162380Y-131445238D02*
X106495714Y-131445238D01*
X106590952Y-131445238D02*
X106543333Y-131397619D01*
X106495714Y-131302380D01*
X106495714Y-131159523D01*
X106543333Y-131064285D01*
X106638571Y-131016666D01*
X107162380Y-131016666D01*
X106638571Y-131016666D02*
X106543333Y-130969047D01*
X106495714Y-130873809D01*
X106495714Y-130730952D01*
X106543333Y-130635714D01*
X106638571Y-130588095D01*
X107162380Y-130588095D01*
X107162380Y-130111904D02*
X106495714Y-130111904D01*
X106590952Y-130111904D02*
X106543333Y-130064285D01*
X106495714Y-129969047D01*
X106495714Y-129826190D01*
X106543333Y-129730952D01*
X106638571Y-129683333D01*
X107162380Y-129683333D01*
X106638571Y-129683333D02*
X106543333Y-129635714D01*
X106495714Y-129540476D01*
X106495714Y-129397619D01*
X106543333Y-129302380D01*
X106638571Y-129254761D01*
X107162380Y-129254761D01*
X105410000Y-166370000D02*
X105410000Y-100330000D01*
X102870000Y-166370000D02*
X105996421Y-166370000D01*
X102870000Y-100330000D02*
X105996421Y-100330000D01*
X105410000Y-100330000D02*
X105996421Y-101456504D01*
X105410000Y-100330000D02*
X104823579Y-101456504D01*
X105410000Y-166370000D02*
X105996421Y-165243496D01*
X105410000Y-166370000D02*
X104823579Y-165243496D01*
D11*
G36*
X89511910Y-120051348D02*
G01*
X89590454Y-120051778D01*
X89647298Y-120052942D01*
X89686105Y-120055207D01*
X89710538Y-120058940D01*
X89724262Y-120064506D01*
X89730940Y-120072273D01*
X89734236Y-120082605D01*
X89734556Y-120083943D01*
X89739562Y-120108079D01*
X89748829Y-120155701D01*
X89761392Y-120221741D01*
X89776287Y-120301128D01*
X89792551Y-120388796D01*
X89793119Y-120391875D01*
X89809410Y-120477789D01*
X89824652Y-120553696D01*
X89837861Y-120615045D01*
X89848054Y-120657282D01*
X89854248Y-120675855D01*
X89854543Y-120676184D01*
X89872788Y-120685253D01*
X89910405Y-120700367D01*
X89959271Y-120718262D01*
X89959543Y-120718358D01*
X90021093Y-120741493D01*
X90093657Y-120770965D01*
X90162057Y-120800597D01*
X90165294Y-120802062D01*
X90276702Y-120852626D01*
X90523399Y-120684160D01*
X90599077Y-120632803D01*
X90667631Y-120586889D01*
X90725088Y-120549030D01*
X90767476Y-120521837D01*
X90790825Y-120507921D01*
X90793042Y-120506889D01*
X90810010Y-120511484D01*
X90841701Y-120533655D01*
X90889352Y-120574447D01*
X90954198Y-120634905D01*
X91020397Y-120699227D01*
X91084214Y-120762612D01*
X91141329Y-120820451D01*
X91188305Y-120869175D01*
X91221703Y-120905210D01*
X91238085Y-120924984D01*
X91238694Y-120926002D01*
X91240505Y-120939572D01*
X91233683Y-120961733D01*
X91216540Y-120995478D01*
X91187393Y-121043800D01*
X91144555Y-121109692D01*
X91087448Y-121194517D01*
X91036766Y-121269177D01*
X90991461Y-121336140D01*
X90954150Y-121391516D01*
X90927452Y-121431420D01*
X90913985Y-121451962D01*
X90913137Y-121453356D01*
X90914781Y-121473038D01*
X90927245Y-121511293D01*
X90948048Y-121560889D01*
X90955462Y-121576728D01*
X90987814Y-121647290D01*
X91022328Y-121727353D01*
X91050365Y-121796629D01*
X91070568Y-121848045D01*
X91086615Y-121887119D01*
X91095888Y-121907541D01*
X91097041Y-121909114D01*
X91114096Y-121911721D01*
X91154298Y-121918863D01*
X91212302Y-121929523D01*
X91282763Y-121942685D01*
X91360335Y-121957333D01*
X91439672Y-121972449D01*
X91515431Y-121987018D01*
X91582264Y-122000022D01*
X91634828Y-122010445D01*
X91667776Y-122017270D01*
X91675857Y-122019199D01*
X91684205Y-122023962D01*
X91690506Y-122034718D01*
X91695045Y-122055098D01*
X91698104Y-122088734D01*
X91699967Y-122139255D01*
X91700918Y-122210292D01*
X91701240Y-122305476D01*
X91701257Y-122344492D01*
X91701257Y-122661799D01*
X91625057Y-122676839D01*
X91582663Y-122684995D01*
X91519400Y-122696899D01*
X91442962Y-122711116D01*
X91361043Y-122726210D01*
X91338400Y-122730355D01*
X91262806Y-122745053D01*
X91196953Y-122759505D01*
X91146366Y-122772375D01*
X91116574Y-122782322D01*
X91111612Y-122785287D01*
X91099426Y-122806283D01*
X91081953Y-122846967D01*
X91062577Y-122899322D01*
X91058734Y-122910600D01*
X91033339Y-122980523D01*
X91001817Y-123059418D01*
X90970969Y-123130266D01*
X90970817Y-123130595D01*
X90919447Y-123241733D01*
X91088399Y-123490253D01*
X91257352Y-123738772D01*
X91040429Y-123956058D01*
X90974819Y-124020726D01*
X90914979Y-124077733D01*
X90864267Y-124124033D01*
X90826046Y-124156584D01*
X90803675Y-124172343D01*
X90800466Y-124173343D01*
X90781626Y-124165469D01*
X90743180Y-124143578D01*
X90689330Y-124110267D01*
X90624276Y-124068131D01*
X90553940Y-124020943D01*
X90482555Y-123972810D01*
X90418908Y-123930928D01*
X90367041Y-123897871D01*
X90330995Y-123876218D01*
X90314867Y-123868543D01*
X90295189Y-123875037D01*
X90257875Y-123892150D01*
X90210621Y-123916326D01*
X90205612Y-123919013D01*
X90141977Y-123950927D01*
X90098341Y-123966579D01*
X90071202Y-123966745D01*
X90057057Y-123952204D01*
X90056975Y-123952000D01*
X90049905Y-123934779D01*
X90033042Y-123893899D01*
X90007695Y-123832525D01*
X89975171Y-123753819D01*
X89936778Y-123660947D01*
X89893822Y-123557072D01*
X89852222Y-123456502D01*
X89806504Y-123345516D01*
X89764526Y-123242703D01*
X89727548Y-123151215D01*
X89696827Y-123074201D01*
X89673622Y-123014815D01*
X89659190Y-122976209D01*
X89654743Y-122961800D01*
X89665896Y-122945272D01*
X89695069Y-122918930D01*
X89733971Y-122889887D01*
X89844757Y-122798039D01*
X89931351Y-122692759D01*
X89992716Y-122576266D01*
X90027815Y-122450776D01*
X90035608Y-122318507D01*
X90029943Y-122257457D01*
X89999078Y-122130795D01*
X89945920Y-122018941D01*
X89873767Y-121923001D01*
X89785917Y-121844076D01*
X89685665Y-121783270D01*
X89576310Y-121741687D01*
X89461147Y-121720428D01*
X89343475Y-121720599D01*
X89226590Y-121743301D01*
X89113789Y-121789638D01*
X89008369Y-121860713D01*
X88964368Y-121900911D01*
X88879979Y-122004129D01*
X88821222Y-122116925D01*
X88787704Y-122236010D01*
X88779035Y-122358095D01*
X88794823Y-122479893D01*
X88834678Y-122598116D01*
X88898207Y-122709475D01*
X88985021Y-122810684D01*
X89082029Y-122889887D01*
X89122437Y-122920162D01*
X89150982Y-122946219D01*
X89161257Y-122961825D01*
X89155877Y-122978843D01*
X89140575Y-123019500D01*
X89116612Y-123080642D01*
X89085244Y-123159119D01*
X89047732Y-123251780D01*
X89005333Y-123355472D01*
X88963663Y-123456526D01*
X88917690Y-123567607D01*
X88875107Y-123670541D01*
X88837221Y-123762165D01*
X88805340Y-123839316D01*
X88780771Y-123898831D01*
X88764820Y-123937544D01*
X88758910Y-123952000D01*
X88744948Y-123966685D01*
X88717940Y-123966642D01*
X88674413Y-123951099D01*
X88610890Y-123919284D01*
X88610388Y-123919013D01*
X88562560Y-123894323D01*
X88523897Y-123876338D01*
X88502095Y-123868614D01*
X88501133Y-123868543D01*
X88484721Y-123876378D01*
X88448487Y-123898165D01*
X88396474Y-123931328D01*
X88332725Y-123973291D01*
X88262060Y-124020943D01*
X88190116Y-124069191D01*
X88125274Y-124111151D01*
X88071735Y-124144227D01*
X88033697Y-124165821D01*
X88015533Y-124173343D01*
X87998808Y-124163457D01*
X87965180Y-124135826D01*
X87918010Y-124093495D01*
X87860658Y-124039505D01*
X87796484Y-123976899D01*
X87775497Y-123955983D01*
X87558499Y-123738623D01*
X87723668Y-123496220D01*
X87773864Y-123421781D01*
X87817919Y-123354972D01*
X87853362Y-123299665D01*
X87877719Y-123259729D01*
X87888522Y-123239036D01*
X87888838Y-123237563D01*
X87883143Y-123218058D01*
X87867826Y-123178822D01*
X87845537Y-123126430D01*
X87829893Y-123091355D01*
X87800641Y-123024201D01*
X87773094Y-122956358D01*
X87751737Y-122899034D01*
X87745935Y-122881572D01*
X87729452Y-122834938D01*
X87713340Y-122798905D01*
X87704490Y-122785287D01*
X87684960Y-122776952D01*
X87642334Y-122765137D01*
X87582145Y-122751181D01*
X87509922Y-122736422D01*
X87477600Y-122730355D01*
X87395522Y-122715273D01*
X87316795Y-122700669D01*
X87249109Y-122687980D01*
X87200160Y-122678642D01*
X87190943Y-122676839D01*
X87114743Y-122661799D01*
X87114743Y-122344492D01*
X87114914Y-122240154D01*
X87115616Y-122161213D01*
X87117134Y-122104038D01*
X87119749Y-122064999D01*
X87123746Y-122040465D01*
X87129409Y-122026805D01*
X87137020Y-122020389D01*
X87140143Y-122019199D01*
X87158978Y-122014980D01*
X87200588Y-122006562D01*
X87259630Y-121994961D01*
X87330757Y-121981195D01*
X87408625Y-121966280D01*
X87487887Y-121951232D01*
X87563198Y-121937069D01*
X87629213Y-121924806D01*
X87680587Y-121915461D01*
X87711975Y-121910050D01*
X87718959Y-121909114D01*
X87725285Y-121896596D01*
X87739290Y-121863246D01*
X87758355Y-121815377D01*
X87765634Y-121796629D01*
X87794996Y-121724195D01*
X87829571Y-121644170D01*
X87860537Y-121576728D01*
X87883323Y-121525159D01*
X87898482Y-121482785D01*
X87903542Y-121456834D01*
X87902736Y-121453356D01*
X87892041Y-121436936D01*
X87867620Y-121400417D01*
X87832095Y-121347687D01*
X87788087Y-121282635D01*
X87738217Y-121209151D01*
X87728356Y-121194645D01*
X87670492Y-121108704D01*
X87627956Y-121043261D01*
X87599054Y-120995304D01*
X87582090Y-120961820D01*
X87575367Y-120939795D01*
X87577190Y-120926217D01*
X87577236Y-120926131D01*
X87591586Y-120908297D01*
X87623323Y-120873817D01*
X87669010Y-120826268D01*
X87725204Y-120769222D01*
X87788468Y-120706255D01*
X87795602Y-120699227D01*
X87875330Y-120622020D01*
X87936857Y-120565330D01*
X87981421Y-120528110D01*
X88010257Y-120509315D01*
X88022958Y-120506889D01*
X88041494Y-120517471D01*
X88079961Y-120541916D01*
X88134386Y-120577612D01*
X88200798Y-120621947D01*
X88275225Y-120672311D01*
X88292601Y-120684160D01*
X88539297Y-120852626D01*
X88650706Y-120802062D01*
X88718457Y-120772595D01*
X88791183Y-120742959D01*
X88853703Y-120719330D01*
X88856457Y-120718358D01*
X88905360Y-120700457D01*
X88943057Y-120685320D01*
X88961425Y-120676210D01*
X88961456Y-120676184D01*
X88967285Y-120659717D01*
X88977192Y-120619219D01*
X88990195Y-120559242D01*
X89005309Y-120484340D01*
X89021552Y-120399064D01*
X89022881Y-120391875D01*
X89039175Y-120304014D01*
X89054133Y-120224260D01*
X89066791Y-120157681D01*
X89076186Y-120109347D01*
X89081354Y-120084325D01*
X89081444Y-120083943D01*
X89084589Y-120073299D01*
X89090704Y-120065262D01*
X89103453Y-120059467D01*
X89126500Y-120055547D01*
X89163509Y-120053135D01*
X89218144Y-120051865D01*
X89294067Y-120051371D01*
X89394944Y-120051286D01*
X89408000Y-120051286D01*
X89511910Y-120051348D01*
G37*
X89511910Y-120051348D02*
X89590454Y-120051778D01*
X89647298Y-120052942D01*
X89686105Y-120055207D01*
X89710538Y-120058940D01*
X89724262Y-120064506D01*
X89730940Y-120072273D01*
X89734236Y-120082605D01*
X89734556Y-120083943D01*
X89739562Y-120108079D01*
X89748829Y-120155701D01*
X89761392Y-120221741D01*
X89776287Y-120301128D01*
X89792551Y-120388796D01*
X89793119Y-120391875D01*
X89809410Y-120477789D01*
X89824652Y-120553696D01*
X89837861Y-120615045D01*
X89848054Y-120657282D01*
X89854248Y-120675855D01*
X89854543Y-120676184D01*
X89872788Y-120685253D01*
X89910405Y-120700367D01*
X89959271Y-120718262D01*
X89959543Y-120718358D01*
X90021093Y-120741493D01*
X90093657Y-120770965D01*
X90162057Y-120800597D01*
X90165294Y-120802062D01*
X90276702Y-120852626D01*
X90523399Y-120684160D01*
X90599077Y-120632803D01*
X90667631Y-120586889D01*
X90725088Y-120549030D01*
X90767476Y-120521837D01*
X90790825Y-120507921D01*
X90793042Y-120506889D01*
X90810010Y-120511484D01*
X90841701Y-120533655D01*
X90889352Y-120574447D01*
X90954198Y-120634905D01*
X91020397Y-120699227D01*
X91084214Y-120762612D01*
X91141329Y-120820451D01*
X91188305Y-120869175D01*
X91221703Y-120905210D01*
X91238085Y-120924984D01*
X91238694Y-120926002D01*
X91240505Y-120939572D01*
X91233683Y-120961733D01*
X91216540Y-120995478D01*
X91187393Y-121043800D01*
X91144555Y-121109692D01*
X91087448Y-121194517D01*
X91036766Y-121269177D01*
X90991461Y-121336140D01*
X90954150Y-121391516D01*
X90927452Y-121431420D01*
X90913985Y-121451962D01*
X90913137Y-121453356D01*
X90914781Y-121473038D01*
X90927245Y-121511293D01*
X90948048Y-121560889D01*
X90955462Y-121576728D01*
X90987814Y-121647290D01*
X91022328Y-121727353D01*
X91050365Y-121796629D01*
X91070568Y-121848045D01*
X91086615Y-121887119D01*
X91095888Y-121907541D01*
X91097041Y-121909114D01*
X91114096Y-121911721D01*
X91154298Y-121918863D01*
X91212302Y-121929523D01*
X91282763Y-121942685D01*
X91360335Y-121957333D01*
X91439672Y-121972449D01*
X91515431Y-121987018D01*
X91582264Y-122000022D01*
X91634828Y-122010445D01*
X91667776Y-122017270D01*
X91675857Y-122019199D01*
X91684205Y-122023962D01*
X91690506Y-122034718D01*
X91695045Y-122055098D01*
X91698104Y-122088734D01*
X91699967Y-122139255D01*
X91700918Y-122210292D01*
X91701240Y-122305476D01*
X91701257Y-122344492D01*
X91701257Y-122661799D01*
X91625057Y-122676839D01*
X91582663Y-122684995D01*
X91519400Y-122696899D01*
X91442962Y-122711116D01*
X91361043Y-122726210D01*
X91338400Y-122730355D01*
X91262806Y-122745053D01*
X91196953Y-122759505D01*
X91146366Y-122772375D01*
X91116574Y-122782322D01*
X91111612Y-122785287D01*
X91099426Y-122806283D01*
X91081953Y-122846967D01*
X91062577Y-122899322D01*
X91058734Y-122910600D01*
X91033339Y-122980523D01*
X91001817Y-123059418D01*
X90970969Y-123130266D01*
X90970817Y-123130595D01*
X90919447Y-123241733D01*
X91088399Y-123490253D01*
X91257352Y-123738772D01*
X91040429Y-123956058D01*
X90974819Y-124020726D01*
X90914979Y-124077733D01*
X90864267Y-124124033D01*
X90826046Y-124156584D01*
X90803675Y-124172343D01*
X90800466Y-124173343D01*
X90781626Y-124165469D01*
X90743180Y-124143578D01*
X90689330Y-124110267D01*
X90624276Y-124068131D01*
X90553940Y-124020943D01*
X90482555Y-123972810D01*
X90418908Y-123930928D01*
X90367041Y-123897871D01*
X90330995Y-123876218D01*
X90314867Y-123868543D01*
X90295189Y-123875037D01*
X90257875Y-123892150D01*
X90210621Y-123916326D01*
X90205612Y-123919013D01*
X90141977Y-123950927D01*
X90098341Y-123966579D01*
X90071202Y-123966745D01*
X90057057Y-123952204D01*
X90056975Y-123952000D01*
X90049905Y-123934779D01*
X90033042Y-123893899D01*
X90007695Y-123832525D01*
X89975171Y-123753819D01*
X89936778Y-123660947D01*
X89893822Y-123557072D01*
X89852222Y-123456502D01*
X89806504Y-123345516D01*
X89764526Y-123242703D01*
X89727548Y-123151215D01*
X89696827Y-123074201D01*
X89673622Y-123014815D01*
X89659190Y-122976209D01*
X89654743Y-122961800D01*
X89665896Y-122945272D01*
X89695069Y-122918930D01*
X89733971Y-122889887D01*
X89844757Y-122798039D01*
X89931351Y-122692759D01*
X89992716Y-122576266D01*
X90027815Y-122450776D01*
X90035608Y-122318507D01*
X90029943Y-122257457D01*
X89999078Y-122130795D01*
X89945920Y-122018941D01*
X89873767Y-121923001D01*
X89785917Y-121844076D01*
X89685665Y-121783270D01*
X89576310Y-121741687D01*
X89461147Y-121720428D01*
X89343475Y-121720599D01*
X89226590Y-121743301D01*
X89113789Y-121789638D01*
X89008369Y-121860713D01*
X88964368Y-121900911D01*
X88879979Y-122004129D01*
X88821222Y-122116925D01*
X88787704Y-122236010D01*
X88779035Y-122358095D01*
X88794823Y-122479893D01*
X88834678Y-122598116D01*
X88898207Y-122709475D01*
X88985021Y-122810684D01*
X89082029Y-122889887D01*
X89122437Y-122920162D01*
X89150982Y-122946219D01*
X89161257Y-122961825D01*
X89155877Y-122978843D01*
X89140575Y-123019500D01*
X89116612Y-123080642D01*
X89085244Y-123159119D01*
X89047732Y-123251780D01*
X89005333Y-123355472D01*
X88963663Y-123456526D01*
X88917690Y-123567607D01*
X88875107Y-123670541D01*
X88837221Y-123762165D01*
X88805340Y-123839316D01*
X88780771Y-123898831D01*
X88764820Y-123937544D01*
X88758910Y-123952000D01*
X88744948Y-123966685D01*
X88717940Y-123966642D01*
X88674413Y-123951099D01*
X88610890Y-123919284D01*
X88610388Y-123919013D01*
X88562560Y-123894323D01*
X88523897Y-123876338D01*
X88502095Y-123868614D01*
X88501133Y-123868543D01*
X88484721Y-123876378D01*
X88448487Y-123898165D01*
X88396474Y-123931328D01*
X88332725Y-123973291D01*
X88262060Y-124020943D01*
X88190116Y-124069191D01*
X88125274Y-124111151D01*
X88071735Y-124144227D01*
X88033697Y-124165821D01*
X88015533Y-124173343D01*
X87998808Y-124163457D01*
X87965180Y-124135826D01*
X87918010Y-124093495D01*
X87860658Y-124039505D01*
X87796484Y-123976899D01*
X87775497Y-123955983D01*
X87558499Y-123738623D01*
X87723668Y-123496220D01*
X87773864Y-123421781D01*
X87817919Y-123354972D01*
X87853362Y-123299665D01*
X87877719Y-123259729D01*
X87888522Y-123239036D01*
X87888838Y-123237563D01*
X87883143Y-123218058D01*
X87867826Y-123178822D01*
X87845537Y-123126430D01*
X87829893Y-123091355D01*
X87800641Y-123024201D01*
X87773094Y-122956358D01*
X87751737Y-122899034D01*
X87745935Y-122881572D01*
X87729452Y-122834938D01*
X87713340Y-122798905D01*
X87704490Y-122785287D01*
X87684960Y-122776952D01*
X87642334Y-122765137D01*
X87582145Y-122751181D01*
X87509922Y-122736422D01*
X87477600Y-122730355D01*
X87395522Y-122715273D01*
X87316795Y-122700669D01*
X87249109Y-122687980D01*
X87200160Y-122678642D01*
X87190943Y-122676839D01*
X87114743Y-122661799D01*
X87114743Y-122344492D01*
X87114914Y-122240154D01*
X87115616Y-122161213D01*
X87117134Y-122104038D01*
X87119749Y-122064999D01*
X87123746Y-122040465D01*
X87129409Y-122026805D01*
X87137020Y-122020389D01*
X87140143Y-122019199D01*
X87158978Y-122014980D01*
X87200588Y-122006562D01*
X87259630Y-121994961D01*
X87330757Y-121981195D01*
X87408625Y-121966280D01*
X87487887Y-121951232D01*
X87563198Y-121937069D01*
X87629213Y-121924806D01*
X87680587Y-121915461D01*
X87711975Y-121910050D01*
X87718959Y-121909114D01*
X87725285Y-121896596D01*
X87739290Y-121863246D01*
X87758355Y-121815377D01*
X87765634Y-121796629D01*
X87794996Y-121724195D01*
X87829571Y-121644170D01*
X87860537Y-121576728D01*
X87883323Y-121525159D01*
X87898482Y-121482785D01*
X87903542Y-121456834D01*
X87902736Y-121453356D01*
X87892041Y-121436936D01*
X87867620Y-121400417D01*
X87832095Y-121347687D01*
X87788087Y-121282635D01*
X87738217Y-121209151D01*
X87728356Y-121194645D01*
X87670492Y-121108704D01*
X87627956Y-121043261D01*
X87599054Y-120995304D01*
X87582090Y-120961820D01*
X87575367Y-120939795D01*
X87577190Y-120926217D01*
X87577236Y-120926131D01*
X87591586Y-120908297D01*
X87623323Y-120873817D01*
X87669010Y-120826268D01*
X87725204Y-120769222D01*
X87788468Y-120706255D01*
X87795602Y-120699227D01*
X87875330Y-120622020D01*
X87936857Y-120565330D01*
X87981421Y-120528110D01*
X88010257Y-120509315D01*
X88022958Y-120506889D01*
X88041494Y-120517471D01*
X88079961Y-120541916D01*
X88134386Y-120577612D01*
X88200798Y-120621947D01*
X88275225Y-120672311D01*
X88292601Y-120684160D01*
X88539297Y-120852626D01*
X88650706Y-120802062D01*
X88718457Y-120772595D01*
X88791183Y-120742959D01*
X88853703Y-120719330D01*
X88856457Y-120718358D01*
X88905360Y-120700457D01*
X88943057Y-120685320D01*
X88961425Y-120676210D01*
X88961456Y-120676184D01*
X88967285Y-120659717D01*
X88977192Y-120619219D01*
X88990195Y-120559242D01*
X89005309Y-120484340D01*
X89021552Y-120399064D01*
X89022881Y-120391875D01*
X89039175Y-120304014D01*
X89054133Y-120224260D01*
X89066791Y-120157681D01*
X89076186Y-120109347D01*
X89081354Y-120084325D01*
X89081444Y-120083943D01*
X89084589Y-120073299D01*
X89090704Y-120065262D01*
X89103453Y-120059467D01*
X89126500Y-120055547D01*
X89163509Y-120053135D01*
X89218144Y-120051865D01*
X89294067Y-120051371D01*
X89394944Y-120051286D01*
X89408000Y-120051286D01*
X89511910Y-120051348D01*
G36*
X92561595Y-124775966D02*
G01*
X92619021Y-124813497D01*
X92646719Y-124847096D01*
X92668662Y-124908064D01*
X92670405Y-124956308D01*
X92666457Y-125020816D01*
X92517686Y-125085934D01*
X92445349Y-125119202D01*
X92398084Y-125145964D01*
X92373507Y-125169144D01*
X92369237Y-125191667D01*
X92382889Y-125216455D01*
X92397943Y-125232886D01*
X92441746Y-125259235D01*
X92489389Y-125261081D01*
X92533145Y-125240546D01*
X92565289Y-125199752D01*
X92571038Y-125185347D01*
X92598576Y-125140356D01*
X92630258Y-125121182D01*
X92673714Y-125104779D01*
X92673714Y-125166966D01*
X92669872Y-125209283D01*
X92654823Y-125244969D01*
X92623280Y-125285943D01*
X92618592Y-125291267D01*
X92583506Y-125327720D01*
X92553347Y-125347283D01*
X92515615Y-125356283D01*
X92484335Y-125359230D01*
X92428385Y-125359965D01*
X92388555Y-125350660D01*
X92363708Y-125336846D01*
X92324656Y-125306467D01*
X92297625Y-125273613D01*
X92280517Y-125232294D01*
X92271238Y-125176521D01*
X92267693Y-125100305D01*
X92267410Y-125061622D01*
X92268372Y-125015247D01*
X92356007Y-125015247D01*
X92357023Y-125040126D01*
X92359556Y-125044200D01*
X92376274Y-125038665D01*
X92412249Y-125024017D01*
X92460331Y-125003190D01*
X92470386Y-124998714D01*
X92531152Y-124967814D01*
X92564632Y-124940657D01*
X92571990Y-124915220D01*
X92554391Y-124889481D01*
X92539856Y-124878109D01*
X92487410Y-124855364D01*
X92438322Y-124859122D01*
X92397227Y-124886884D01*
X92368758Y-124936152D01*
X92359631Y-124975257D01*
X92356007Y-125015247D01*
X92268372Y-125015247D01*
X92269285Y-124971249D01*
X92276196Y-124904384D01*
X92289884Y-124855695D01*
X92312096Y-124819849D01*
X92344574Y-124791513D01*
X92358733Y-124782355D01*
X92423053Y-124758507D01*
X92493473Y-124757006D01*
X92561595Y-124775966D01*
G37*
X92561595Y-124775966D02*
X92619021Y-124813497D01*
X92646719Y-124847096D01*
X92668662Y-124908064D01*
X92670405Y-124956308D01*
X92666457Y-125020816D01*
X92517686Y-125085934D01*
X92445349Y-125119202D01*
X92398084Y-125145964D01*
X92373507Y-125169144D01*
X92369237Y-125191667D01*
X92382889Y-125216455D01*
X92397943Y-125232886D01*
X92441746Y-125259235D01*
X92489389Y-125261081D01*
X92533145Y-125240546D01*
X92565289Y-125199752D01*
X92571038Y-125185347D01*
X92598576Y-125140356D01*
X92630258Y-125121182D01*
X92673714Y-125104779D01*
X92673714Y-125166966D01*
X92669872Y-125209283D01*
X92654823Y-125244969D01*
X92623280Y-125285943D01*
X92618592Y-125291267D01*
X92583506Y-125327720D01*
X92553347Y-125347283D01*
X92515615Y-125356283D01*
X92484335Y-125359230D01*
X92428385Y-125359965D01*
X92388555Y-125350660D01*
X92363708Y-125336846D01*
X92324656Y-125306467D01*
X92297625Y-125273613D01*
X92280517Y-125232294D01*
X92271238Y-125176521D01*
X92267693Y-125100305D01*
X92267410Y-125061622D01*
X92268372Y-125015247D01*
X92356007Y-125015247D01*
X92357023Y-125040126D01*
X92359556Y-125044200D01*
X92376274Y-125038665D01*
X92412249Y-125024017D01*
X92460331Y-125003190D01*
X92470386Y-124998714D01*
X92531152Y-124967814D01*
X92564632Y-124940657D01*
X92571990Y-124915220D01*
X92554391Y-124889481D01*
X92539856Y-124878109D01*
X92487410Y-124855364D01*
X92438322Y-124859122D01*
X92397227Y-124886884D01*
X92368758Y-124936152D01*
X92359631Y-124975257D01*
X92356007Y-125015247D01*
X92268372Y-125015247D01*
X92269285Y-124971249D01*
X92276196Y-124904384D01*
X92289884Y-124855695D01*
X92312096Y-124819849D01*
X92344574Y-124791513D01*
X92358733Y-124782355D01*
X92423053Y-124758507D01*
X92493473Y-124757006D01*
X92561595Y-124775966D01*
G36*
X92060600Y-124767752D02*
G01*
X92077948Y-124775334D01*
X92119356Y-124808128D01*
X92154765Y-124855547D01*
X92176664Y-124906151D01*
X92180229Y-124931098D01*
X92168279Y-124965927D01*
X92142067Y-124984357D01*
X92113964Y-124995516D01*
X92101095Y-124997572D01*
X92094829Y-124982649D01*
X92082456Y-124950175D01*
X92077028Y-124935502D01*
X92046590Y-124884744D01*
X92002520Y-124859427D01*
X91946010Y-124860206D01*
X91941825Y-124861203D01*
X91911655Y-124875507D01*
X91889476Y-124903393D01*
X91874327Y-124948287D01*
X91865250Y-125013615D01*
X91861286Y-125102804D01*
X91860914Y-125150261D01*
X91860730Y-125225071D01*
X91859522Y-125276069D01*
X91856309Y-125308471D01*
X91850109Y-125327495D01*
X91839940Y-125338356D01*
X91824819Y-125346272D01*
X91823946Y-125346670D01*
X91794828Y-125358981D01*
X91780403Y-125363514D01*
X91778186Y-125349809D01*
X91776289Y-125311925D01*
X91774847Y-125254715D01*
X91773998Y-125183027D01*
X91773829Y-125130565D01*
X91774692Y-125029047D01*
X91778070Y-124952032D01*
X91785142Y-124895023D01*
X91797088Y-124853526D01*
X91815090Y-124823043D01*
X91840327Y-124799080D01*
X91865247Y-124782355D01*
X91925171Y-124760097D01*
X91994911Y-124755076D01*
X92060600Y-124767752D01*
G37*
X92060600Y-124767752D02*
X92077948Y-124775334D01*
X92119356Y-124808128D01*
X92154765Y-124855547D01*
X92176664Y-124906151D01*
X92180229Y-124931098D01*
X92168279Y-124965927D01*
X92142067Y-124984357D01*
X92113964Y-124995516D01*
X92101095Y-124997572D01*
X92094829Y-124982649D01*
X92082456Y-124950175D01*
X92077028Y-124935502D01*
X92046590Y-124884744D01*
X92002520Y-124859427D01*
X91946010Y-124860206D01*
X91941825Y-124861203D01*
X91911655Y-124875507D01*
X91889476Y-124903393D01*
X91874327Y-124948287D01*
X91865250Y-125013615D01*
X91861286Y-125102804D01*
X91860914Y-125150261D01*
X91860730Y-125225071D01*
X91859522Y-125276069D01*
X91856309Y-125308471D01*
X91850109Y-125327495D01*
X91839940Y-125338356D01*
X91824819Y-125346272D01*
X91823946Y-125346670D01*
X91794828Y-125358981D01*
X91780403Y-125363514D01*
X91778186Y-125349809D01*
X91776289Y-125311925D01*
X91774847Y-125254715D01*
X91773998Y-125183027D01*
X91773829Y-125130565D01*
X91774692Y-125029047D01*
X91778070Y-124952032D01*
X91785142Y-124895023D01*
X91797088Y-124853526D01*
X91815090Y-124823043D01*
X91840327Y-124799080D01*
X91865247Y-124782355D01*
X91925171Y-124760097D01*
X91994911Y-124755076D01*
X92060600Y-124767752D01*
G36*
X91552876Y-124765335D02*
G01*
X91594667Y-124784344D01*
X91627469Y-124807378D01*
X91651503Y-124833133D01*
X91668097Y-124866358D01*
X91678577Y-124911800D01*
X91684271Y-124974207D01*
X91686507Y-125058327D01*
X91686743Y-125113721D01*
X91686743Y-125329826D01*
X91649774Y-125346670D01*
X91620656Y-125358981D01*
X91606231Y-125363514D01*
X91603472Y-125350025D01*
X91601282Y-125313653D01*
X91599942Y-125260542D01*
X91599657Y-125218372D01*
X91598434Y-125157447D01*
X91595136Y-125109115D01*
X91590321Y-125079518D01*
X91586496Y-125073229D01*
X91560783Y-125079652D01*
X91520418Y-125096125D01*
X91473679Y-125118458D01*
X91428845Y-125142457D01*
X91394193Y-125163930D01*
X91378002Y-125178685D01*
X91377938Y-125178845D01*
X91379330Y-125206152D01*
X91391818Y-125232219D01*
X91413743Y-125253392D01*
X91445743Y-125260474D01*
X91473092Y-125259649D01*
X91511826Y-125259042D01*
X91532158Y-125268116D01*
X91544369Y-125292092D01*
X91545909Y-125296613D01*
X91551203Y-125330806D01*
X91537047Y-125351568D01*
X91500148Y-125361462D01*
X91460289Y-125363292D01*
X91388562Y-125349727D01*
X91351432Y-125330355D01*
X91305576Y-125284845D01*
X91281256Y-125228983D01*
X91279073Y-125169957D01*
X91299629Y-125114953D01*
X91330549Y-125080486D01*
X91361420Y-125061189D01*
X91409942Y-125036759D01*
X91466485Y-125011985D01*
X91475910Y-125008199D01*
X91538019Y-124980791D01*
X91573822Y-124956634D01*
X91585337Y-124932619D01*
X91574580Y-124905635D01*
X91556114Y-124884543D01*
X91512469Y-124858572D01*
X91464446Y-124856624D01*
X91420406Y-124876637D01*
X91388709Y-124916551D01*
X91384549Y-124926848D01*
X91360327Y-124964724D01*
X91324965Y-124992842D01*
X91280343Y-125015917D01*
X91280343Y-124950485D01*
X91282969Y-124910506D01*
X91294230Y-124878997D01*
X91319199Y-124845378D01*
X91343169Y-124819484D01*
X91380441Y-124782817D01*
X91409401Y-124763121D01*
X91440505Y-124755220D01*
X91475713Y-124753914D01*
X91552876Y-124765335D01*
G37*
X91552876Y-124765335D02*
X91594667Y-124784344D01*
X91627469Y-124807378D01*
X91651503Y-124833133D01*
X91668097Y-124866358D01*
X91678577Y-124911800D01*
X91684271Y-124974207D01*
X91686507Y-125058327D01*
X91686743Y-125113721D01*
X91686743Y-125329826D01*
X91649774Y-125346670D01*
X91620656Y-125358981D01*
X91606231Y-125363514D01*
X91603472Y-125350025D01*
X91601282Y-125313653D01*
X91599942Y-125260542D01*
X91599657Y-125218372D01*
X91598434Y-125157447D01*
X91595136Y-125109115D01*
X91590321Y-125079518D01*
X91586496Y-125073229D01*
X91560783Y-125079652D01*
X91520418Y-125096125D01*
X91473679Y-125118458D01*
X91428845Y-125142457D01*
X91394193Y-125163930D01*
X91378002Y-125178685D01*
X91377938Y-125178845D01*
X91379330Y-125206152D01*
X91391818Y-125232219D01*
X91413743Y-125253392D01*
X91445743Y-125260474D01*
X91473092Y-125259649D01*
X91511826Y-125259042D01*
X91532158Y-125268116D01*
X91544369Y-125292092D01*
X91545909Y-125296613D01*
X91551203Y-125330806D01*
X91537047Y-125351568D01*
X91500148Y-125361462D01*
X91460289Y-125363292D01*
X91388562Y-125349727D01*
X91351432Y-125330355D01*
X91305576Y-125284845D01*
X91281256Y-125228983D01*
X91279073Y-125169957D01*
X91299629Y-125114953D01*
X91330549Y-125080486D01*
X91361420Y-125061189D01*
X91409942Y-125036759D01*
X91466485Y-125011985D01*
X91475910Y-125008199D01*
X91538019Y-124980791D01*
X91573822Y-124956634D01*
X91585337Y-124932619D01*
X91574580Y-124905635D01*
X91556114Y-124884543D01*
X91512469Y-124858572D01*
X91464446Y-124856624D01*
X91420406Y-124876637D01*
X91388709Y-124916551D01*
X91384549Y-124926848D01*
X91360327Y-124964724D01*
X91324965Y-124992842D01*
X91280343Y-125015917D01*
X91280343Y-124950485D01*
X91282969Y-124910506D01*
X91294230Y-124878997D01*
X91319199Y-124845378D01*
X91343169Y-124819484D01*
X91380441Y-124782817D01*
X91409401Y-124763121D01*
X91440505Y-124755220D01*
X91475713Y-124753914D01*
X91552876Y-124765335D01*
G36*
X91187833Y-124767663D02*
G01*
X91190048Y-124805850D01*
X91191784Y-124863886D01*
X91192899Y-124937180D01*
X91193257Y-125014055D01*
X91193257Y-125274196D01*
X91147326Y-125320127D01*
X91115675Y-125348429D01*
X91087890Y-125359893D01*
X91049915Y-125359168D01*
X91034840Y-125357321D01*
X90987726Y-125351948D01*
X90948756Y-125348869D01*
X90939257Y-125348585D01*
X90907233Y-125350445D01*
X90861432Y-125355114D01*
X90843674Y-125357321D01*
X90800057Y-125360735D01*
X90770745Y-125353320D01*
X90741680Y-125330427D01*
X90731188Y-125320127D01*
X90685257Y-125274196D01*
X90685257Y-124787602D01*
X90722226Y-124770758D01*
X90754059Y-124758282D01*
X90772683Y-124753914D01*
X90777458Y-124767718D01*
X90781921Y-124806286D01*
X90785775Y-124865356D01*
X90788722Y-124940663D01*
X90790143Y-125004286D01*
X90794114Y-125254657D01*
X90828759Y-125259556D01*
X90860268Y-125256131D01*
X90875708Y-125245041D01*
X90880023Y-125224308D01*
X90883708Y-125180145D01*
X90886469Y-125118146D01*
X90888012Y-125043909D01*
X90888235Y-125005706D01*
X90888457Y-124785783D01*
X90934166Y-124769849D01*
X90966518Y-124759015D01*
X90984115Y-124753962D01*
X90984623Y-124753914D01*
X90986388Y-124767648D01*
X90988329Y-124805730D01*
X90990282Y-124863482D01*
X90992084Y-124936227D01*
X90993343Y-125004286D01*
X90997314Y-125254657D01*
X91084400Y-125254657D01*
X91088396Y-125026240D01*
X91092392Y-124797822D01*
X91134847Y-124775868D01*
X91166192Y-124760793D01*
X91184744Y-124753951D01*
X91185279Y-124753914D01*
X91187833Y-124767663D01*
G37*
X91187833Y-124767663D02*
X91190048Y-124805850D01*
X91191784Y-124863886D01*
X91192899Y-124937180D01*
X91193257Y-125014055D01*
X91193257Y-125274196D01*
X91147326Y-125320127D01*
X91115675Y-125348429D01*
X91087890Y-125359893D01*
X91049915Y-125359168D01*
X91034840Y-125357321D01*
X90987726Y-125351948D01*
X90948756Y-125348869D01*
X90939257Y-125348585D01*
X90907233Y-125350445D01*
X90861432Y-125355114D01*
X90843674Y-125357321D01*
X90800057Y-125360735D01*
X90770745Y-125353320D01*
X90741680Y-125330427D01*
X90731188Y-125320127D01*
X90685257Y-125274196D01*
X90685257Y-124787602D01*
X90722226Y-124770758D01*
X90754059Y-124758282D01*
X90772683Y-124753914D01*
X90777458Y-124767718D01*
X90781921Y-124806286D01*
X90785775Y-124865356D01*
X90788722Y-124940663D01*
X90790143Y-125004286D01*
X90794114Y-125254657D01*
X90828759Y-125259556D01*
X90860268Y-125256131D01*
X90875708Y-125245041D01*
X90880023Y-125224308D01*
X90883708Y-125180145D01*
X90886469Y-125118146D01*
X90888012Y-125043909D01*
X90888235Y-125005706D01*
X90888457Y-124785783D01*
X90934166Y-124769849D01*
X90966518Y-124759015D01*
X90984115Y-124753962D01*
X90984623Y-124753914D01*
X90986388Y-124767648D01*
X90988329Y-124805730D01*
X90990282Y-124863482D01*
X90992084Y-124936227D01*
X90993343Y-125004286D01*
X90997314Y-125254657D01*
X91084400Y-125254657D01*
X91088396Y-125026240D01*
X91092392Y-124797822D01*
X91134847Y-124775868D01*
X91166192Y-124760793D01*
X91184744Y-124753951D01*
X91185279Y-124753914D01*
X91187833Y-124767663D01*
G36*
X90598117Y-124874358D02*
G01*
X90597933Y-124982837D01*
X90597219Y-125066287D01*
X90595675Y-125128704D01*
X90593001Y-125174085D01*
X90588894Y-125206429D01*
X90583055Y-125229733D01*
X90575182Y-125247995D01*
X90569221Y-125258418D01*
X90519855Y-125314945D01*
X90457264Y-125350377D01*
X90388013Y-125363090D01*
X90318668Y-125351463D01*
X90277375Y-125330568D01*
X90234025Y-125294422D01*
X90204481Y-125250276D01*
X90186655Y-125192462D01*
X90178463Y-125115313D01*
X90177302Y-125058714D01*
X90177458Y-125054647D01*
X90278857Y-125054647D01*
X90279476Y-125119550D01*
X90282314Y-125162514D01*
X90288840Y-125190622D01*
X90300523Y-125210953D01*
X90314483Y-125226288D01*
X90361365Y-125255890D01*
X90411701Y-125258419D01*
X90459276Y-125233705D01*
X90462979Y-125230356D01*
X90478783Y-125212935D01*
X90488693Y-125192209D01*
X90494058Y-125161362D01*
X90496228Y-125113577D01*
X90496571Y-125060748D01*
X90495827Y-124994381D01*
X90492748Y-124950106D01*
X90486061Y-124921009D01*
X90474496Y-124900173D01*
X90465013Y-124889107D01*
X90420960Y-124861198D01*
X90370224Y-124857843D01*
X90321796Y-124879159D01*
X90312450Y-124887073D01*
X90296540Y-124904647D01*
X90286610Y-124925587D01*
X90281278Y-124956782D01*
X90279163Y-125005122D01*
X90278857Y-125054647D01*
X90177458Y-125054647D01*
X90180810Y-124967568D01*
X90192726Y-124899086D01*
X90215135Y-124847600D01*
X90250124Y-124807443D01*
X90277375Y-124786861D01*
X90326907Y-124764625D01*
X90384316Y-124754304D01*
X90437682Y-124757067D01*
X90467543Y-124768212D01*
X90479261Y-124771383D01*
X90487037Y-124759557D01*
X90492465Y-124727866D01*
X90496571Y-124679593D01*
X90501067Y-124625829D01*
X90507313Y-124593482D01*
X90518676Y-124574985D01*
X90538528Y-124562770D01*
X90551000Y-124557362D01*
X90598171Y-124537601D01*
X90598117Y-124874358D01*
G37*
X90598117Y-124874358D02*
X90597933Y-124982837D01*
X90597219Y-125066287D01*
X90595675Y-125128704D01*
X90593001Y-125174085D01*
X90588894Y-125206429D01*
X90583055Y-125229733D01*
X90575182Y-125247995D01*
X90569221Y-125258418D01*
X90519855Y-125314945D01*
X90457264Y-125350377D01*
X90388013Y-125363090D01*
X90318668Y-125351463D01*
X90277375Y-125330568D01*
X90234025Y-125294422D01*
X90204481Y-125250276D01*
X90186655Y-125192462D01*
X90178463Y-125115313D01*
X90177302Y-125058714D01*
X90177458Y-125054647D01*
X90278857Y-125054647D01*
X90279476Y-125119550D01*
X90282314Y-125162514D01*
X90288840Y-125190622D01*
X90300523Y-125210953D01*
X90314483Y-125226288D01*
X90361365Y-125255890D01*
X90411701Y-125258419D01*
X90459276Y-125233705D01*
X90462979Y-125230356D01*
X90478783Y-125212935D01*
X90488693Y-125192209D01*
X90494058Y-125161362D01*
X90496228Y-125113577D01*
X90496571Y-125060748D01*
X90495827Y-124994381D01*
X90492748Y-124950106D01*
X90486061Y-124921009D01*
X90474496Y-124900173D01*
X90465013Y-124889107D01*
X90420960Y-124861198D01*
X90370224Y-124857843D01*
X90321796Y-124879159D01*
X90312450Y-124887073D01*
X90296540Y-124904647D01*
X90286610Y-124925587D01*
X90281278Y-124956782D01*
X90279163Y-125005122D01*
X90278857Y-125054647D01*
X90177458Y-125054647D01*
X90180810Y-124967568D01*
X90192726Y-124899086D01*
X90215135Y-124847600D01*
X90250124Y-124807443D01*
X90277375Y-124786861D01*
X90326907Y-124764625D01*
X90384316Y-124754304D01*
X90437682Y-124757067D01*
X90467543Y-124768212D01*
X90479261Y-124771383D01*
X90487037Y-124759557D01*
X90492465Y-124727866D01*
X90496571Y-124679593D01*
X90501067Y-124625829D01*
X90507313Y-124593482D01*
X90518676Y-124574985D01*
X90538528Y-124562770D01*
X90551000Y-124557362D01*
X90598171Y-124537601D01*
X90598117Y-124874358D01*
G36*
X89937926Y-124758755D02*
G01*
X90003858Y-124783084D01*
X90057273Y-124826117D01*
X90078164Y-124856409D01*
X90100939Y-124911994D01*
X90100466Y-124952186D01*
X90076562Y-124979217D01*
X90067717Y-124983813D01*
X90029530Y-124998144D01*
X90010028Y-124994472D01*
X90003422Y-124970407D01*
X90003086Y-124957114D01*
X89990992Y-124908210D01*
X89959471Y-124873999D01*
X89915659Y-124857476D01*
X89866695Y-124861634D01*
X89826894Y-124883227D01*
X89813450Y-124895544D01*
X89803921Y-124910487D01*
X89797485Y-124933075D01*
X89793317Y-124968328D01*
X89790597Y-125021266D01*
X89788502Y-125096907D01*
X89787960Y-125120857D01*
X89785981Y-125202790D01*
X89783731Y-125260455D01*
X89780357Y-125298608D01*
X89775006Y-125322004D01*
X89766824Y-125335398D01*
X89754959Y-125343545D01*
X89747362Y-125347144D01*
X89715102Y-125359452D01*
X89696111Y-125363514D01*
X89689836Y-125349948D01*
X89686006Y-125308934D01*
X89684600Y-125239999D01*
X89685598Y-125142669D01*
X89685908Y-125127657D01*
X89688101Y-125038859D01*
X89690693Y-124974019D01*
X89694382Y-124928067D01*
X89699864Y-124895935D01*
X89707835Y-124872553D01*
X89718993Y-124852852D01*
X89724830Y-124844410D01*
X89758296Y-124807057D01*
X89795727Y-124778003D01*
X89800309Y-124775467D01*
X89867426Y-124755443D01*
X89937926Y-124758755D01*
G37*
X89937926Y-124758755D02*
X90003858Y-124783084D01*
X90057273Y-124826117D01*
X90078164Y-124856409D01*
X90100939Y-124911994D01*
X90100466Y-124952186D01*
X90076562Y-124979217D01*
X90067717Y-124983813D01*
X90029530Y-124998144D01*
X90010028Y-124994472D01*
X90003422Y-124970407D01*
X90003086Y-124957114D01*
X89990992Y-124908210D01*
X89959471Y-124873999D01*
X89915659Y-124857476D01*
X89866695Y-124861634D01*
X89826894Y-124883227D01*
X89813450Y-124895544D01*
X89803921Y-124910487D01*
X89797485Y-124933075D01*
X89793317Y-124968328D01*
X89790597Y-125021266D01*
X89788502Y-125096907D01*
X89787960Y-125120857D01*
X89785981Y-125202790D01*
X89783731Y-125260455D01*
X89780357Y-125298608D01*
X89775006Y-125322004D01*
X89766824Y-125335398D01*
X89754959Y-125343545D01*
X89747362Y-125347144D01*
X89715102Y-125359452D01*
X89696111Y-125363514D01*
X89689836Y-125349948D01*
X89686006Y-125308934D01*
X89684600Y-125239999D01*
X89685598Y-125142669D01*
X89685908Y-125127657D01*
X89688101Y-125038859D01*
X89690693Y-124974019D01*
X89694382Y-124928067D01*
X89699864Y-124895935D01*
X89707835Y-124872553D01*
X89718993Y-124852852D01*
X89724830Y-124844410D01*
X89758296Y-124807057D01*
X89795727Y-124778003D01*
X89800309Y-124775467D01*
X89867426Y-124755443D01*
X89937926Y-124758755D01*
G36*
X89447744Y-124759968D02*
G01*
X89504616Y-124781087D01*
X89505267Y-124781493D01*
X89540440Y-124807380D01*
X89566407Y-124837633D01*
X89584670Y-124877058D01*
X89596732Y-124930462D01*
X89604096Y-125002651D01*
X89608264Y-125098432D01*
X89608629Y-125112078D01*
X89613876Y-125317842D01*
X89569716Y-125340678D01*
X89537763Y-125356110D01*
X89518470Y-125363423D01*
X89517578Y-125363514D01*
X89514239Y-125350022D01*
X89511587Y-125313626D01*
X89509956Y-125260452D01*
X89509600Y-125217393D01*
X89509592Y-125147641D01*
X89506403Y-125103837D01*
X89495288Y-125082944D01*
X89471501Y-125081925D01*
X89430296Y-125097741D01*
X89368086Y-125126815D01*
X89322341Y-125150963D01*
X89298813Y-125171913D01*
X89291896Y-125194747D01*
X89291886Y-125195877D01*
X89303299Y-125235212D01*
X89337092Y-125256462D01*
X89388809Y-125259539D01*
X89426061Y-125259006D01*
X89445703Y-125269735D01*
X89457952Y-125295505D01*
X89465002Y-125328337D01*
X89454842Y-125346966D01*
X89451017Y-125349632D01*
X89415001Y-125360340D01*
X89364566Y-125361856D01*
X89312626Y-125354759D01*
X89275822Y-125341788D01*
X89224938Y-125298585D01*
X89196014Y-125238446D01*
X89190286Y-125191462D01*
X89194657Y-125149082D01*
X89210475Y-125114488D01*
X89241797Y-125083763D01*
X89292678Y-125052990D01*
X89367176Y-125018252D01*
X89371714Y-125016288D01*
X89438821Y-124985287D01*
X89480232Y-124959862D01*
X89497981Y-124937014D01*
X89494107Y-124913745D01*
X89470643Y-124887056D01*
X89463627Y-124880914D01*
X89416630Y-124857100D01*
X89367933Y-124858103D01*
X89325522Y-124881451D01*
X89297384Y-124924675D01*
X89294769Y-124933160D01*
X89269308Y-124974308D01*
X89237001Y-124994128D01*
X89190286Y-125013770D01*
X89190286Y-124962950D01*
X89204496Y-124889082D01*
X89246675Y-124821327D01*
X89268624Y-124798661D01*
X89318517Y-124769569D01*
X89381967Y-124756400D01*
X89447744Y-124759968D01*
G37*
X89447744Y-124759968D02*
X89504616Y-124781087D01*
X89505267Y-124781493D01*
X89540440Y-124807380D01*
X89566407Y-124837633D01*
X89584670Y-124877058D01*
X89596732Y-124930462D01*
X89604096Y-125002651D01*
X89608264Y-125098432D01*
X89608629Y-125112078D01*
X89613876Y-125317842D01*
X89569716Y-125340678D01*
X89537763Y-125356110D01*
X89518470Y-125363423D01*
X89517578Y-125363514D01*
X89514239Y-125350022D01*
X89511587Y-125313626D01*
X89509956Y-125260452D01*
X89509600Y-125217393D01*
X89509592Y-125147641D01*
X89506403Y-125103837D01*
X89495288Y-125082944D01*
X89471501Y-125081925D01*
X89430296Y-125097741D01*
X89368086Y-125126815D01*
X89322341Y-125150963D01*
X89298813Y-125171913D01*
X89291896Y-125194747D01*
X89291886Y-125195877D01*
X89303299Y-125235212D01*
X89337092Y-125256462D01*
X89388809Y-125259539D01*
X89426061Y-125259006D01*
X89445703Y-125269735D01*
X89457952Y-125295505D01*
X89465002Y-125328337D01*
X89454842Y-125346966D01*
X89451017Y-125349632D01*
X89415001Y-125360340D01*
X89364566Y-125361856D01*
X89312626Y-125354759D01*
X89275822Y-125341788D01*
X89224938Y-125298585D01*
X89196014Y-125238446D01*
X89190286Y-125191462D01*
X89194657Y-125149082D01*
X89210475Y-125114488D01*
X89241797Y-125083763D01*
X89292678Y-125052990D01*
X89367176Y-125018252D01*
X89371714Y-125016288D01*
X89438821Y-124985287D01*
X89480232Y-124959862D01*
X89497981Y-124937014D01*
X89494107Y-124913745D01*
X89470643Y-124887056D01*
X89463627Y-124880914D01*
X89416630Y-124857100D01*
X89367933Y-124858103D01*
X89325522Y-124881451D01*
X89297384Y-124924675D01*
X89294769Y-124933160D01*
X89269308Y-124974308D01*
X89237001Y-124994128D01*
X89190286Y-125013770D01*
X89190286Y-124962950D01*
X89204496Y-124889082D01*
X89246675Y-124821327D01*
X89268624Y-124798661D01*
X89318517Y-124769569D01*
X89381967Y-124756400D01*
X89447744Y-124759968D01*
G36*
X88783886Y-124660289D02*
G01*
X88788139Y-124719613D01*
X88793025Y-124754572D01*
X88799795Y-124769820D01*
X88809702Y-124770015D01*
X88812914Y-124768195D01*
X88855644Y-124755015D01*
X88911227Y-124755785D01*
X88967737Y-124769333D01*
X89003082Y-124786861D01*
X89039321Y-124814861D01*
X89065813Y-124846549D01*
X89083999Y-124886813D01*
X89095322Y-124940543D01*
X89101222Y-125012626D01*
X89103143Y-125107951D01*
X89103177Y-125126237D01*
X89103200Y-125331646D01*
X89057491Y-125347580D01*
X89025027Y-125358420D01*
X89007215Y-125363468D01*
X89006691Y-125363514D01*
X89004937Y-125349828D01*
X89003444Y-125312076D01*
X89002326Y-125255224D01*
X89001697Y-125184234D01*
X89001600Y-125141073D01*
X89001398Y-125055973D01*
X89000358Y-124994981D01*
X88997831Y-124953177D01*
X88993164Y-124925642D01*
X88985707Y-124907456D01*
X88974811Y-124893698D01*
X88968007Y-124887073D01*
X88921272Y-124860375D01*
X88870272Y-124858375D01*
X88824001Y-124880955D01*
X88815444Y-124889107D01*
X88802893Y-124904436D01*
X88794188Y-124922618D01*
X88788631Y-124948909D01*
X88785526Y-124988562D01*
X88784176Y-125046832D01*
X88783886Y-125127173D01*
X88783886Y-125331646D01*
X88738177Y-125347580D01*
X88705713Y-125358420D01*
X88687901Y-125363468D01*
X88687377Y-125363514D01*
X88686037Y-125349623D01*
X88684828Y-125310439D01*
X88683801Y-125249700D01*
X88683002Y-125171141D01*
X88682481Y-125078498D01*
X88682286Y-124975509D01*
X88682286Y-124578342D01*
X88729457Y-124558444D01*
X88776629Y-124538547D01*
X88783886Y-124660289D01*
G37*
X88783886Y-124660289D02*
X88788139Y-124719613D01*
X88793025Y-124754572D01*
X88799795Y-124769820D01*
X88809702Y-124770015D01*
X88812914Y-124768195D01*
X88855644Y-124755015D01*
X88911227Y-124755785D01*
X88967737Y-124769333D01*
X89003082Y-124786861D01*
X89039321Y-124814861D01*
X89065813Y-124846549D01*
X89083999Y-124886813D01*
X89095322Y-124940543D01*
X89101222Y-125012626D01*
X89103143Y-125107951D01*
X89103177Y-125126237D01*
X89103200Y-125331646D01*
X89057491Y-125347580D01*
X89025027Y-125358420D01*
X89007215Y-125363468D01*
X89006691Y-125363514D01*
X89004937Y-125349828D01*
X89003444Y-125312076D01*
X89002326Y-125255224D01*
X89001697Y-125184234D01*
X89001600Y-125141073D01*
X89001398Y-125055973D01*
X89000358Y-124994981D01*
X88997831Y-124953177D01*
X88993164Y-124925642D01*
X88985707Y-124907456D01*
X88974811Y-124893698D01*
X88968007Y-124887073D01*
X88921272Y-124860375D01*
X88870272Y-124858375D01*
X88824001Y-124880955D01*
X88815444Y-124889107D01*
X88802893Y-124904436D01*
X88794188Y-124922618D01*
X88788631Y-124948909D01*
X88785526Y-124988562D01*
X88784176Y-125046832D01*
X88783886Y-125127173D01*
X88783886Y-125331646D01*
X88738177Y-125347580D01*
X88705713Y-125358420D01*
X88687901Y-125363468D01*
X88687377Y-125363514D01*
X88686037Y-125349623D01*
X88684828Y-125310439D01*
X88683801Y-125249700D01*
X88683002Y-125171141D01*
X88682481Y-125078498D01*
X88682286Y-124975509D01*
X88682286Y-124578342D01*
X88729457Y-124558444D01*
X88776629Y-124538547D01*
X88783886Y-124660289D01*
G36*
X87576303Y-124740239D02*
G01*
X87633527Y-124778735D01*
X87677749Y-124834335D01*
X87704167Y-124905086D01*
X87709510Y-124957162D01*
X87708903Y-124978893D01*
X87703822Y-124995531D01*
X87689855Y-125010437D01*
X87662589Y-125026973D01*
X87617612Y-125048498D01*
X87550511Y-125078374D01*
X87550171Y-125078524D01*
X87488407Y-125106813D01*
X87437759Y-125131933D01*
X87403404Y-125151179D01*
X87390518Y-125161848D01*
X87390514Y-125161934D01*
X87401872Y-125185166D01*
X87428431Y-125210774D01*
X87458923Y-125229221D01*
X87474370Y-125232886D01*
X87516515Y-125220212D01*
X87552808Y-125188471D01*
X87570517Y-125153572D01*
X87587552Y-125127845D01*
X87620922Y-125098546D01*
X87660149Y-125073235D01*
X87694756Y-125059471D01*
X87701993Y-125058714D01*
X87710139Y-125071160D01*
X87710630Y-125102972D01*
X87704643Y-125145866D01*
X87693357Y-125191558D01*
X87677950Y-125231761D01*
X87677171Y-125233322D01*
X87630804Y-125298062D01*
X87570711Y-125342097D01*
X87502465Y-125363711D01*
X87431638Y-125361185D01*
X87363804Y-125332804D01*
X87360788Y-125330808D01*
X87307427Y-125282448D01*
X87272340Y-125219352D01*
X87252922Y-125136387D01*
X87250316Y-125113078D01*
X87245701Y-125003055D01*
X87251233Y-124951748D01*
X87390514Y-124951748D01*
X87392324Y-124983753D01*
X87402222Y-124993093D01*
X87426898Y-124986105D01*
X87465795Y-124969587D01*
X87509275Y-124948881D01*
X87510356Y-124948333D01*
X87547209Y-124928949D01*
X87562000Y-124916013D01*
X87558353Y-124902451D01*
X87542995Y-124884632D01*
X87503923Y-124858845D01*
X87461846Y-124856950D01*
X87424103Y-124875717D01*
X87398034Y-124911915D01*
X87390514Y-124951748D01*
X87251233Y-124951748D01*
X87255194Y-124915027D01*
X87279550Y-124845212D01*
X87313456Y-124796302D01*
X87374653Y-124746878D01*
X87442063Y-124722359D01*
X87510880Y-124720797D01*
X87576303Y-124740239D01*
G37*
X87576303Y-124740239D02*
X87633527Y-124778735D01*
X87677749Y-124834335D01*
X87704167Y-124905086D01*
X87709510Y-124957162D01*
X87708903Y-124978893D01*
X87703822Y-124995531D01*
X87689855Y-125010437D01*
X87662589Y-125026973D01*
X87617612Y-125048498D01*
X87550511Y-125078374D01*
X87550171Y-125078524D01*
X87488407Y-125106813D01*
X87437759Y-125131933D01*
X87403404Y-125151179D01*
X87390518Y-125161848D01*
X87390514Y-125161934D01*
X87401872Y-125185166D01*
X87428431Y-125210774D01*
X87458923Y-125229221D01*
X87474370Y-125232886D01*
X87516515Y-125220212D01*
X87552808Y-125188471D01*
X87570517Y-125153572D01*
X87587552Y-125127845D01*
X87620922Y-125098546D01*
X87660149Y-125073235D01*
X87694756Y-125059471D01*
X87701993Y-125058714D01*
X87710139Y-125071160D01*
X87710630Y-125102972D01*
X87704643Y-125145866D01*
X87693357Y-125191558D01*
X87677950Y-125231761D01*
X87677171Y-125233322D01*
X87630804Y-125298062D01*
X87570711Y-125342097D01*
X87502465Y-125363711D01*
X87431638Y-125361185D01*
X87363804Y-125332804D01*
X87360788Y-125330808D01*
X87307427Y-125282448D01*
X87272340Y-125219352D01*
X87252922Y-125136387D01*
X87250316Y-125113078D01*
X87245701Y-125003055D01*
X87251233Y-124951748D01*
X87390514Y-124951748D01*
X87392324Y-124983753D01*
X87402222Y-124993093D01*
X87426898Y-124986105D01*
X87465795Y-124969587D01*
X87509275Y-124948881D01*
X87510356Y-124948333D01*
X87547209Y-124928949D01*
X87562000Y-124916013D01*
X87558353Y-124902451D01*
X87542995Y-124884632D01*
X87503923Y-124858845D01*
X87461846Y-124856950D01*
X87424103Y-124875717D01*
X87398034Y-124911915D01*
X87390514Y-124951748D01*
X87251233Y-124951748D01*
X87255194Y-124915027D01*
X87279550Y-124845212D01*
X87313456Y-124796302D01*
X87374653Y-124746878D01*
X87442063Y-124722359D01*
X87510880Y-124720797D01*
X87576303Y-124740239D01*
G36*
X86449115Y-124730962D02*
G01*
X86517145Y-124766733D01*
X86567351Y-124824301D01*
X86585185Y-124861312D01*
X86599063Y-124916882D01*
X86606167Y-124987096D01*
X86606840Y-125063727D01*
X86601427Y-125138552D01*
X86590270Y-125203342D01*
X86573714Y-125249873D01*
X86568626Y-125257887D01*
X86508355Y-125317707D01*
X86436769Y-125353535D01*
X86359092Y-125364020D01*
X86280548Y-125347810D01*
X86258689Y-125338092D01*
X86216122Y-125308143D01*
X86178763Y-125268433D01*
X86175232Y-125263397D01*
X86160881Y-125239124D01*
X86151394Y-125213178D01*
X86145790Y-125179022D01*
X86143086Y-125130119D01*
X86142299Y-125059935D01*
X86142286Y-125044200D01*
X86142322Y-125039192D01*
X86287429Y-125039192D01*
X86288273Y-125105430D01*
X86291596Y-125149386D01*
X86298583Y-125177779D01*
X86310416Y-125197325D01*
X86316457Y-125203857D01*
X86351186Y-125228680D01*
X86384903Y-125227548D01*
X86418995Y-125206016D01*
X86439329Y-125183029D01*
X86451371Y-125149478D01*
X86458134Y-125096569D01*
X86458598Y-125090399D01*
X86459752Y-124994513D01*
X86447688Y-124923299D01*
X86422570Y-124877194D01*
X86384560Y-124856635D01*
X86370992Y-124855514D01*
X86335364Y-124861152D01*
X86310994Y-124880686D01*
X86296093Y-124918042D01*
X86288875Y-124977150D01*
X86287429Y-125039192D01*
X86142322Y-125039192D01*
X86142826Y-124969413D01*
X86145096Y-124917159D01*
X86150068Y-124880949D01*
X86158713Y-124854299D01*
X86172005Y-124830722D01*
X86174943Y-124826338D01*
X86224313Y-124767249D01*
X86278109Y-124732947D01*
X86343602Y-124719331D01*
X86365842Y-124718665D01*
X86449115Y-124730962D01*
G37*
X86449115Y-124730962D02*
X86517145Y-124766733D01*
X86567351Y-124824301D01*
X86585185Y-124861312D01*
X86599063Y-124916882D01*
X86606167Y-124987096D01*
X86606840Y-125063727D01*
X86601427Y-125138552D01*
X86590270Y-125203342D01*
X86573714Y-125249873D01*
X86568626Y-125257887D01*
X86508355Y-125317707D01*
X86436769Y-125353535D01*
X86359092Y-125364020D01*
X86280548Y-125347810D01*
X86258689Y-125338092D01*
X86216122Y-125308143D01*
X86178763Y-125268433D01*
X86175232Y-125263397D01*
X86160881Y-125239124D01*
X86151394Y-125213178D01*
X86145790Y-125179022D01*
X86143086Y-125130119D01*
X86142299Y-125059935D01*
X86142286Y-125044200D01*
X86142322Y-125039192D01*
X86287429Y-125039192D01*
X86288273Y-125105430D01*
X86291596Y-125149386D01*
X86298583Y-125177779D01*
X86310416Y-125197325D01*
X86316457Y-125203857D01*
X86351186Y-125228680D01*
X86384903Y-125227548D01*
X86418995Y-125206016D01*
X86439329Y-125183029D01*
X86451371Y-125149478D01*
X86458134Y-125096569D01*
X86458598Y-125090399D01*
X86459752Y-124994513D01*
X86447688Y-124923299D01*
X86422570Y-124877194D01*
X86384560Y-124856635D01*
X86370992Y-124855514D01*
X86335364Y-124861152D01*
X86310994Y-124880686D01*
X86296093Y-124918042D01*
X86288875Y-124977150D01*
X86287429Y-125039192D01*
X86142322Y-125039192D01*
X86142826Y-124969413D01*
X86145096Y-124917159D01*
X86150068Y-124880949D01*
X86158713Y-124854299D01*
X86172005Y-124830722D01*
X86174943Y-124826338D01*
X86224313Y-124767249D01*
X86278109Y-124732947D01*
X86343602Y-124719331D01*
X86365842Y-124718665D01*
X86449115Y-124730962D01*
G36*
X88124093Y-124736780D02*
G01*
X88170672Y-124763723D01*
X88203057Y-124790466D01*
X88226742Y-124818484D01*
X88243059Y-124852748D01*
X88253339Y-124898227D01*
X88258914Y-124959892D01*
X88261116Y-125042711D01*
X88261371Y-125102246D01*
X88261371Y-125321391D01*
X88199686Y-125349044D01*
X88138000Y-125376697D01*
X88130743Y-125136670D01*
X88127744Y-125047028D01*
X88124598Y-124981962D01*
X88120701Y-124937026D01*
X88115447Y-124907770D01*
X88108231Y-124889748D01*
X88098450Y-124878511D01*
X88095312Y-124876079D01*
X88047761Y-124857083D01*
X87999697Y-124864600D01*
X87971086Y-124884543D01*
X87959447Y-124898675D01*
X87951391Y-124917220D01*
X87946271Y-124945334D01*
X87943441Y-124988173D01*
X87942256Y-125050895D01*
X87942057Y-125116261D01*
X87942018Y-125198268D01*
X87940614Y-125256316D01*
X87935914Y-125295465D01*
X87925987Y-125320780D01*
X87908903Y-125337323D01*
X87882732Y-125350156D01*
X87847775Y-125363491D01*
X87809596Y-125378007D01*
X87814141Y-125120389D01*
X87815971Y-125027519D01*
X87818112Y-124958889D01*
X87821181Y-124909711D01*
X87825794Y-124875198D01*
X87832568Y-124850562D01*
X87842119Y-124831016D01*
X87853634Y-124813770D01*
X87909190Y-124758680D01*
X87976980Y-124726822D01*
X88050713Y-124719191D01*
X88124093Y-124736780D01*
G37*
X88124093Y-124736780D02*
X88170672Y-124763723D01*
X88203057Y-124790466D01*
X88226742Y-124818484D01*
X88243059Y-124852748D01*
X88253339Y-124898227D01*
X88258914Y-124959892D01*
X88261116Y-125042711D01*
X88261371Y-125102246D01*
X88261371Y-125321391D01*
X88199686Y-125349044D01*
X88138000Y-125376697D01*
X88130743Y-125136670D01*
X88127744Y-125047028D01*
X88124598Y-124981962D01*
X88120701Y-124937026D01*
X88115447Y-124907770D01*
X88108231Y-124889748D01*
X88098450Y-124878511D01*
X88095312Y-124876079D01*
X88047761Y-124857083D01*
X87999697Y-124864600D01*
X87971086Y-124884543D01*
X87959447Y-124898675D01*
X87951391Y-124917220D01*
X87946271Y-124945334D01*
X87943441Y-124988173D01*
X87942256Y-125050895D01*
X87942057Y-125116261D01*
X87942018Y-125198268D01*
X87940614Y-125256316D01*
X87935914Y-125295465D01*
X87925987Y-125320780D01*
X87908903Y-125337323D01*
X87882732Y-125350156D01*
X87847775Y-125363491D01*
X87809596Y-125378007D01*
X87814141Y-125120389D01*
X87815971Y-125027519D01*
X87818112Y-124958889D01*
X87821181Y-124909711D01*
X87825794Y-124875198D01*
X87832568Y-124850562D01*
X87842119Y-124831016D01*
X87853634Y-124813770D01*
X87909190Y-124758680D01*
X87976980Y-124726822D01*
X88050713Y-124719191D01*
X88124093Y-124736780D01*
G36*
X87007744Y-124728918D02*
G01*
X87063201Y-124756568D01*
X87112148Y-124807480D01*
X87125629Y-124826338D01*
X87140314Y-124851015D01*
X87149842Y-124877816D01*
X87155293Y-124913587D01*
X87157747Y-124965169D01*
X87158286Y-125033267D01*
X87155852Y-125126588D01*
X87147394Y-125196657D01*
X87131174Y-125248931D01*
X87105454Y-125288869D01*
X87068497Y-125321929D01*
X87065782Y-125323886D01*
X87029360Y-125343908D01*
X86985502Y-125353815D01*
X86929724Y-125356257D01*
X86839048Y-125356257D01*
X86839010Y-125444283D01*
X86838166Y-125493308D01*
X86833024Y-125522065D01*
X86819587Y-125539311D01*
X86793858Y-125553808D01*
X86787679Y-125556769D01*
X86758764Y-125570648D01*
X86736376Y-125579414D01*
X86719729Y-125580171D01*
X86708036Y-125570023D01*
X86700510Y-125546073D01*
X86696366Y-125505426D01*
X86694815Y-125445186D01*
X86695071Y-125362455D01*
X86696349Y-125254339D01*
X86696748Y-125222000D01*
X86698185Y-125110524D01*
X86699472Y-125037603D01*
X86838971Y-125037603D01*
X86839755Y-125099499D01*
X86843240Y-125139997D01*
X86851124Y-125166708D01*
X86865105Y-125187244D01*
X86874597Y-125197260D01*
X86913404Y-125226567D01*
X86947763Y-125228952D01*
X86983216Y-125204750D01*
X86984114Y-125203857D01*
X86998539Y-125185153D01*
X87007313Y-125159732D01*
X87011739Y-125120584D01*
X87013118Y-125060697D01*
X87013143Y-125047430D01*
X87009812Y-124964901D01*
X86998969Y-124907691D01*
X86979340Y-124872766D01*
X86949650Y-124857094D01*
X86932491Y-124855514D01*
X86891766Y-124862926D01*
X86863832Y-124887330D01*
X86847017Y-124931980D01*
X86839650Y-125000130D01*
X86838971Y-125037603D01*
X86699472Y-125037603D01*
X86699708Y-125024245D01*
X86701677Y-124959333D01*
X86704450Y-124911958D01*
X86708388Y-124878290D01*
X86713849Y-124854498D01*
X86721192Y-124836753D01*
X86730777Y-124821224D01*
X86734887Y-124815381D01*
X86789405Y-124760185D01*
X86858336Y-124728890D01*
X86938072Y-124720165D01*
X87007744Y-124728918D01*
G37*
X87007744Y-124728918D02*
X87063201Y-124756568D01*
X87112148Y-124807480D01*
X87125629Y-124826338D01*
X87140314Y-124851015D01*
X87149842Y-124877816D01*
X87155293Y-124913587D01*
X87157747Y-124965169D01*
X87158286Y-125033267D01*
X87155852Y-125126588D01*
X87147394Y-125196657D01*
X87131174Y-125248931D01*
X87105454Y-125288869D01*
X87068497Y-125321929D01*
X87065782Y-125323886D01*
X87029360Y-125343908D01*
X86985502Y-125353815D01*
X86929724Y-125356257D01*
X86839048Y-125356257D01*
X86839010Y-125444283D01*
X86838166Y-125493308D01*
X86833024Y-125522065D01*
X86819587Y-125539311D01*
X86793858Y-125553808D01*
X86787679Y-125556769D01*
X86758764Y-125570648D01*
X86736376Y-125579414D01*
X86719729Y-125580171D01*
X86708036Y-125570023D01*
X86700510Y-125546073D01*
X86696366Y-125505426D01*
X86694815Y-125445186D01*
X86695071Y-125362455D01*
X86696349Y-125254339D01*
X86696748Y-125222000D01*
X86698185Y-125110524D01*
X86699472Y-125037603D01*
X86838971Y-125037603D01*
X86839755Y-125099499D01*
X86843240Y-125139997D01*
X86851124Y-125166708D01*
X86865105Y-125187244D01*
X86874597Y-125197260D01*
X86913404Y-125226567D01*
X86947763Y-125228952D01*
X86983216Y-125204750D01*
X86984114Y-125203857D01*
X86998539Y-125185153D01*
X87007313Y-125159732D01*
X87011739Y-125120584D01*
X87013118Y-125060697D01*
X87013143Y-125047430D01*
X87009812Y-124964901D01*
X86998969Y-124907691D01*
X86979340Y-124872766D01*
X86949650Y-124857094D01*
X86932491Y-124855514D01*
X86891766Y-124862926D01*
X86863832Y-124887330D01*
X86847017Y-124931980D01*
X86839650Y-125000130D01*
X86838971Y-125037603D01*
X86699472Y-125037603D01*
X86699708Y-125024245D01*
X86701677Y-124959333D01*
X86704450Y-124911958D01*
X86708388Y-124878290D01*
X86713849Y-124854498D01*
X86721192Y-124836753D01*
X86730777Y-124821224D01*
X86734887Y-124815381D01*
X86789405Y-124760185D01*
X86858336Y-124728890D01*
X86938072Y-124720165D01*
X87007744Y-124728918D01*
G36*
X77009129Y-119771521D02*
G01*
X77044227Y-119870984D01*
X77071468Y-119952872D01*
X77086922Y-120005136D01*
X77089000Y-120016327D01*
X77065822Y-120028530D01*
X77005131Y-120037192D01*
X76922188Y-120040400D01*
X76833237Y-120039133D01*
X76784971Y-120033154D01*
X76767297Y-120019197D01*
X76770121Y-119993994D01*
X76770917Y-119991435D01*
X76786701Y-119945156D01*
X76814616Y-119866361D01*
X76849274Y-119770218D01*
X76857858Y-119746629D01*
X76929258Y-119550787D01*
X77009129Y-119771521D01*
G37*
X77009129Y-119771521D02*
X77044227Y-119870984D01*
X77071468Y-119952872D01*
X77086922Y-120005136D01*
X77089000Y-120016327D01*
X77065822Y-120028530D01*
X77005131Y-120037192D01*
X76922188Y-120040400D01*
X76833237Y-120039133D01*
X76784971Y-120033154D01*
X76767297Y-120019197D01*
X76770121Y-119993994D01*
X76770917Y-119991435D01*
X76786701Y-119945156D01*
X76814616Y-119866361D01*
X76849274Y-119770218D01*
X76857858Y-119746629D01*
X76929258Y-119550787D01*
X77009129Y-119771521D01*
G36*
X84988400Y-121221739D02*
G01*
X82473490Y-122478887D01*
X82479995Y-124461619D01*
X82486500Y-126444352D01*
X83286600Y-126850844D01*
X83498174Y-126958312D01*
X83717670Y-127069765D01*
X83935342Y-127180255D01*
X84141446Y-127284839D01*
X84326235Y-127378570D01*
X84479966Y-127456503D01*
X84537550Y-127485675D01*
X84988400Y-127714015D01*
X84988400Y-130962400D01*
X71983600Y-130962400D01*
X71983600Y-129336800D01*
X71983793Y-129054590D01*
X71984351Y-128787919D01*
X71985241Y-128541039D01*
X71986429Y-128318200D01*
X71987882Y-128123653D01*
X71989566Y-127961648D01*
X71991449Y-127836436D01*
X71993497Y-127752268D01*
X71995676Y-127713394D01*
X71996339Y-127711200D01*
X72020145Y-127722354D01*
X72086814Y-127754966D01*
X72193781Y-127807757D01*
X72338481Y-127879450D01*
X72518348Y-127968768D01*
X72730817Y-128074432D01*
X72973324Y-128195165D01*
X73243302Y-128329690D01*
X73538186Y-128476728D01*
X73855411Y-128635003D01*
X74192411Y-128803235D01*
X74546622Y-128980149D01*
X74915478Y-129164466D01*
X75234799Y-129324100D01*
X75613976Y-129513648D01*
X75980663Y-129696867D01*
X76332294Y-129872479D01*
X76666305Y-130039205D01*
X76980130Y-130195769D01*
X77271204Y-130340892D01*
X77536962Y-130473298D01*
X77774838Y-130591707D01*
X77982267Y-130694844D01*
X78156683Y-130781429D01*
X78295522Y-130850186D01*
X78396218Y-130899836D01*
X78456206Y-130929103D01*
X78473260Y-130937000D01*
X78475772Y-130912411D01*
X78478095Y-130841894D01*
X78480182Y-130730317D01*
X78481984Y-130582552D01*
X78483453Y-130403468D01*
X78484543Y-130197937D01*
X78485205Y-129970828D01*
X78485392Y-129727011D01*
X78485381Y-129698750D01*
X78484763Y-128460500D01*
X78478117Y-128457154D01*
X78511400Y-128457154D01*
X78511400Y-129698891D01*
X78511512Y-129982755D01*
X78511937Y-130219787D01*
X78512806Y-130413957D01*
X78514252Y-130569232D01*
X78516405Y-130689581D01*
X78519398Y-130778972D01*
X78523363Y-130841373D01*
X78528431Y-130880754D01*
X78534735Y-130901081D01*
X78542405Y-130906325D01*
X78551314Y-130900714D01*
X78596136Y-130867102D01*
X78621164Y-130857792D01*
X78664763Y-130857163D01*
X78670150Y-130857792D01*
X78688935Y-130842146D01*
X78689200Y-130838481D01*
X78710147Y-130815897D01*
X78759602Y-130787798D01*
X78817478Y-130763492D01*
X78863693Y-130752282D01*
X78873350Y-130753160D01*
X78892068Y-130740920D01*
X78892400Y-130736881D01*
X78913347Y-130714297D01*
X78962802Y-130686198D01*
X79020678Y-130661892D01*
X79066893Y-130650682D01*
X79076550Y-130651560D01*
X79095120Y-130639036D01*
X79095600Y-130633911D01*
X79116581Y-130609948D01*
X79163589Y-130586957D01*
X79212715Y-130575254D01*
X79228950Y-130576367D01*
X79247691Y-130563000D01*
X79248000Y-130559081D01*
X79268947Y-130536497D01*
X79318402Y-130508398D01*
X79376278Y-130484092D01*
X79422493Y-130472882D01*
X79432150Y-130473760D01*
X79450868Y-130461520D01*
X79451200Y-130457481D01*
X79472147Y-130434897D01*
X79521602Y-130406798D01*
X79579478Y-130382492D01*
X79625693Y-130371282D01*
X79635350Y-130372160D01*
X79654068Y-130359920D01*
X79654400Y-130355881D01*
X79675347Y-130333297D01*
X79724802Y-130305198D01*
X79782678Y-130280892D01*
X79828893Y-130269682D01*
X79838550Y-130270560D01*
X79857268Y-130258320D01*
X79857600Y-130254281D01*
X79878547Y-130231697D01*
X79928002Y-130203598D01*
X79985878Y-130179292D01*
X80032093Y-130168082D01*
X80041750Y-130168960D01*
X80060320Y-130156436D01*
X80060800Y-130151311D01*
X80081781Y-130127348D01*
X80128789Y-130104357D01*
X80177915Y-130092654D01*
X80194150Y-130093767D01*
X80212360Y-130079559D01*
X80213200Y-130071900D01*
X80228760Y-130056731D01*
X80238600Y-130060700D01*
X80262048Y-130059660D01*
X80264000Y-130051210D01*
X80285006Y-130026241D01*
X80332132Y-130002635D01*
X80381534Y-129990949D01*
X80397350Y-129992167D01*
X80416091Y-129978800D01*
X80416400Y-129974881D01*
X80437347Y-129952297D01*
X80486802Y-129924198D01*
X80544678Y-129899892D01*
X80590893Y-129888682D01*
X80600550Y-129889560D01*
X80619268Y-129877320D01*
X80619600Y-129873281D01*
X80640547Y-129850697D01*
X80690002Y-129822598D01*
X80747878Y-129798292D01*
X80794093Y-129787082D01*
X80803750Y-129787960D01*
X80822320Y-129775436D01*
X80822800Y-129770311D01*
X80843781Y-129746348D01*
X80890789Y-129723357D01*
X80939915Y-129711654D01*
X80956150Y-129712767D01*
X80974360Y-129698559D01*
X80975200Y-129690900D01*
X80990760Y-129675731D01*
X81000600Y-129679700D01*
X81024048Y-129678660D01*
X81026000Y-129670210D01*
X81047006Y-129645241D01*
X81094132Y-129621635D01*
X81143534Y-129609949D01*
X81159350Y-129611167D01*
X81178091Y-129597800D01*
X81178400Y-129593881D01*
X81199347Y-129571297D01*
X81248802Y-129543198D01*
X81306678Y-129518892D01*
X81352893Y-129507682D01*
X81362550Y-129508560D01*
X81381268Y-129496320D01*
X81381600Y-129492281D01*
X81402547Y-129469697D01*
X81452002Y-129441598D01*
X81509878Y-129417292D01*
X81556093Y-129406082D01*
X81565750Y-129406960D01*
X81584468Y-129394720D01*
X81584800Y-129390681D01*
X81605747Y-129368097D01*
X81655202Y-129339998D01*
X81713078Y-129315692D01*
X81759293Y-129304482D01*
X81768950Y-129305360D01*
X81787520Y-129292836D01*
X81788000Y-129287711D01*
X81808981Y-129263748D01*
X81855989Y-129240757D01*
X81905115Y-129229054D01*
X81921350Y-129230167D01*
X81940091Y-129216800D01*
X81940400Y-129212881D01*
X81960514Y-129190936D01*
X82006866Y-129163999D01*
X82058470Y-129142090D01*
X82094338Y-129135232D01*
X82098656Y-129137319D01*
X82120379Y-129128226D01*
X82162686Y-129094071D01*
X82168035Y-129089150D01*
X82247048Y-129036532D01*
X82327623Y-129028972D01*
X82327750Y-129028992D01*
X82346535Y-129013346D01*
X82346800Y-129009681D01*
X82367747Y-128987097D01*
X82417202Y-128958998D01*
X82475078Y-128934692D01*
X82521293Y-128923482D01*
X82530950Y-128924360D01*
X82549520Y-128911836D01*
X82550000Y-128906711D01*
X82570981Y-128882748D01*
X82617989Y-128859757D01*
X82667115Y-128848054D01*
X82683350Y-128849167D01*
X82702091Y-128835800D01*
X82702400Y-128831881D01*
X82723347Y-128809297D01*
X82772802Y-128781198D01*
X82830678Y-128756892D01*
X82876893Y-128745682D01*
X82886550Y-128746560D01*
X82905268Y-128734320D01*
X82905600Y-128730281D01*
X82926296Y-128707925D01*
X82974397Y-128680250D01*
X83028918Y-128657406D01*
X83068875Y-128649538D01*
X83071534Y-128650038D01*
X83098649Y-128636918D01*
X83129773Y-128608218D01*
X83204535Y-128555580D01*
X83280250Y-128541935D01*
X83309826Y-128528603D01*
X83312000Y-128521478D01*
X83332918Y-128500317D01*
X83379618Y-128479084D01*
X83428016Y-128467407D01*
X83445350Y-128468167D01*
X83464091Y-128454800D01*
X83464400Y-128450881D01*
X83485347Y-128428297D01*
X83534802Y-128400198D01*
X83592678Y-128375892D01*
X83638893Y-128364682D01*
X83648550Y-128365560D01*
X83667268Y-128353320D01*
X83667600Y-128349281D01*
X83688547Y-128326697D01*
X83738002Y-128298598D01*
X83795878Y-128274292D01*
X83842093Y-128263082D01*
X83851750Y-128263960D01*
X83870468Y-128251720D01*
X83870800Y-128247681D01*
X83891747Y-128225097D01*
X83941202Y-128196998D01*
X83999078Y-128172692D01*
X84045293Y-128161482D01*
X84054950Y-128162360D01*
X84073520Y-128149836D01*
X84074000Y-128144711D01*
X84094981Y-128120748D01*
X84141989Y-128097757D01*
X84191115Y-128086054D01*
X84207350Y-128087167D01*
X84226091Y-128073800D01*
X84226400Y-128069881D01*
X84247347Y-128047297D01*
X84296802Y-128019198D01*
X84354678Y-127994892D01*
X84400893Y-127983682D01*
X84410550Y-127984560D01*
X84429268Y-127972320D01*
X84429600Y-127968281D01*
X84450547Y-127945697D01*
X84500002Y-127917598D01*
X84557878Y-127893292D01*
X84604093Y-127882082D01*
X84613750Y-127882960D01*
X84632468Y-127870720D01*
X84632800Y-127866681D01*
X84653383Y-127845384D01*
X84701796Y-127816918D01*
X84758033Y-127791215D01*
X84802088Y-127778209D01*
X84810600Y-127778409D01*
X84836284Y-127765219D01*
X84865284Y-127739998D01*
X84871925Y-127729667D01*
X84869745Y-127717014D01*
X84855347Y-127700143D01*
X84825336Y-127677154D01*
X84776313Y-127646150D01*
X84704882Y-127605233D01*
X84607646Y-127552505D01*
X84481207Y-127486068D01*
X84322170Y-127404023D01*
X84127136Y-127304474D01*
X83892708Y-127185521D01*
X83682622Y-127079210D01*
X82457976Y-126459921D01*
X82225141Y-126580881D01*
X82130131Y-126632829D01*
X82056543Y-126678052D01*
X82013200Y-126710810D01*
X82005772Y-126723630D01*
X81999727Y-126735529D01*
X81982935Y-126731487D01*
X81942621Y-126733395D01*
X81889194Y-126754549D01*
X81838829Y-126785441D01*
X81807703Y-126816562D01*
X81807141Y-126834830D01*
X81808288Y-126844285D01*
X81796253Y-126838649D01*
X81755917Y-126834671D01*
X81705624Y-126849976D01*
X81664441Y-126875594D01*
X81651437Y-126902553D01*
X81653020Y-126906038D01*
X81652197Y-126919374D01*
X81639805Y-126913699D01*
X81601423Y-126911085D01*
X81546313Y-126927730D01*
X81491589Y-126955281D01*
X81454364Y-126985383D01*
X81449248Y-127006712D01*
X81449232Y-127021200D01*
X81438068Y-127016203D01*
X81400664Y-127014279D01*
X81345882Y-127031324D01*
X81290898Y-127058936D01*
X81252889Y-127088714D01*
X81246912Y-127109710D01*
X81245731Y-127122753D01*
X81234687Y-127117691D01*
X81200219Y-127118927D01*
X81139220Y-127139014D01*
X81064915Y-127171383D01*
X80990530Y-127209465D01*
X80929290Y-127246690D01*
X80894421Y-127276490D01*
X80891657Y-127288069D01*
X80890020Y-127300482D01*
X80878615Y-127295199D01*
X80850581Y-127302230D01*
X80783439Y-127329744D01*
X80682632Y-127375017D01*
X80553600Y-127435323D01*
X80401786Y-127507939D01*
X80232631Y-127590137D01*
X80051576Y-127679194D01*
X79864063Y-127772383D01*
X79675534Y-127866980D01*
X79491430Y-127960260D01*
X79317192Y-128049497D01*
X79158263Y-128131966D01*
X79020084Y-128204942D01*
X78908097Y-128265700D01*
X78827742Y-128311515D01*
X78784462Y-128339661D01*
X78778550Y-128346929D01*
X78773484Y-128360423D01*
X78755174Y-128356334D01*
X78711392Y-128359185D01*
X78645281Y-128383439D01*
X78614154Y-128399402D01*
X78511400Y-128457154D01*
X78478117Y-128457154D01*
X76491666Y-127457200D01*
X74498570Y-126453900D01*
X74498385Y-124468490D01*
X74498199Y-122483081D01*
X73247249Y-121849317D01*
X71996300Y-121215554D01*
X71990657Y-119809241D01*
X72634223Y-119809241D01*
X72634395Y-119950698D01*
X72648235Y-120085028D01*
X72675712Y-120193556D01*
X72675960Y-120194200D01*
X72756249Y-120334568D01*
X72875865Y-120452995D01*
X73026151Y-120544218D01*
X73198450Y-120602975D01*
X73382886Y-120623997D01*
X73494385Y-120617338D01*
X73625889Y-120599299D01*
X73748958Y-120573785D01*
X73749128Y-120573741D01*
X73842760Y-120548940D01*
X73915392Y-120528094D01*
X73954612Y-120514818D01*
X73957923Y-120512943D01*
X73960307Y-120485343D01*
X73959933Y-120416581D01*
X73957014Y-120316208D01*
X73951765Y-120193776D01*
X73949936Y-120157402D01*
X73932876Y-119828469D01*
X74862070Y-119828469D01*
X74866512Y-120030702D01*
X74912767Y-120208547D01*
X74996552Y-120358964D01*
X75113584Y-120478913D01*
X75259580Y-120565355D01*
X75430258Y-120615251D01*
X75621334Y-120625563D01*
X75828525Y-120593250D01*
X75886696Y-120576262D01*
X76204233Y-120576262D01*
X76223278Y-120587226D01*
X76281368Y-120595337D01*
X76366765Y-120599099D01*
X76384361Y-120599200D01*
X76572956Y-120599200D01*
X76619347Y-120445983D01*
X76665737Y-120292767D01*
X76931462Y-120299933D01*
X77197187Y-120307100D01*
X77239169Y-120446800D01*
X77281150Y-120586500D01*
X77477031Y-120593915D01*
X77672912Y-120601331D01*
X77609068Y-120428815D01*
X77580978Y-120352919D01*
X77538944Y-120239356D01*
X77486658Y-120098103D01*
X77427813Y-119939133D01*
X77366100Y-119772422D01*
X77347768Y-119722900D01*
X77150311Y-119189500D01*
X76935505Y-119182410D01*
X76765516Y-119176800D01*
X77876400Y-119176800D01*
X77876400Y-120599200D01*
X78206600Y-120599200D01*
X78206600Y-120129300D01*
X78207575Y-119981223D01*
X78210289Y-119852440D01*
X78214420Y-119750828D01*
X78219649Y-119684265D01*
X78225650Y-119660628D01*
X78243954Y-119681680D01*
X78284478Y-119739895D01*
X78343116Y-119828989D01*
X78415760Y-119942680D01*
X78498305Y-120074684D01*
X78532759Y-120130528D01*
X78820818Y-120599200D01*
X79171800Y-120599200D01*
X79171800Y-119826516D01*
X80117271Y-119826516D01*
X80120146Y-120024786D01*
X80158689Y-120191741D01*
X80235217Y-120334381D01*
X80315812Y-120426612D01*
X80431086Y-120521049D01*
X80551994Y-120581091D01*
X80691541Y-120611010D01*
X80862733Y-120615078D01*
X80886300Y-120614017D01*
X81002724Y-120602861D01*
X81024128Y-120599200D01*
X81610200Y-120599200D01*
X81939303Y-120599200D01*
X81946201Y-120112167D01*
X81953100Y-119625134D01*
X82554654Y-120599200D01*
X82905600Y-120599200D01*
X82905600Y-119811322D01*
X83197079Y-119811322D01*
X83197496Y-119980663D01*
X83227825Y-120145559D01*
X83287905Y-120297127D01*
X83377575Y-120426486D01*
X83496674Y-120524753D01*
X83520724Y-120538193D01*
X83661380Y-120588717D01*
X83829464Y-120613098D01*
X84008610Y-120610937D01*
X84182455Y-120581839D01*
X84264500Y-120556238D01*
X84391500Y-120508897D01*
X84406670Y-120160847D01*
X84322885Y-120216603D01*
X84196238Y-120290844D01*
X84085025Y-120330814D01*
X83972645Y-120341668D01*
X83927646Y-120339353D01*
X83786952Y-120307959D01*
X83680969Y-120239788D01*
X83609438Y-120134515D01*
X83572099Y-119991817D01*
X83566000Y-119888000D01*
X83582872Y-119722749D01*
X83633711Y-119595156D01*
X83718849Y-119504806D01*
X83838618Y-119451286D01*
X83928638Y-119436563D01*
X84026607Y-119435002D01*
X84109843Y-119453371D01*
X84194594Y-119491053D01*
X84268316Y-119531334D01*
X84322250Y-119566204D01*
X84340401Y-119582717D01*
X84368920Y-119609876D01*
X84389602Y-119588691D01*
X84401536Y-119521140D01*
X84404200Y-119444152D01*
X84402607Y-119354181D01*
X84394406Y-119300626D01*
X84374462Y-119269124D01*
X84337640Y-119245310D01*
X84332069Y-119242404D01*
X84180859Y-119188438D01*
X84005409Y-119164394D01*
X83822169Y-119169785D01*
X83647592Y-119204122D01*
X83498128Y-119266919D01*
X83497737Y-119267148D01*
X83376902Y-119365448D01*
X83286621Y-119494832D01*
X83226734Y-119646418D01*
X83197079Y-119811322D01*
X82905600Y-119811322D01*
X82905600Y-119176800D01*
X82576658Y-119176800D01*
X82562700Y-119988728D01*
X82052710Y-119189500D01*
X81610200Y-119174822D01*
X81610200Y-120599200D01*
X81024128Y-120599200D01*
X81117199Y-120583281D01*
X81206031Y-120559385D01*
X81210150Y-120557857D01*
X81330800Y-120512042D01*
X81330800Y-120339721D01*
X81327237Y-120237642D01*
X81315337Y-120182568D01*
X81293279Y-120171124D01*
X81259243Y-120199937D01*
X81256910Y-120202716D01*
X81218081Y-120232084D01*
X81149673Y-120269755D01*
X81096238Y-120294542D01*
X80953774Y-120334132D01*
X80812932Y-120333990D01*
X80687235Y-120294843D01*
X80646991Y-120270417D01*
X80570676Y-120187177D01*
X80519404Y-120071702D01*
X80495239Y-119937066D01*
X80500251Y-119796344D01*
X80536504Y-119662607D01*
X80547163Y-119638926D01*
X80623546Y-119533553D01*
X80727858Y-119465937D01*
X80852669Y-119437362D01*
X80990549Y-119449110D01*
X81134070Y-119502465D01*
X81181417Y-119529429D01*
X81251204Y-119571744D01*
X81301865Y-119600471D01*
X81319787Y-119608600D01*
X81325406Y-119585429D01*
X81329374Y-119524827D01*
X81330800Y-119444152D01*
X81329207Y-119354181D01*
X81321006Y-119300626D01*
X81301062Y-119269124D01*
X81264240Y-119245310D01*
X81258669Y-119242404D01*
X81165743Y-119208176D01*
X81041942Y-119180757D01*
X80907038Y-119163055D01*
X80780807Y-119157979D01*
X80715348Y-119162478D01*
X80529593Y-119209501D01*
X80375218Y-119295620D01*
X80254532Y-119418271D01*
X80169845Y-119574889D01*
X80123466Y-119762911D01*
X80117271Y-119826516D01*
X79171800Y-119826516D01*
X79171800Y-119176800D01*
X78841600Y-119176800D01*
X78841600Y-119571999D01*
X78840372Y-119705987D01*
X78836983Y-119818902D01*
X78831872Y-119902485D01*
X78825480Y-119948479D01*
X78821216Y-119954600D01*
X78801718Y-119929942D01*
X78760175Y-119869280D01*
X78701313Y-119779783D01*
X78629856Y-119668623D01*
X78560866Y-119559469D01*
X78320900Y-119176935D01*
X78098650Y-119176867D01*
X77876400Y-119176800D01*
X76765516Y-119176800D01*
X76720700Y-119175321D01*
X76466700Y-119864323D01*
X76401418Y-120041404D01*
X76341767Y-120203213D01*
X76290031Y-120343548D01*
X76248496Y-120456210D01*
X76219448Y-120534998D01*
X76205173Y-120573713D01*
X76204233Y-120576262D01*
X75886696Y-120576262D01*
X75907366Y-120570226D01*
X76073000Y-120515852D01*
X76073000Y-120341626D01*
X76071531Y-120254969D01*
X76067672Y-120192582D01*
X76062244Y-120167447D01*
X76061987Y-120167400D01*
X76036250Y-120179740D01*
X75980792Y-120211731D01*
X75923617Y-120246570D01*
X75774123Y-120316304D01*
X75631646Y-120339862D01*
X75502198Y-120320373D01*
X75391791Y-120260966D01*
X75306436Y-120164771D01*
X75252144Y-120034916D01*
X75234800Y-119888000D01*
X75253245Y-119743790D01*
X75304431Y-119614519D01*
X75382135Y-119514440D01*
X75406619Y-119494445D01*
X75471933Y-119461332D01*
X75560321Y-119445936D01*
X75630742Y-119443645D01*
X75732098Y-119448605D01*
X75811410Y-119468950D01*
X75896066Y-119512531D01*
X75918180Y-119526050D01*
X75989507Y-119569364D01*
X76041883Y-119599256D01*
X76061987Y-119608600D01*
X76067425Y-119585348D01*
X76071360Y-119524178D01*
X76072992Y-119437967D01*
X76073000Y-119431509D01*
X76073000Y-119254419D01*
X75926950Y-119210470D01*
X75794572Y-119182360D01*
X75644787Y-119169001D01*
X75494739Y-119170360D01*
X75361577Y-119186406D01*
X75274267Y-119211658D01*
X75115639Y-119303290D01*
X74995698Y-119426490D01*
X74913468Y-119582720D01*
X74867970Y-119773446D01*
X74862070Y-119828469D01*
X73932876Y-119828469D01*
X73932011Y-119811800D01*
X73304400Y-119811800D01*
X73304400Y-120091200D01*
X73583800Y-120091200D01*
X73583800Y-120376517D01*
X73418973Y-120366022D01*
X73286101Y-120346807D01*
X73185110Y-120303180D01*
X73099657Y-120226699D01*
X73064669Y-120183017D01*
X73037464Y-120137214D01*
X73021407Y-120080594D01*
X73013900Y-119999149D01*
X73012300Y-119900700D01*
X73014611Y-119787383D01*
X73023278Y-119710720D01*
X73040899Y-119656703D01*
X73064669Y-119618382D01*
X73146382Y-119527139D01*
X73235561Y-119471289D01*
X73348391Y-119442641D01*
X73425861Y-119435540D01*
X73518912Y-119432773D01*
X73589456Y-119440162D01*
X73658020Y-119462622D01*
X73745133Y-119505068D01*
X73769120Y-119517733D01*
X73941740Y-119609454D01*
X73926700Y-119268864D01*
X73787000Y-119219259D01*
X73642142Y-119183316D01*
X73475850Y-119166505D01*
X73305638Y-119168676D01*
X73149020Y-119189680D01*
X73031562Y-119225699D01*
X72895533Y-119308404D01*
X72775108Y-119423609D01*
X72686400Y-119555320D01*
X72674997Y-119579655D01*
X72647747Y-119679335D01*
X72634223Y-119809241D01*
X71990657Y-119809241D01*
X71989763Y-119586577D01*
X71983227Y-117957600D01*
X84988400Y-117957600D01*
X84988400Y-121221739D01*
G37*
X84988400Y-121221739D02*
X82473490Y-122478887D01*
X82479995Y-124461619D01*
X82486500Y-126444352D01*
X83286600Y-126850844D01*
X83498174Y-126958312D01*
X83717670Y-127069765D01*
X83935342Y-127180255D01*
X84141446Y-127284839D01*
X84326235Y-127378570D01*
X84479966Y-127456503D01*
X84537550Y-127485675D01*
X84988400Y-127714015D01*
X84988400Y-130962400D01*
X71983600Y-130962400D01*
X71983600Y-129336800D01*
X71983793Y-129054590D01*
X71984351Y-128787919D01*
X71985241Y-128541039D01*
X71986429Y-128318200D01*
X71987882Y-128123653D01*
X71989566Y-127961648D01*
X71991449Y-127836436D01*
X71993497Y-127752268D01*
X71995676Y-127713394D01*
X71996339Y-127711200D01*
X72020145Y-127722354D01*
X72086814Y-127754966D01*
X72193781Y-127807757D01*
X72338481Y-127879450D01*
X72518348Y-127968768D01*
X72730817Y-128074432D01*
X72973324Y-128195165D01*
X73243302Y-128329690D01*
X73538186Y-128476728D01*
X73855411Y-128635003D01*
X74192411Y-128803235D01*
X74546622Y-128980149D01*
X74915478Y-129164466D01*
X75234799Y-129324100D01*
X75613976Y-129513648D01*
X75980663Y-129696867D01*
X76332294Y-129872479D01*
X76666305Y-130039205D01*
X76980130Y-130195769D01*
X77271204Y-130340892D01*
X77536962Y-130473298D01*
X77774838Y-130591707D01*
X77982267Y-130694844D01*
X78156683Y-130781429D01*
X78295522Y-130850186D01*
X78396218Y-130899836D01*
X78456206Y-130929103D01*
X78473260Y-130937000D01*
X78475772Y-130912411D01*
X78478095Y-130841894D01*
X78480182Y-130730317D01*
X78481984Y-130582552D01*
X78483453Y-130403468D01*
X78484543Y-130197937D01*
X78485205Y-129970828D01*
X78485392Y-129727011D01*
X78485381Y-129698750D01*
X78484763Y-128460500D01*
X78478117Y-128457154D01*
X78511400Y-128457154D01*
X78511400Y-129698891D01*
X78511512Y-129982755D01*
X78511937Y-130219787D01*
X78512806Y-130413957D01*
X78514252Y-130569232D01*
X78516405Y-130689581D01*
X78519398Y-130778972D01*
X78523363Y-130841373D01*
X78528431Y-130880754D01*
X78534735Y-130901081D01*
X78542405Y-130906325D01*
X78551314Y-130900714D01*
X78596136Y-130867102D01*
X78621164Y-130857792D01*
X78664763Y-130857163D01*
X78670150Y-130857792D01*
X78688935Y-130842146D01*
X78689200Y-130838481D01*
X78710147Y-130815897D01*
X78759602Y-130787798D01*
X78817478Y-130763492D01*
X78863693Y-130752282D01*
X78873350Y-130753160D01*
X78892068Y-130740920D01*
X78892400Y-130736881D01*
X78913347Y-130714297D01*
X78962802Y-130686198D01*
X79020678Y-130661892D01*
X79066893Y-130650682D01*
X79076550Y-130651560D01*
X79095120Y-130639036D01*
X79095600Y-130633911D01*
X79116581Y-130609948D01*
X79163589Y-130586957D01*
X79212715Y-130575254D01*
X79228950Y-130576367D01*
X79247691Y-130563000D01*
X79248000Y-130559081D01*
X79268947Y-130536497D01*
X79318402Y-130508398D01*
X79376278Y-130484092D01*
X79422493Y-130472882D01*
X79432150Y-130473760D01*
X79450868Y-130461520D01*
X79451200Y-130457481D01*
X79472147Y-130434897D01*
X79521602Y-130406798D01*
X79579478Y-130382492D01*
X79625693Y-130371282D01*
X79635350Y-130372160D01*
X79654068Y-130359920D01*
X79654400Y-130355881D01*
X79675347Y-130333297D01*
X79724802Y-130305198D01*
X79782678Y-130280892D01*
X79828893Y-130269682D01*
X79838550Y-130270560D01*
X79857268Y-130258320D01*
X79857600Y-130254281D01*
X79878547Y-130231697D01*
X79928002Y-130203598D01*
X79985878Y-130179292D01*
X80032093Y-130168082D01*
X80041750Y-130168960D01*
X80060320Y-130156436D01*
X80060800Y-130151311D01*
X80081781Y-130127348D01*
X80128789Y-130104357D01*
X80177915Y-130092654D01*
X80194150Y-130093767D01*
X80212360Y-130079559D01*
X80213200Y-130071900D01*
X80228760Y-130056731D01*
X80238600Y-130060700D01*
X80262048Y-130059660D01*
X80264000Y-130051210D01*
X80285006Y-130026241D01*
X80332132Y-130002635D01*
X80381534Y-129990949D01*
X80397350Y-129992167D01*
X80416091Y-129978800D01*
X80416400Y-129974881D01*
X80437347Y-129952297D01*
X80486802Y-129924198D01*
X80544678Y-129899892D01*
X80590893Y-129888682D01*
X80600550Y-129889560D01*
X80619268Y-129877320D01*
X80619600Y-129873281D01*
X80640547Y-129850697D01*
X80690002Y-129822598D01*
X80747878Y-129798292D01*
X80794093Y-129787082D01*
X80803750Y-129787960D01*
X80822320Y-129775436D01*
X80822800Y-129770311D01*
X80843781Y-129746348D01*
X80890789Y-129723357D01*
X80939915Y-129711654D01*
X80956150Y-129712767D01*
X80974360Y-129698559D01*
X80975200Y-129690900D01*
X80990760Y-129675731D01*
X81000600Y-129679700D01*
X81024048Y-129678660D01*
X81026000Y-129670210D01*
X81047006Y-129645241D01*
X81094132Y-129621635D01*
X81143534Y-129609949D01*
X81159350Y-129611167D01*
X81178091Y-129597800D01*
X81178400Y-129593881D01*
X81199347Y-129571297D01*
X81248802Y-129543198D01*
X81306678Y-129518892D01*
X81352893Y-129507682D01*
X81362550Y-129508560D01*
X81381268Y-129496320D01*
X81381600Y-129492281D01*
X81402547Y-129469697D01*
X81452002Y-129441598D01*
X81509878Y-129417292D01*
X81556093Y-129406082D01*
X81565750Y-129406960D01*
X81584468Y-129394720D01*
X81584800Y-129390681D01*
X81605747Y-129368097D01*
X81655202Y-129339998D01*
X81713078Y-129315692D01*
X81759293Y-129304482D01*
X81768950Y-129305360D01*
X81787520Y-129292836D01*
X81788000Y-129287711D01*
X81808981Y-129263748D01*
X81855989Y-129240757D01*
X81905115Y-129229054D01*
X81921350Y-129230167D01*
X81940091Y-129216800D01*
X81940400Y-129212881D01*
X81960514Y-129190936D01*
X82006866Y-129163999D01*
X82058470Y-129142090D01*
X82094338Y-129135232D01*
X82098656Y-129137319D01*
X82120379Y-129128226D01*
X82162686Y-129094071D01*
X82168035Y-129089150D01*
X82247048Y-129036532D01*
X82327623Y-129028972D01*
X82327750Y-129028992D01*
X82346535Y-129013346D01*
X82346800Y-129009681D01*
X82367747Y-128987097D01*
X82417202Y-128958998D01*
X82475078Y-128934692D01*
X82521293Y-128923482D01*
X82530950Y-128924360D01*
X82549520Y-128911836D01*
X82550000Y-128906711D01*
X82570981Y-128882748D01*
X82617989Y-128859757D01*
X82667115Y-128848054D01*
X82683350Y-128849167D01*
X82702091Y-128835800D01*
X82702400Y-128831881D01*
X82723347Y-128809297D01*
X82772802Y-128781198D01*
X82830678Y-128756892D01*
X82876893Y-128745682D01*
X82886550Y-128746560D01*
X82905268Y-128734320D01*
X82905600Y-128730281D01*
X82926296Y-128707925D01*
X82974397Y-128680250D01*
X83028918Y-128657406D01*
X83068875Y-128649538D01*
X83071534Y-128650038D01*
X83098649Y-128636918D01*
X83129773Y-128608218D01*
X83204535Y-128555580D01*
X83280250Y-128541935D01*
X83309826Y-128528603D01*
X83312000Y-128521478D01*
X83332918Y-128500317D01*
X83379618Y-128479084D01*
X83428016Y-128467407D01*
X83445350Y-128468167D01*
X83464091Y-128454800D01*
X83464400Y-128450881D01*
X83485347Y-128428297D01*
X83534802Y-128400198D01*
X83592678Y-128375892D01*
X83638893Y-128364682D01*
X83648550Y-128365560D01*
X83667268Y-128353320D01*
X83667600Y-128349281D01*
X83688547Y-128326697D01*
X83738002Y-128298598D01*
X83795878Y-128274292D01*
X83842093Y-128263082D01*
X83851750Y-128263960D01*
X83870468Y-128251720D01*
X83870800Y-128247681D01*
X83891747Y-128225097D01*
X83941202Y-128196998D01*
X83999078Y-128172692D01*
X84045293Y-128161482D01*
X84054950Y-128162360D01*
X84073520Y-128149836D01*
X84074000Y-128144711D01*
X84094981Y-128120748D01*
X84141989Y-128097757D01*
X84191115Y-128086054D01*
X84207350Y-128087167D01*
X84226091Y-128073800D01*
X84226400Y-128069881D01*
X84247347Y-128047297D01*
X84296802Y-128019198D01*
X84354678Y-127994892D01*
X84400893Y-127983682D01*
X84410550Y-127984560D01*
X84429268Y-127972320D01*
X84429600Y-127968281D01*
X84450547Y-127945697D01*
X84500002Y-127917598D01*
X84557878Y-127893292D01*
X84604093Y-127882082D01*
X84613750Y-127882960D01*
X84632468Y-127870720D01*
X84632800Y-127866681D01*
X84653383Y-127845384D01*
X84701796Y-127816918D01*
X84758033Y-127791215D01*
X84802088Y-127778209D01*
X84810600Y-127778409D01*
X84836284Y-127765219D01*
X84865284Y-127739998D01*
X84871925Y-127729667D01*
X84869745Y-127717014D01*
X84855347Y-127700143D01*
X84825336Y-127677154D01*
X84776313Y-127646150D01*
X84704882Y-127605233D01*
X84607646Y-127552505D01*
X84481207Y-127486068D01*
X84322170Y-127404023D01*
X84127136Y-127304474D01*
X83892708Y-127185521D01*
X83682622Y-127079210D01*
X82457976Y-126459921D01*
X82225141Y-126580881D01*
X82130131Y-126632829D01*
X82056543Y-126678052D01*
X82013200Y-126710810D01*
X82005772Y-126723630D01*
X81999727Y-126735529D01*
X81982935Y-126731487D01*
X81942621Y-126733395D01*
X81889194Y-126754549D01*
X81838829Y-126785441D01*
X81807703Y-126816562D01*
X81807141Y-126834830D01*
X81808288Y-126844285D01*
X81796253Y-126838649D01*
X81755917Y-126834671D01*
X81705624Y-126849976D01*
X81664441Y-126875594D01*
X81651437Y-126902553D01*
X81653020Y-126906038D01*
X81652197Y-126919374D01*
X81639805Y-126913699D01*
X81601423Y-126911085D01*
X81546313Y-126927730D01*
X81491589Y-126955281D01*
X81454364Y-126985383D01*
X81449248Y-127006712D01*
X81449232Y-127021200D01*
X81438068Y-127016203D01*
X81400664Y-127014279D01*
X81345882Y-127031324D01*
X81290898Y-127058936D01*
X81252889Y-127088714D01*
X81246912Y-127109710D01*
X81245731Y-127122753D01*
X81234687Y-127117691D01*
X81200219Y-127118927D01*
X81139220Y-127139014D01*
X81064915Y-127171383D01*
X80990530Y-127209465D01*
X80929290Y-127246690D01*
X80894421Y-127276490D01*
X80891657Y-127288069D01*
X80890020Y-127300482D01*
X80878615Y-127295199D01*
X80850581Y-127302230D01*
X80783439Y-127329744D01*
X80682632Y-127375017D01*
X80553600Y-127435323D01*
X80401786Y-127507939D01*
X80232631Y-127590137D01*
X80051576Y-127679194D01*
X79864063Y-127772383D01*
X79675534Y-127866980D01*
X79491430Y-127960260D01*
X79317192Y-128049497D01*
X79158263Y-128131966D01*
X79020084Y-128204942D01*
X78908097Y-128265700D01*
X78827742Y-128311515D01*
X78784462Y-128339661D01*
X78778550Y-128346929D01*
X78773484Y-128360423D01*
X78755174Y-128356334D01*
X78711392Y-128359185D01*
X78645281Y-128383439D01*
X78614154Y-128399402D01*
X78511400Y-128457154D01*
X78478117Y-128457154D01*
X76491666Y-127457200D01*
X74498570Y-126453900D01*
X74498385Y-124468490D01*
X74498199Y-122483081D01*
X73247249Y-121849317D01*
X71996300Y-121215554D01*
X71990657Y-119809241D01*
X72634223Y-119809241D01*
X72634395Y-119950698D01*
X72648235Y-120085028D01*
X72675712Y-120193556D01*
X72675960Y-120194200D01*
X72756249Y-120334568D01*
X72875865Y-120452995D01*
X73026151Y-120544218D01*
X73198450Y-120602975D01*
X73382886Y-120623997D01*
X73494385Y-120617338D01*
X73625889Y-120599299D01*
X73748958Y-120573785D01*
X73749128Y-120573741D01*
X73842760Y-120548940D01*
X73915392Y-120528094D01*
X73954612Y-120514818D01*
X73957923Y-120512943D01*
X73960307Y-120485343D01*
X73959933Y-120416581D01*
X73957014Y-120316208D01*
X73951765Y-120193776D01*
X73949936Y-120157402D01*
X73932876Y-119828469D01*
X74862070Y-119828469D01*
X74866512Y-120030702D01*
X74912767Y-120208547D01*
X74996552Y-120358964D01*
X75113584Y-120478913D01*
X75259580Y-120565355D01*
X75430258Y-120615251D01*
X75621334Y-120625563D01*
X75828525Y-120593250D01*
X75886696Y-120576262D01*
X76204233Y-120576262D01*
X76223278Y-120587226D01*
X76281368Y-120595337D01*
X76366765Y-120599099D01*
X76384361Y-120599200D01*
X76572956Y-120599200D01*
X76619347Y-120445983D01*
X76665737Y-120292767D01*
X76931462Y-120299933D01*
X77197187Y-120307100D01*
X77239169Y-120446800D01*
X77281150Y-120586500D01*
X77477031Y-120593915D01*
X77672912Y-120601331D01*
X77609068Y-120428815D01*
X77580978Y-120352919D01*
X77538944Y-120239356D01*
X77486658Y-120098103D01*
X77427813Y-119939133D01*
X77366100Y-119772422D01*
X77347768Y-119722900D01*
X77150311Y-119189500D01*
X76935505Y-119182410D01*
X76765516Y-119176800D01*
X77876400Y-119176800D01*
X77876400Y-120599200D01*
X78206600Y-120599200D01*
X78206600Y-120129300D01*
X78207575Y-119981223D01*
X78210289Y-119852440D01*
X78214420Y-119750828D01*
X78219649Y-119684265D01*
X78225650Y-119660628D01*
X78243954Y-119681680D01*
X78284478Y-119739895D01*
X78343116Y-119828989D01*
X78415760Y-119942680D01*
X78498305Y-120074684D01*
X78532759Y-120130528D01*
X78820818Y-120599200D01*
X79171800Y-120599200D01*
X79171800Y-119826516D01*
X80117271Y-119826516D01*
X80120146Y-120024786D01*
X80158689Y-120191741D01*
X80235217Y-120334381D01*
X80315812Y-120426612D01*
X80431086Y-120521049D01*
X80551994Y-120581091D01*
X80691541Y-120611010D01*
X80862733Y-120615078D01*
X80886300Y-120614017D01*
X81002724Y-120602861D01*
X81024128Y-120599200D01*
X81610200Y-120599200D01*
X81939303Y-120599200D01*
X81946201Y-120112167D01*
X81953100Y-119625134D01*
X82554654Y-120599200D01*
X82905600Y-120599200D01*
X82905600Y-119811322D01*
X83197079Y-119811322D01*
X83197496Y-119980663D01*
X83227825Y-120145559D01*
X83287905Y-120297127D01*
X83377575Y-120426486D01*
X83496674Y-120524753D01*
X83520724Y-120538193D01*
X83661380Y-120588717D01*
X83829464Y-120613098D01*
X84008610Y-120610937D01*
X84182455Y-120581839D01*
X84264500Y-120556238D01*
X84391500Y-120508897D01*
X84406670Y-120160847D01*
X84322885Y-120216603D01*
X84196238Y-120290844D01*
X84085025Y-120330814D01*
X83972645Y-120341668D01*
X83927646Y-120339353D01*
X83786952Y-120307959D01*
X83680969Y-120239788D01*
X83609438Y-120134515D01*
X83572099Y-119991817D01*
X83566000Y-119888000D01*
X83582872Y-119722749D01*
X83633711Y-119595156D01*
X83718849Y-119504806D01*
X83838618Y-119451286D01*
X83928638Y-119436563D01*
X84026607Y-119435002D01*
X84109843Y-119453371D01*
X84194594Y-119491053D01*
X84268316Y-119531334D01*
X84322250Y-119566204D01*
X84340401Y-119582717D01*
X84368920Y-119609876D01*
X84389602Y-119588691D01*
X84401536Y-119521140D01*
X84404200Y-119444152D01*
X84402607Y-119354181D01*
X84394406Y-119300626D01*
X84374462Y-119269124D01*
X84337640Y-119245310D01*
X84332069Y-119242404D01*
X84180859Y-119188438D01*
X84005409Y-119164394D01*
X83822169Y-119169785D01*
X83647592Y-119204122D01*
X83498128Y-119266919D01*
X83497737Y-119267148D01*
X83376902Y-119365448D01*
X83286621Y-119494832D01*
X83226734Y-119646418D01*
X83197079Y-119811322D01*
X82905600Y-119811322D01*
X82905600Y-119176800D01*
X82576658Y-119176800D01*
X82562700Y-119988728D01*
X82052710Y-119189500D01*
X81610200Y-119174822D01*
X81610200Y-120599200D01*
X81024128Y-120599200D01*
X81117199Y-120583281D01*
X81206031Y-120559385D01*
X81210150Y-120557857D01*
X81330800Y-120512042D01*
X81330800Y-120339721D01*
X81327237Y-120237642D01*
X81315337Y-120182568D01*
X81293279Y-120171124D01*
X81259243Y-120199937D01*
X81256910Y-120202716D01*
X81218081Y-120232084D01*
X81149673Y-120269755D01*
X81096238Y-120294542D01*
X80953774Y-120334132D01*
X80812932Y-120333990D01*
X80687235Y-120294843D01*
X80646991Y-120270417D01*
X80570676Y-120187177D01*
X80519404Y-120071702D01*
X80495239Y-119937066D01*
X80500251Y-119796344D01*
X80536504Y-119662607D01*
X80547163Y-119638926D01*
X80623546Y-119533553D01*
X80727858Y-119465937D01*
X80852669Y-119437362D01*
X80990549Y-119449110D01*
X81134070Y-119502465D01*
X81181417Y-119529429D01*
X81251204Y-119571744D01*
X81301865Y-119600471D01*
X81319787Y-119608600D01*
X81325406Y-119585429D01*
X81329374Y-119524827D01*
X81330800Y-119444152D01*
X81329207Y-119354181D01*
X81321006Y-119300626D01*
X81301062Y-119269124D01*
X81264240Y-119245310D01*
X81258669Y-119242404D01*
X81165743Y-119208176D01*
X81041942Y-119180757D01*
X80907038Y-119163055D01*
X80780807Y-119157979D01*
X80715348Y-119162478D01*
X80529593Y-119209501D01*
X80375218Y-119295620D01*
X80254532Y-119418271D01*
X80169845Y-119574889D01*
X80123466Y-119762911D01*
X80117271Y-119826516D01*
X79171800Y-119826516D01*
X79171800Y-119176800D01*
X78841600Y-119176800D01*
X78841600Y-119571999D01*
X78840372Y-119705987D01*
X78836983Y-119818902D01*
X78831872Y-119902485D01*
X78825480Y-119948479D01*
X78821216Y-119954600D01*
X78801718Y-119929942D01*
X78760175Y-119869280D01*
X78701313Y-119779783D01*
X78629856Y-119668623D01*
X78560866Y-119559469D01*
X78320900Y-119176935D01*
X78098650Y-119176867D01*
X77876400Y-119176800D01*
X76765516Y-119176800D01*
X76720700Y-119175321D01*
X76466700Y-119864323D01*
X76401418Y-120041404D01*
X76341767Y-120203213D01*
X76290031Y-120343548D01*
X76248496Y-120456210D01*
X76219448Y-120534998D01*
X76205173Y-120573713D01*
X76204233Y-120576262D01*
X75886696Y-120576262D01*
X75907366Y-120570226D01*
X76073000Y-120515852D01*
X76073000Y-120341626D01*
X76071531Y-120254969D01*
X76067672Y-120192582D01*
X76062244Y-120167447D01*
X76061987Y-120167400D01*
X76036250Y-120179740D01*
X75980792Y-120211731D01*
X75923617Y-120246570D01*
X75774123Y-120316304D01*
X75631646Y-120339862D01*
X75502198Y-120320373D01*
X75391791Y-120260966D01*
X75306436Y-120164771D01*
X75252144Y-120034916D01*
X75234800Y-119888000D01*
X75253245Y-119743790D01*
X75304431Y-119614519D01*
X75382135Y-119514440D01*
X75406619Y-119494445D01*
X75471933Y-119461332D01*
X75560321Y-119445936D01*
X75630742Y-119443645D01*
X75732098Y-119448605D01*
X75811410Y-119468950D01*
X75896066Y-119512531D01*
X75918180Y-119526050D01*
X75989507Y-119569364D01*
X76041883Y-119599256D01*
X76061987Y-119608600D01*
X76067425Y-119585348D01*
X76071360Y-119524178D01*
X76072992Y-119437967D01*
X76073000Y-119431509D01*
X76073000Y-119254419D01*
X75926950Y-119210470D01*
X75794572Y-119182360D01*
X75644787Y-119169001D01*
X75494739Y-119170360D01*
X75361577Y-119186406D01*
X75274267Y-119211658D01*
X75115639Y-119303290D01*
X74995698Y-119426490D01*
X74913468Y-119582720D01*
X74867970Y-119773446D01*
X74862070Y-119828469D01*
X73932876Y-119828469D01*
X73932011Y-119811800D01*
X73304400Y-119811800D01*
X73304400Y-120091200D01*
X73583800Y-120091200D01*
X73583800Y-120376517D01*
X73418973Y-120366022D01*
X73286101Y-120346807D01*
X73185110Y-120303180D01*
X73099657Y-120226699D01*
X73064669Y-120183017D01*
X73037464Y-120137214D01*
X73021407Y-120080594D01*
X73013900Y-119999149D01*
X73012300Y-119900700D01*
X73014611Y-119787383D01*
X73023278Y-119710720D01*
X73040899Y-119656703D01*
X73064669Y-119618382D01*
X73146382Y-119527139D01*
X73235561Y-119471289D01*
X73348391Y-119442641D01*
X73425861Y-119435540D01*
X73518912Y-119432773D01*
X73589456Y-119440162D01*
X73658020Y-119462622D01*
X73745133Y-119505068D01*
X73769120Y-119517733D01*
X73941740Y-119609454D01*
X73926700Y-119268864D01*
X73787000Y-119219259D01*
X73642142Y-119183316D01*
X73475850Y-119166505D01*
X73305638Y-119168676D01*
X73149020Y-119189680D01*
X73031562Y-119225699D01*
X72895533Y-119308404D01*
X72775108Y-119423609D01*
X72686400Y-119555320D01*
X72674997Y-119579655D01*
X72647747Y-119679335D01*
X72634223Y-119809241D01*
X71990657Y-119809241D01*
X71989763Y-119586577D01*
X71983227Y-117957600D01*
X84988400Y-117957600D01*
X84988400Y-121221739D01*
D12*
X101650800Y-135925560D02*
X101650800Y-125765560D01*
X94030800Y-135925560D02*
X101650800Y-135925560D01*
X94030800Y-125765560D02*
X94030800Y-135925560D01*
X101650800Y-125765560D02*
X94030800Y-125765560D01*
X100380800Y-125765560D02*
X100380800Y-135925560D01*
X64135000Y-132080000D02*
X62865000Y-132080000D01*
X64135000Y-130810000D02*
X64135000Y-132080000D01*
X61822071Y-112650000D02*
X61425000Y-112650000D01*
X61822071Y-113410000D02*
X61425000Y-113410000D01*
X52765000Y-112650000D02*
X58765000Y-112650000D01*
X52765000Y-113410000D02*
X52765000Y-112650000D01*
X58765000Y-113410000D02*
X52765000Y-113410000D01*
X61425000Y-114300000D02*
X58765000Y-114300000D01*
X61822071Y-115190000D02*
X61425000Y-115190000D01*
X61822071Y-115950000D02*
X61425000Y-115950000D01*
X52765000Y-115190000D02*
X58765000Y-115190000D01*
X52765000Y-115950000D02*
X52765000Y-115190000D01*
X58765000Y-115950000D02*
X52765000Y-115950000D01*
X61425000Y-116840000D02*
X58765000Y-116840000D01*
X61822071Y-117730000D02*
X61425000Y-117730000D01*
X61822071Y-118490000D02*
X61425000Y-118490000D01*
X52765000Y-117730000D02*
X58765000Y-117730000D01*
X52765000Y-118490000D02*
X52765000Y-117730000D01*
X58765000Y-118490000D02*
X52765000Y-118490000D01*
X61425000Y-119380000D02*
X58765000Y-119380000D01*
X61822071Y-120270000D02*
X61425000Y-120270000D01*
X61822071Y-121030000D02*
X61425000Y-121030000D01*
X52765000Y-120270000D02*
X58765000Y-120270000D01*
X52765000Y-121030000D02*
X52765000Y-120270000D01*
X58765000Y-121030000D02*
X52765000Y-121030000D01*
X61425000Y-121920000D02*
X58765000Y-121920000D01*
X61822071Y-122810000D02*
X61425000Y-122810000D01*
X61822071Y-123570000D02*
X61425000Y-123570000D01*
X52765000Y-122810000D02*
X58765000Y-122810000D01*
X52765000Y-123570000D02*
X52765000Y-122810000D01*
X58765000Y-123570000D02*
X52765000Y-123570000D01*
X61425000Y-124460000D02*
X58765000Y-124460000D01*
X61822071Y-125350000D02*
X61425000Y-125350000D01*
X61822071Y-126110000D02*
X61425000Y-126110000D01*
X52765000Y-125350000D02*
X58765000Y-125350000D01*
X52765000Y-126110000D02*
X52765000Y-125350000D01*
X58765000Y-126110000D02*
X52765000Y-126110000D01*
X61425000Y-127000000D02*
X58765000Y-127000000D01*
X61822071Y-127890000D02*
X61425000Y-127890000D01*
X61822071Y-128650000D02*
X61425000Y-128650000D01*
X52765000Y-127890000D02*
X58765000Y-127890000D01*
X52765000Y-128650000D02*
X52765000Y-127890000D01*
X58765000Y-128650000D02*
X52765000Y-128650000D01*
X61425000Y-129540000D02*
X58765000Y-129540000D01*
X61755000Y-130430000D02*
X61425000Y-130430000D01*
X61755000Y-131190000D02*
X61425000Y-131190000D01*
X58765000Y-130530000D02*
X52765000Y-130530000D01*
X58765000Y-130650000D02*
X52765000Y-130650000D01*
X58765000Y-130770000D02*
X52765000Y-130770000D01*
X58765000Y-130890000D02*
X52765000Y-130890000D01*
X58765000Y-131010000D02*
X52765000Y-131010000D01*
X58765000Y-131130000D02*
X52765000Y-131130000D01*
X52765000Y-130430000D02*
X58765000Y-130430000D01*
X52765000Y-131190000D02*
X52765000Y-130430000D01*
X58765000Y-131190000D02*
X52765000Y-131190000D01*
X58765000Y-132140000D02*
X61425000Y-132140000D01*
X58765000Y-111700000D02*
X58765000Y-132140000D01*
X61425000Y-111700000D02*
X58765000Y-111700000D01*
X61425000Y-132140000D02*
X61425000Y-111700000D01*
X85034000Y-159175000D02*
X85034000Y-160425000D01*
X86284000Y-159175000D02*
X85034000Y-159175000D01*
X97184000Y-164675000D02*
X91634000Y-164675000D01*
X97184000Y-161725000D02*
X97184000Y-164675000D01*
X97934000Y-161725000D02*
X97184000Y-161725000D01*
X86084000Y-164675000D02*
X91634000Y-164675000D01*
X86084000Y-161725000D02*
X86084000Y-164675000D01*
X85334000Y-161725000D02*
X86084000Y-161725000D01*
X97934000Y-159475000D02*
X96134000Y-159475000D01*
X97934000Y-160225000D02*
X97934000Y-159475000D01*
X96134000Y-160225000D02*
X97934000Y-160225000D01*
X96134000Y-159475000D02*
X96134000Y-160225000D01*
X87134000Y-159475000D02*
X85334000Y-159475000D01*
X87134000Y-160225000D02*
X87134000Y-159475000D01*
X85334000Y-160225000D02*
X87134000Y-160225000D01*
X85334000Y-159475000D02*
X85334000Y-160225000D01*
X94634000Y-159475000D02*
X88634000Y-159475000D01*
X94634000Y-160225000D02*
X94634000Y-159475000D01*
X88634000Y-160225000D02*
X94634000Y-160225000D01*
X88634000Y-159475000D02*
X88634000Y-160225000D01*
X97944000Y-159465000D02*
X85324000Y-159465000D01*
X97944000Y-165435000D02*
X97944000Y-159465000D01*
X85324000Y-165435000D02*
X97944000Y-165435000D01*
X85324000Y-159465000D02*
X85324000Y-165435000D01*
X70175000Y-159175000D02*
X70175000Y-160425000D01*
X71425000Y-159175000D02*
X70175000Y-159175000D01*
X82325000Y-164675000D02*
X76775000Y-164675000D01*
X82325000Y-161725000D02*
X82325000Y-164675000D01*
X83075000Y-161725000D02*
X82325000Y-161725000D01*
X71225000Y-164675000D02*
X76775000Y-164675000D01*
X71225000Y-161725000D02*
X71225000Y-164675000D01*
X70475000Y-161725000D02*
X71225000Y-161725000D01*
X83075000Y-159475000D02*
X81275000Y-159475000D01*
X83075000Y-160225000D02*
X83075000Y-159475000D01*
X81275000Y-160225000D02*
X83075000Y-160225000D01*
X81275000Y-159475000D02*
X81275000Y-160225000D01*
X72275000Y-159475000D02*
X70475000Y-159475000D01*
X72275000Y-160225000D02*
X72275000Y-159475000D01*
X70475000Y-160225000D02*
X72275000Y-160225000D01*
X70475000Y-159475000D02*
X70475000Y-160225000D01*
X79775000Y-159475000D02*
X73775000Y-159475000D01*
X79775000Y-160225000D02*
X79775000Y-159475000D01*
X73775000Y-160225000D02*
X79775000Y-160225000D01*
X73775000Y-159475000D02*
X73775000Y-160225000D01*
X83085000Y-159465000D02*
X70465000Y-159465000D01*
X83085000Y-165435000D02*
X83085000Y-159465000D01*
X70465000Y-165435000D02*
X83085000Y-165435000D01*
X70465000Y-159465000D02*
X70465000Y-165435000D01*
X54554000Y-159175000D02*
X54554000Y-160425000D01*
X55804000Y-159175000D02*
X54554000Y-159175000D01*
X66704000Y-164675000D02*
X61154000Y-164675000D01*
X66704000Y-161725000D02*
X66704000Y-164675000D01*
X67454000Y-161725000D02*
X66704000Y-161725000D01*
X55604000Y-164675000D02*
X61154000Y-164675000D01*
X55604000Y-161725000D02*
X55604000Y-164675000D01*
X54854000Y-161725000D02*
X55604000Y-161725000D01*
X67454000Y-159475000D02*
X65654000Y-159475000D01*
X67454000Y-160225000D02*
X67454000Y-159475000D01*
X65654000Y-160225000D02*
X67454000Y-160225000D01*
X65654000Y-159475000D02*
X65654000Y-160225000D01*
X56654000Y-159475000D02*
X54854000Y-159475000D01*
X56654000Y-160225000D02*
X56654000Y-159475000D01*
X54854000Y-160225000D02*
X56654000Y-160225000D01*
X54854000Y-159475000D02*
X54854000Y-160225000D01*
X64154000Y-159475000D02*
X58154000Y-159475000D01*
X64154000Y-160225000D02*
X64154000Y-159475000D01*
X58154000Y-160225000D02*
X64154000Y-160225000D01*
X58154000Y-159475000D02*
X58154000Y-160225000D01*
X67464000Y-159465000D02*
X54844000Y-159465000D01*
X67464000Y-165435000D02*
X67464000Y-159465000D01*
X54844000Y-165435000D02*
X67464000Y-165435000D01*
X54844000Y-159465000D02*
X54844000Y-165435000D01*
X100330000Y-137735000D02*
X101660000Y-137735000D01*
X101660000Y-137735000D02*
X101660000Y-139065000D01*
X101660000Y-140335000D02*
X101660000Y-158175000D01*
X99000000Y-158175000D02*
X101660000Y-158175000D01*
X99000000Y-140335000D02*
X99000000Y-158175000D01*
X99000000Y-140335000D02*
X101660000Y-140335000D01*
X83185000Y-137735000D02*
X84515000Y-137735000D01*
X84515000Y-137735000D02*
X84515000Y-139065000D01*
X84515000Y-140335000D02*
X84515000Y-158175000D01*
X81855000Y-158175000D02*
X84515000Y-158175000D01*
X81855000Y-140335000D02*
X81855000Y-158175000D01*
X81855000Y-140335000D02*
X84515000Y-140335000D01*
X66040000Y-137735000D02*
X67370000Y-137735000D01*
X67370000Y-137735000D02*
X67370000Y-139065000D01*
X67370000Y-140335000D02*
X67370000Y-158175000D01*
X64710000Y-158175000D02*
X67370000Y-158175000D01*
X64710000Y-140335000D02*
X64710000Y-158175000D01*
X64710000Y-140335000D02*
X67370000Y-140335000D01*
X87630000Y-137735000D02*
X88960000Y-137735000D01*
X88960000Y-137735000D02*
X88960000Y-139065000D01*
X88960000Y-140335000D02*
X88960000Y-158175000D01*
X86300000Y-158175000D02*
X88960000Y-158175000D01*
X86300000Y-140335000D02*
X86300000Y-158175000D01*
X86300000Y-140335000D02*
X88960000Y-140335000D01*
X70485000Y-137735000D02*
X71815000Y-137735000D01*
X71815000Y-137735000D02*
X71815000Y-139065000D01*
X71815000Y-140335000D02*
X71815000Y-158175000D01*
X69155000Y-158175000D02*
X71815000Y-158175000D01*
X69155000Y-140335000D02*
X69155000Y-158175000D01*
X69155000Y-140335000D02*
X71815000Y-140335000D01*
X71710000Y-106890000D02*
X71710000Y-105640000D01*
X70460000Y-106890000D02*
X71710000Y-106890000D01*
X64560000Y-101390000D02*
X67610000Y-101390000D01*
X64560000Y-104340000D02*
X64560000Y-101390000D01*
X63810000Y-104340000D02*
X64560000Y-104340000D01*
X70660000Y-101390000D02*
X67610000Y-101390000D01*
X70660000Y-104340000D02*
X70660000Y-101390000D01*
X71410000Y-104340000D02*
X70660000Y-104340000D01*
X63810000Y-106590000D02*
X65610000Y-106590000D01*
X63810000Y-105840000D02*
X63810000Y-106590000D01*
X65610000Y-105840000D02*
X63810000Y-105840000D01*
X65610000Y-106590000D02*
X65610000Y-105840000D01*
X69610000Y-106590000D02*
X71410000Y-106590000D01*
X69610000Y-105840000D02*
X69610000Y-106590000D01*
X71410000Y-105840000D02*
X69610000Y-105840000D01*
X71410000Y-106590000D02*
X71410000Y-105840000D01*
X67110000Y-106590000D02*
X68110000Y-106590000D01*
X67110000Y-105840000D02*
X67110000Y-106590000D01*
X68110000Y-105840000D02*
X67110000Y-105840000D01*
X68110000Y-106590000D02*
X68110000Y-105840000D01*
X63800000Y-106600000D02*
X71420000Y-106600000D01*
X63800000Y-100630000D02*
X63800000Y-106600000D01*
X71420000Y-100630000D02*
X63800000Y-100630000D01*
X71420000Y-106600000D02*
X71420000Y-100630000D01*
X62820000Y-106890000D02*
X62820000Y-105640000D01*
X61570000Y-106890000D02*
X62820000Y-106890000D01*
X55670000Y-101390000D02*
X58720000Y-101390000D01*
X55670000Y-104340000D02*
X55670000Y-101390000D01*
X54920000Y-104340000D02*
X55670000Y-104340000D01*
X61770000Y-101390000D02*
X58720000Y-101390000D01*
X61770000Y-104340000D02*
X61770000Y-101390000D01*
X62520000Y-104340000D02*
X61770000Y-104340000D01*
X54920000Y-106590000D02*
X56720000Y-106590000D01*
X54920000Y-105840000D02*
X54920000Y-106590000D01*
X56720000Y-105840000D02*
X54920000Y-105840000D01*
X56720000Y-106590000D02*
X56720000Y-105840000D01*
X60720000Y-106590000D02*
X62520000Y-106590000D01*
X60720000Y-105840000D02*
X60720000Y-106590000D01*
X62520000Y-105840000D02*
X60720000Y-105840000D01*
X62520000Y-106590000D02*
X62520000Y-105840000D01*
X58220000Y-106590000D02*
X59220000Y-106590000D01*
X58220000Y-105840000D02*
X58220000Y-106590000D01*
X59220000Y-105840000D02*
X58220000Y-105840000D01*
X59220000Y-106590000D02*
X59220000Y-105840000D01*
X54910000Y-106600000D02*
X62530000Y-106600000D01*
X54910000Y-100630000D02*
X54910000Y-106600000D01*
X62530000Y-100630000D02*
X54910000Y-100630000D01*
X62530000Y-106600000D02*
X62530000Y-100630000D01*
X95040000Y-125320000D02*
X96290000Y-125320000D01*
X95040000Y-124070000D02*
X95040000Y-125320000D01*
X100540000Y-118170000D02*
X100540000Y-121220000D01*
X97590000Y-118170000D02*
X100540000Y-118170000D01*
X97590000Y-117420000D02*
X97590000Y-118170000D01*
X100540000Y-124270000D02*
X100540000Y-121220000D01*
X97590000Y-124270000D02*
X100540000Y-124270000D01*
X97590000Y-125020000D02*
X97590000Y-124270000D01*
X95340000Y-117420000D02*
X95340000Y-119220000D01*
X96090000Y-117420000D02*
X95340000Y-117420000D01*
X96090000Y-119220000D02*
X96090000Y-117420000D01*
X95340000Y-119220000D02*
X96090000Y-119220000D01*
X95340000Y-123220000D02*
X95340000Y-125020000D01*
X96090000Y-123220000D02*
X95340000Y-123220000D01*
X96090000Y-125020000D02*
X96090000Y-123220000D01*
X95340000Y-125020000D02*
X96090000Y-125020000D01*
X95340000Y-120720000D02*
X95340000Y-121720000D01*
X96090000Y-120720000D02*
X95340000Y-120720000D01*
X96090000Y-121720000D02*
X96090000Y-120720000D01*
X95340000Y-121720000D02*
X96090000Y-121720000D01*
X95330000Y-117410000D02*
X95330000Y-125030000D01*
X101300000Y-117410000D02*
X95330000Y-117410000D01*
X101300000Y-125030000D02*
X101300000Y-117410000D01*
X95330000Y-125030000D02*
X101300000Y-125030000D01*
X80600000Y-106890000D02*
X80600000Y-105640000D01*
X79350000Y-106890000D02*
X80600000Y-106890000D01*
X73450000Y-101390000D02*
X76500000Y-101390000D01*
X73450000Y-104340000D02*
X73450000Y-101390000D01*
X72700000Y-104340000D02*
X73450000Y-104340000D01*
X79550000Y-101390000D02*
X76500000Y-101390000D01*
X79550000Y-104340000D02*
X79550000Y-101390000D01*
X80300000Y-104340000D02*
X79550000Y-104340000D01*
X72700000Y-106590000D02*
X74500000Y-106590000D01*
X72700000Y-105840000D02*
X72700000Y-106590000D01*
X74500000Y-105840000D02*
X72700000Y-105840000D01*
X74500000Y-106590000D02*
X74500000Y-105840000D01*
X78500000Y-106590000D02*
X80300000Y-106590000D01*
X78500000Y-105840000D02*
X78500000Y-106590000D01*
X80300000Y-105840000D02*
X78500000Y-105840000D01*
X80300000Y-106590000D02*
X80300000Y-105840000D01*
X76000000Y-106590000D02*
X77000000Y-106590000D01*
X76000000Y-105840000D02*
X76000000Y-106590000D01*
X77000000Y-105840000D02*
X76000000Y-105840000D01*
X77000000Y-106590000D02*
X77000000Y-105840000D01*
X72690000Y-106600000D02*
X80310000Y-106600000D01*
X72690000Y-100630000D02*
X72690000Y-106600000D01*
X80310000Y-100630000D02*
X72690000Y-100630000D01*
X80310000Y-106600000D02*
X80310000Y-100630000D01*
X89551000Y-106890000D02*
X89551000Y-105640000D01*
X88301000Y-106890000D02*
X89551000Y-106890000D01*
X82401000Y-101390000D02*
X85451000Y-101390000D01*
X82401000Y-104340000D02*
X82401000Y-101390000D01*
X81651000Y-104340000D02*
X82401000Y-104340000D01*
X88501000Y-101390000D02*
X85451000Y-101390000D01*
X88501000Y-104340000D02*
X88501000Y-101390000D01*
X89251000Y-104340000D02*
X88501000Y-104340000D01*
X81651000Y-106590000D02*
X83451000Y-106590000D01*
X81651000Y-105840000D02*
X81651000Y-106590000D01*
X83451000Y-105840000D02*
X81651000Y-105840000D01*
X83451000Y-106590000D02*
X83451000Y-105840000D01*
X87451000Y-106590000D02*
X89251000Y-106590000D01*
X87451000Y-105840000D02*
X87451000Y-106590000D01*
X89251000Y-105840000D02*
X87451000Y-105840000D01*
X89251000Y-106590000D02*
X89251000Y-105840000D01*
X84951000Y-106590000D02*
X85951000Y-106590000D01*
X84951000Y-105840000D02*
X84951000Y-106590000D01*
X85951000Y-105840000D02*
X84951000Y-105840000D01*
X85951000Y-106590000D02*
X85951000Y-105840000D01*
X81641000Y-106600000D02*
X89261000Y-106600000D01*
X81641000Y-100630000D02*
X81641000Y-106600000D01*
X89261000Y-100630000D02*
X81641000Y-100630000D01*
X89261000Y-106600000D02*
X89261000Y-100630000D01*
X95040000Y-115880000D02*
X96290000Y-115880000D01*
X95040000Y-114630000D02*
X95040000Y-115880000D01*
X100540000Y-108730000D02*
X100540000Y-111780000D01*
X97590000Y-108730000D02*
X100540000Y-108730000D01*
X97590000Y-107980000D02*
X97590000Y-108730000D01*
X100540000Y-114830000D02*
X100540000Y-111780000D01*
X97590000Y-114830000D02*
X100540000Y-114830000D01*
X97590000Y-115580000D02*
X97590000Y-114830000D01*
X95340000Y-107980000D02*
X95340000Y-109780000D01*
X96090000Y-107980000D02*
X95340000Y-107980000D01*
X96090000Y-109780000D02*
X96090000Y-107980000D01*
X95340000Y-109780000D02*
X96090000Y-109780000D01*
X95340000Y-113780000D02*
X95340000Y-115580000D01*
X96090000Y-113780000D02*
X95340000Y-113780000D01*
X96090000Y-115580000D02*
X96090000Y-113780000D01*
X95340000Y-115580000D02*
X96090000Y-115580000D01*
X95340000Y-111280000D02*
X95340000Y-112280000D01*
X96090000Y-111280000D02*
X95340000Y-111280000D01*
X96090000Y-112280000D02*
X96090000Y-111280000D01*
X95340000Y-112280000D02*
X96090000Y-112280000D01*
X95330000Y-107970000D02*
X95330000Y-115590000D01*
X101300000Y-107970000D02*
X95330000Y-107970000D01*
X101300000Y-115590000D02*
X101300000Y-107970000D01*
X95330000Y-115590000D02*
X101300000Y-115590000D01*
X90230000Y-109220000D02*
X90230000Y-110550000D01*
X90230000Y-110550000D02*
X88900000Y-110550000D01*
X87630000Y-110550000D02*
X52010000Y-110550000D01*
X52010000Y-107890000D02*
X52010000Y-110550000D01*
X87630000Y-107890000D02*
X52010000Y-107890000D01*
X87630000Y-107890000D02*
X87630000Y-110550000D01*
X98481000Y-106890000D02*
X98481000Y-105640000D01*
X97231000Y-106890000D02*
X98481000Y-106890000D01*
X91331000Y-101390000D02*
X94381000Y-101390000D01*
X91331000Y-104340000D02*
X91331000Y-101390000D01*
X90581000Y-104340000D02*
X91331000Y-104340000D01*
X97431000Y-101390000D02*
X94381000Y-101390000D01*
X97431000Y-104340000D02*
X97431000Y-101390000D01*
X98181000Y-104340000D02*
X97431000Y-104340000D01*
X90581000Y-106590000D02*
X92381000Y-106590000D01*
X90581000Y-105840000D02*
X90581000Y-106590000D01*
X92381000Y-105840000D02*
X90581000Y-105840000D01*
X92381000Y-106590000D02*
X92381000Y-105840000D01*
X96381000Y-106590000D02*
X98181000Y-106590000D01*
X96381000Y-105840000D02*
X96381000Y-106590000D01*
X98181000Y-105840000D02*
X96381000Y-105840000D01*
X98181000Y-106590000D02*
X98181000Y-105840000D01*
X93881000Y-106590000D02*
X94881000Y-106590000D01*
X93881000Y-105840000D02*
X93881000Y-106590000D01*
X94881000Y-105840000D02*
X93881000Y-105840000D01*
X94881000Y-106590000D02*
X94881000Y-105840000D01*
X90571000Y-106600000D02*
X98191000Y-106600000D01*
X90571000Y-100630000D02*
X90571000Y-106600000D01*
X98191000Y-100630000D02*
X90571000Y-100630000D01*
X98191000Y-106600000D02*
X98191000Y-100630000D01*
X90230000Y-134620000D02*
X90230000Y-135950000D01*
X90230000Y-135950000D02*
X88900000Y-135950000D01*
X87630000Y-135950000D02*
X52010000Y-135950000D01*
X52010000Y-133290000D02*
X52010000Y-135950000D01*
X87630000Y-133290000D02*
X52010000Y-133290000D01*
X87630000Y-133290000D02*
X87630000Y-135950000D01*
X97292500Y-142332500D02*
X97292500Y-141707500D01*
X97605000Y-142020000D02*
X96980000Y-142020000D01*
X96740000Y-138639437D02*
X95675563Y-137575000D01*
X96740000Y-142030563D02*
X95675563Y-143095000D01*
X96740000Y-142030563D02*
X96740000Y-141395000D01*
X96740000Y-138639437D02*
X96740000Y-139275000D01*
X95675563Y-137575000D02*
X91220000Y-137575000D01*
X95675563Y-143095000D02*
X91220000Y-143095000D01*
X91220000Y-143095000D02*
X91220000Y-141395000D01*
X91220000Y-137575000D02*
X91220000Y-139275000D01*
X80147500Y-142332500D02*
X80147500Y-141707500D01*
X80460000Y-142020000D02*
X79835000Y-142020000D01*
X79595000Y-138639437D02*
X78530563Y-137575000D01*
X79595000Y-142030563D02*
X78530563Y-143095000D01*
X79595000Y-142030563D02*
X79595000Y-141395000D01*
X79595000Y-138639437D02*
X79595000Y-139275000D01*
X78530563Y-137575000D02*
X74075000Y-137575000D01*
X78530563Y-143095000D02*
X74075000Y-143095000D01*
X74075000Y-143095000D02*
X74075000Y-141395000D01*
X74075000Y-137575000D02*
X74075000Y-139275000D01*
X63002500Y-142332500D02*
X63002500Y-141707500D01*
X63315000Y-142020000D02*
X62690000Y-142020000D01*
X62450000Y-138639437D02*
X61385563Y-137575000D01*
X62450000Y-142030563D02*
X61385563Y-143095000D01*
X62450000Y-142030563D02*
X62450000Y-141395000D01*
X62450000Y-138639437D02*
X62450000Y-139275000D01*
X61385563Y-137575000D02*
X56930000Y-137575000D01*
X61385563Y-143095000D02*
X56930000Y-143095000D01*
X56930000Y-143095000D02*
X56930000Y-141395000D01*
X56930000Y-137575000D02*
X56930000Y-139275000D01*
X74033748Y-113105000D02*
X74556252Y-113105000D01*
X74033748Y-111685000D02*
X74556252Y-111685000D01*
X81653748Y-113105000D02*
X82176252Y-113105000D01*
X81653748Y-111685000D02*
X82176252Y-111685000D01*
X66803748Y-132790000D02*
X67326252Y-132790000D01*
X66803748Y-131370000D02*
X67326252Y-131370000D01*
X77843748Y-113105000D02*
X78366252Y-113105000D01*
X77843748Y-111685000D02*
X78366252Y-111685000D01*
X53340000Y-137735000D02*
X54670000Y-137735000D01*
X54670000Y-137735000D02*
X54670000Y-139065000D01*
X54670000Y-140335000D02*
X54670000Y-158175000D01*
X52010000Y-158175000D02*
X54670000Y-158175000D01*
X52010000Y-140335000D02*
X52010000Y-158175000D01*
X52010000Y-140335000D02*
X54670000Y-140335000D01*
X74033748Y-115645000D02*
X74556252Y-115645000D01*
X74033748Y-114225000D02*
X74556252Y-114225000D01*
X81653748Y-115645000D02*
X82176252Y-115645000D01*
X81653748Y-114225000D02*
X82176252Y-114225000D01*
X67048748Y-130250000D02*
X67571252Y-130250000D01*
X67048748Y-128830000D02*
X67571252Y-128830000D01*
X77843748Y-115645000D02*
X78366252Y-115645000D01*
X77843748Y-114225000D02*
X78366252Y-114225000D01*
D10*
X100417380Y-131619523D02*
X101131666Y-131619523D01*
X101274523Y-131667142D01*
X101369761Y-131762380D01*
X101417380Y-131905238D01*
X101417380Y-132000476D01*
X101417380Y-130619523D02*
X101417380Y-131190952D01*
X101417380Y-130905238D02*
X100417380Y-130905238D01*
X100560238Y-131000476D01*
X100655476Y-131095714D01*
X100703095Y-131190952D01*
X100417380Y-130000476D02*
X100417380Y-129905238D01*
X100465000Y-129810000D01*
X100512619Y-129762380D01*
X100607857Y-129714761D01*
X100798333Y-129667142D01*
X101036428Y-129667142D01*
X101226904Y-129714761D01*
X101322142Y-129762380D01*
X101369761Y-129810000D01*
X101417380Y-129905238D01*
X101417380Y-130000476D01*
X101369761Y-130095714D01*
X101322142Y-130143333D01*
X101226904Y-130190952D01*
X101036428Y-130238571D01*
X100798333Y-130238571D01*
X100607857Y-130190952D01*
X100512619Y-130143333D01*
X100465000Y-130095714D01*
X100417380Y-130000476D01*
X55967380Y-122729523D02*
X56681666Y-122729523D01*
X56824523Y-122777142D01*
X56919761Y-122872380D01*
X56967380Y-123015238D01*
X56967380Y-123110476D01*
X56062619Y-122300952D02*
X56015000Y-122253333D01*
X55967380Y-122158095D01*
X55967380Y-121920000D01*
X56015000Y-121824761D01*
X56062619Y-121777142D01*
X56157857Y-121729523D01*
X56253095Y-121729523D01*
X56395952Y-121777142D01*
X56967380Y-122348571D01*
X56967380Y-121729523D01*
X55967380Y-121110476D02*
X55967380Y-121015238D01*
X56015000Y-120920000D01*
X56062619Y-120872380D01*
X56157857Y-120824761D01*
X56348333Y-120777142D01*
X56586428Y-120777142D01*
X56776904Y-120824761D01*
X56872142Y-120872380D01*
X56919761Y-120920000D01*
X56967380Y-121015238D01*
X56967380Y-121110476D01*
X56919761Y-121205714D01*
X56872142Y-121253333D01*
X56776904Y-121300952D01*
X56586428Y-121348571D01*
X56348333Y-121348571D01*
X56157857Y-121300952D01*
X56062619Y-121253333D01*
X56015000Y-121205714D01*
X55967380Y-121110476D01*
X90824476Y-164127380D02*
X90824476Y-164841666D01*
X90776857Y-164984523D01*
X90681619Y-165079761D01*
X90538761Y-165127380D01*
X90443523Y-165127380D01*
X91824476Y-165127380D02*
X91253047Y-165127380D01*
X91538761Y-165127380D02*
X91538761Y-164127380D01*
X91443523Y-164270238D01*
X91348285Y-164365476D01*
X91253047Y-164413095D01*
X92300666Y-165127380D02*
X92491142Y-165127380D01*
X92586380Y-165079761D01*
X92634000Y-165032142D01*
X92729238Y-164889285D01*
X92776857Y-164698809D01*
X92776857Y-164317857D01*
X92729238Y-164222619D01*
X92681619Y-164175000D01*
X92586380Y-164127380D01*
X92395904Y-164127380D01*
X92300666Y-164175000D01*
X92253047Y-164222619D01*
X92205428Y-164317857D01*
X92205428Y-164555952D01*
X92253047Y-164651190D01*
X92300666Y-164698809D01*
X92395904Y-164746428D01*
X92586380Y-164746428D01*
X92681619Y-164698809D01*
X92729238Y-164651190D01*
X92776857Y-164555952D01*
X75965476Y-163917380D02*
X75965476Y-164631666D01*
X75917857Y-164774523D01*
X75822619Y-164869761D01*
X75679761Y-164917380D01*
X75584523Y-164917380D01*
X76965476Y-164917380D02*
X76394047Y-164917380D01*
X76679761Y-164917380D02*
X76679761Y-163917380D01*
X76584523Y-164060238D01*
X76489285Y-164155476D01*
X76394047Y-164203095D01*
X77536904Y-164345952D02*
X77441666Y-164298333D01*
X77394047Y-164250714D01*
X77346428Y-164155476D01*
X77346428Y-164107857D01*
X77394047Y-164012619D01*
X77441666Y-163965000D01*
X77536904Y-163917380D01*
X77727380Y-163917380D01*
X77822619Y-163965000D01*
X77870238Y-164012619D01*
X77917857Y-164107857D01*
X77917857Y-164155476D01*
X77870238Y-164250714D01*
X77822619Y-164298333D01*
X77727380Y-164345952D01*
X77536904Y-164345952D01*
X77441666Y-164393571D01*
X77394047Y-164441190D01*
X77346428Y-164536428D01*
X77346428Y-164726904D01*
X77394047Y-164822142D01*
X77441666Y-164869761D01*
X77536904Y-164917380D01*
X77727380Y-164917380D01*
X77822619Y-164869761D01*
X77870238Y-164822142D01*
X77917857Y-164726904D01*
X77917857Y-164536428D01*
X77870238Y-164441190D01*
X77822619Y-164393571D01*
X77727380Y-164345952D01*
X60344476Y-164127380D02*
X60344476Y-164841666D01*
X60296857Y-164984523D01*
X60201619Y-165079761D01*
X60058761Y-165127380D01*
X59963523Y-165127380D01*
X61344476Y-165127380D02*
X60773047Y-165127380D01*
X61058761Y-165127380D02*
X61058761Y-164127380D01*
X60963523Y-164270238D01*
X60868285Y-164365476D01*
X60773047Y-164413095D01*
X61677809Y-164127380D02*
X62344476Y-164127380D01*
X61915904Y-165127380D01*
X95710476Y-147407380D02*
X95710476Y-148121666D01*
X95662857Y-148264523D01*
X95567619Y-148359761D01*
X95424761Y-148407380D01*
X95329523Y-148407380D01*
X96710476Y-148407380D02*
X96139047Y-148407380D01*
X96424761Y-148407380D02*
X96424761Y-147407380D01*
X96329523Y-147550238D01*
X96234285Y-147645476D01*
X96139047Y-147693095D01*
X97567619Y-147407380D02*
X97377142Y-147407380D01*
X97281904Y-147455000D01*
X97234285Y-147502619D01*
X97139047Y-147645476D01*
X97091428Y-147835952D01*
X97091428Y-148216904D01*
X97139047Y-148312142D01*
X97186666Y-148359761D01*
X97281904Y-148407380D01*
X97472380Y-148407380D01*
X97567619Y-148359761D01*
X97615238Y-148312142D01*
X97662857Y-148216904D01*
X97662857Y-147978809D01*
X97615238Y-147883571D01*
X97567619Y-147835952D01*
X97472380Y-147788333D01*
X97281904Y-147788333D01*
X97186666Y-147835952D01*
X97139047Y-147883571D01*
X97091428Y-147978809D01*
X79200476Y-147407380D02*
X79200476Y-148121666D01*
X79152857Y-148264523D01*
X79057619Y-148359761D01*
X78914761Y-148407380D01*
X78819523Y-148407380D01*
X80200476Y-148407380D02*
X79629047Y-148407380D01*
X79914761Y-148407380D02*
X79914761Y-147407380D01*
X79819523Y-147550238D01*
X79724285Y-147645476D01*
X79629047Y-147693095D01*
X81105238Y-147407380D02*
X80629047Y-147407380D01*
X80581428Y-147883571D01*
X80629047Y-147835952D01*
X80724285Y-147788333D01*
X80962380Y-147788333D01*
X81057619Y-147835952D01*
X81105238Y-147883571D01*
X81152857Y-147978809D01*
X81152857Y-148216904D01*
X81105238Y-148312142D01*
X81057619Y-148359761D01*
X80962380Y-148407380D01*
X80724285Y-148407380D01*
X80629047Y-148359761D01*
X80581428Y-148312142D01*
X62055476Y-147407380D02*
X62055476Y-148121666D01*
X62007857Y-148264523D01*
X61912619Y-148359761D01*
X61769761Y-148407380D01*
X61674523Y-148407380D01*
X63055476Y-148407380D02*
X62484047Y-148407380D01*
X62769761Y-148407380D02*
X62769761Y-147407380D01*
X62674523Y-147550238D01*
X62579285Y-147645476D01*
X62484047Y-147693095D01*
X63912619Y-147740714D02*
X63912619Y-148407380D01*
X63674523Y-147359761D02*
X63436428Y-148074047D01*
X64055476Y-148074047D01*
X89995476Y-147407380D02*
X89995476Y-148121666D01*
X89947857Y-148264523D01*
X89852619Y-148359761D01*
X89709761Y-148407380D01*
X89614523Y-148407380D01*
X90995476Y-148407380D02*
X90424047Y-148407380D01*
X90709761Y-148407380D02*
X90709761Y-147407380D01*
X90614523Y-147550238D01*
X90519285Y-147645476D01*
X90424047Y-147693095D01*
X91328809Y-147407380D02*
X91947857Y-147407380D01*
X91614523Y-147788333D01*
X91757380Y-147788333D01*
X91852619Y-147835952D01*
X91900238Y-147883571D01*
X91947857Y-147978809D01*
X91947857Y-148216904D01*
X91900238Y-148312142D01*
X91852619Y-148359761D01*
X91757380Y-148407380D01*
X91471666Y-148407380D01*
X91376428Y-148359761D01*
X91328809Y-148312142D01*
X72850476Y-147407380D02*
X72850476Y-148121666D01*
X72802857Y-148264523D01*
X72707619Y-148359761D01*
X72564761Y-148407380D01*
X72469523Y-148407380D01*
X73850476Y-148407380D02*
X73279047Y-148407380D01*
X73564761Y-148407380D02*
X73564761Y-147407380D01*
X73469523Y-147550238D01*
X73374285Y-147645476D01*
X73279047Y-147693095D01*
X74231428Y-147502619D02*
X74279047Y-147455000D01*
X74374285Y-147407380D01*
X74612380Y-147407380D01*
X74707619Y-147455000D01*
X74755238Y-147502619D01*
X74802857Y-147597857D01*
X74802857Y-147693095D01*
X74755238Y-147835952D01*
X74183809Y-148407380D01*
X74802857Y-148407380D01*
X67276666Y-100842380D02*
X67276666Y-101556666D01*
X67229047Y-101699523D01*
X67133809Y-101794761D01*
X66990952Y-101842380D01*
X66895714Y-101842380D01*
X67800476Y-101842380D02*
X67990952Y-101842380D01*
X68086190Y-101794761D01*
X68133809Y-101747142D01*
X68229047Y-101604285D01*
X68276666Y-101413809D01*
X68276666Y-101032857D01*
X68229047Y-100937619D01*
X68181428Y-100890000D01*
X68086190Y-100842380D01*
X67895714Y-100842380D01*
X67800476Y-100890000D01*
X67752857Y-100937619D01*
X67705238Y-101032857D01*
X67705238Y-101270952D01*
X67752857Y-101366190D01*
X67800476Y-101413809D01*
X67895714Y-101461428D01*
X68086190Y-101461428D01*
X68181428Y-101413809D01*
X68229047Y-101366190D01*
X68276666Y-101270952D01*
X58386666Y-100842380D02*
X58386666Y-101556666D01*
X58339047Y-101699523D01*
X58243809Y-101794761D01*
X58100952Y-101842380D01*
X58005714Y-101842380D01*
X59005714Y-101270952D02*
X58910476Y-101223333D01*
X58862857Y-101175714D01*
X58815238Y-101080476D01*
X58815238Y-101032857D01*
X58862857Y-100937619D01*
X58910476Y-100890000D01*
X59005714Y-100842380D01*
X59196190Y-100842380D01*
X59291428Y-100890000D01*
X59339047Y-100937619D01*
X59386666Y-101032857D01*
X59386666Y-101080476D01*
X59339047Y-101175714D01*
X59291428Y-101223333D01*
X59196190Y-101270952D01*
X59005714Y-101270952D01*
X58910476Y-101318571D01*
X58862857Y-101366190D01*
X58815238Y-101461428D01*
X58815238Y-101651904D01*
X58862857Y-101747142D01*
X58910476Y-101794761D01*
X59005714Y-101842380D01*
X59196190Y-101842380D01*
X59291428Y-101794761D01*
X59339047Y-101747142D01*
X59386666Y-101651904D01*
X59386666Y-101461428D01*
X59339047Y-101366190D01*
X59291428Y-101318571D01*
X59196190Y-101270952D01*
X99992380Y-121553333D02*
X100706666Y-121553333D01*
X100849523Y-121600952D01*
X100944761Y-121696190D01*
X100992380Y-121839047D01*
X100992380Y-121934285D01*
X99992380Y-121172380D02*
X99992380Y-120505714D01*
X100992380Y-120934285D01*
X76166666Y-100842380D02*
X76166666Y-101556666D01*
X76119047Y-101699523D01*
X76023809Y-101794761D01*
X75880952Y-101842380D01*
X75785714Y-101842380D01*
X77071428Y-100842380D02*
X76880952Y-100842380D01*
X76785714Y-100890000D01*
X76738095Y-100937619D01*
X76642857Y-101080476D01*
X76595238Y-101270952D01*
X76595238Y-101651904D01*
X76642857Y-101747142D01*
X76690476Y-101794761D01*
X76785714Y-101842380D01*
X76976190Y-101842380D01*
X77071428Y-101794761D01*
X77119047Y-101747142D01*
X77166666Y-101651904D01*
X77166666Y-101413809D01*
X77119047Y-101318571D01*
X77071428Y-101270952D01*
X76976190Y-101223333D01*
X76785714Y-101223333D01*
X76690476Y-101270952D01*
X76642857Y-101318571D01*
X76595238Y-101413809D01*
X85117666Y-101052380D02*
X85117666Y-101766666D01*
X85070047Y-101909523D01*
X84974809Y-102004761D01*
X84831952Y-102052380D01*
X84736714Y-102052380D01*
X86070047Y-101052380D02*
X85593857Y-101052380D01*
X85546238Y-101528571D01*
X85593857Y-101480952D01*
X85689095Y-101433333D01*
X85927190Y-101433333D01*
X86022428Y-101480952D01*
X86070047Y-101528571D01*
X86117666Y-101623809D01*
X86117666Y-101861904D01*
X86070047Y-101957142D01*
X86022428Y-102004761D01*
X85927190Y-102052380D01*
X85689095Y-102052380D01*
X85593857Y-102004761D01*
X85546238Y-101957142D01*
X99992380Y-112113333D02*
X100706666Y-112113333D01*
X100849523Y-112160952D01*
X100944761Y-112256190D01*
X100992380Y-112399047D01*
X100992380Y-112494285D01*
X100325714Y-111208571D02*
X100992380Y-111208571D01*
X99944761Y-111446666D02*
X100659047Y-111684761D01*
X100659047Y-111065714D01*
X86026666Y-111212380D02*
X86026666Y-111926666D01*
X85979047Y-112069523D01*
X85883809Y-112164761D01*
X85740952Y-112212380D01*
X85645714Y-112212380D01*
X86407619Y-111212380D02*
X87026666Y-111212380D01*
X86693333Y-111593333D01*
X86836190Y-111593333D01*
X86931428Y-111640952D01*
X86979047Y-111688571D01*
X87026666Y-111783809D01*
X87026666Y-112021904D01*
X86979047Y-112117142D01*
X86931428Y-112164761D01*
X86836190Y-112212380D01*
X86550476Y-112212380D01*
X86455238Y-112164761D01*
X86407619Y-112117142D01*
X94047666Y-100842380D02*
X94047666Y-101556666D01*
X94000047Y-101699523D01*
X93904809Y-101794761D01*
X93761952Y-101842380D01*
X93666714Y-101842380D01*
X94476238Y-100937619D02*
X94523857Y-100890000D01*
X94619095Y-100842380D01*
X94857190Y-100842380D01*
X94952428Y-100890000D01*
X95000047Y-100937619D01*
X95047666Y-101032857D01*
X95047666Y-101128095D01*
X95000047Y-101270952D01*
X94428619Y-101842380D01*
X95047666Y-101842380D01*
X86026666Y-131532380D02*
X86026666Y-132246666D01*
X85979047Y-132389523D01*
X85883809Y-132484761D01*
X85740952Y-132532380D01*
X85645714Y-132532380D01*
X87026666Y-132532380D02*
X86455238Y-132532380D01*
X86740952Y-132532380D02*
X86740952Y-131532380D01*
X86645714Y-131675238D01*
X86550476Y-131770476D01*
X86455238Y-131818095D01*
X93813333Y-144392142D02*
X93765714Y-144439761D01*
X93622857Y-144487380D01*
X93527619Y-144487380D01*
X93384761Y-144439761D01*
X93289523Y-144344523D01*
X93241904Y-144249285D01*
X93194285Y-144058809D01*
X93194285Y-143915952D01*
X93241904Y-143725476D01*
X93289523Y-143630238D01*
X93384761Y-143535000D01*
X93527619Y-143487380D01*
X93622857Y-143487380D01*
X93765714Y-143535000D01*
X93813333Y-143582619D01*
X94146666Y-143487380D02*
X94813333Y-143487380D01*
X94384761Y-144487380D01*
X76668333Y-144392142D02*
X76620714Y-144439761D01*
X76477857Y-144487380D01*
X76382619Y-144487380D01*
X76239761Y-144439761D01*
X76144523Y-144344523D01*
X76096904Y-144249285D01*
X76049285Y-144058809D01*
X76049285Y-143915952D01*
X76096904Y-143725476D01*
X76144523Y-143630238D01*
X76239761Y-143535000D01*
X76382619Y-143487380D01*
X76477857Y-143487380D01*
X76620714Y-143535000D01*
X76668333Y-143582619D01*
X77525476Y-143487380D02*
X77335000Y-143487380D01*
X77239761Y-143535000D01*
X77192142Y-143582619D01*
X77096904Y-143725476D01*
X77049285Y-143915952D01*
X77049285Y-144296904D01*
X77096904Y-144392142D01*
X77144523Y-144439761D01*
X77239761Y-144487380D01*
X77430238Y-144487380D01*
X77525476Y-144439761D01*
X77573095Y-144392142D01*
X77620714Y-144296904D01*
X77620714Y-144058809D01*
X77573095Y-143963571D01*
X77525476Y-143915952D01*
X77430238Y-143868333D01*
X77239761Y-143868333D01*
X77144523Y-143915952D01*
X77096904Y-143963571D01*
X77049285Y-144058809D01*
X59523333Y-144392142D02*
X59475714Y-144439761D01*
X59332857Y-144487380D01*
X59237619Y-144487380D01*
X59094761Y-144439761D01*
X58999523Y-144344523D01*
X58951904Y-144249285D01*
X58904285Y-144058809D01*
X58904285Y-143915952D01*
X58951904Y-143725476D01*
X58999523Y-143630238D01*
X59094761Y-143535000D01*
X59237619Y-143487380D01*
X59332857Y-143487380D01*
X59475714Y-143535000D01*
X59523333Y-143582619D01*
X60428095Y-143487380D02*
X59951904Y-143487380D01*
X59904285Y-143963571D01*
X59951904Y-143915952D01*
X60047142Y-143868333D01*
X60285238Y-143868333D01*
X60380476Y-143915952D01*
X60428095Y-143963571D01*
X60475714Y-144058809D01*
X60475714Y-144296904D01*
X60428095Y-144392142D01*
X60380476Y-144439761D01*
X60285238Y-144487380D01*
X60047142Y-144487380D01*
X59951904Y-144439761D01*
X59904285Y-144392142D01*
X74128333Y-111577380D02*
X73795000Y-111101190D01*
X73556904Y-111577380D02*
X73556904Y-110577380D01*
X73937857Y-110577380D01*
X74033095Y-110625000D01*
X74080714Y-110672619D01*
X74128333Y-110767857D01*
X74128333Y-110910714D01*
X74080714Y-111005952D01*
X74033095Y-111053571D01*
X73937857Y-111101190D01*
X73556904Y-111101190D01*
X74985476Y-110910714D02*
X74985476Y-111577380D01*
X74747380Y-110529761D02*
X74509285Y-111244047D01*
X75128333Y-111244047D01*
X81748333Y-111577380D02*
X81415000Y-111101190D01*
X81176904Y-111577380D02*
X81176904Y-110577380D01*
X81557857Y-110577380D01*
X81653095Y-110625000D01*
X81700714Y-110672619D01*
X81748333Y-110767857D01*
X81748333Y-110910714D01*
X81700714Y-111005952D01*
X81653095Y-111053571D01*
X81557857Y-111101190D01*
X81176904Y-111101190D01*
X82081666Y-110577380D02*
X82700714Y-110577380D01*
X82367380Y-110958333D01*
X82510238Y-110958333D01*
X82605476Y-111005952D01*
X82653095Y-111053571D01*
X82700714Y-111148809D01*
X82700714Y-111386904D01*
X82653095Y-111482142D01*
X82605476Y-111529761D01*
X82510238Y-111577380D01*
X82224523Y-111577380D01*
X82129285Y-111529761D01*
X82081666Y-111482142D01*
X70318333Y-132532380D02*
X69985000Y-132056190D01*
X69746904Y-132532380D02*
X69746904Y-131532380D01*
X70127857Y-131532380D01*
X70223095Y-131580000D01*
X70270714Y-131627619D01*
X70318333Y-131722857D01*
X70318333Y-131865714D01*
X70270714Y-131960952D01*
X70223095Y-132008571D01*
X70127857Y-132056190D01*
X69746904Y-132056190D01*
X70699285Y-131627619D02*
X70746904Y-131580000D01*
X70842142Y-131532380D01*
X71080238Y-131532380D01*
X71175476Y-131580000D01*
X71223095Y-131627619D01*
X71270714Y-131722857D01*
X71270714Y-131818095D01*
X71223095Y-131960952D01*
X70651666Y-132532380D01*
X71270714Y-132532380D01*
X77938333Y-111577380D02*
X77605000Y-111101190D01*
X77366904Y-111577380D02*
X77366904Y-110577380D01*
X77747857Y-110577380D01*
X77843095Y-110625000D01*
X77890714Y-110672619D01*
X77938333Y-110767857D01*
X77938333Y-110910714D01*
X77890714Y-111005952D01*
X77843095Y-111053571D01*
X77747857Y-111101190D01*
X77366904Y-111101190D01*
X78890714Y-111577380D02*
X78319285Y-111577380D01*
X78605000Y-111577380D02*
X78605000Y-110577380D01*
X78509761Y-110720238D01*
X78414523Y-110815476D01*
X78319285Y-110863095D01*
X56340476Y-147407380D02*
X56340476Y-148121666D01*
X56292857Y-148264523D01*
X56197619Y-148359761D01*
X56054761Y-148407380D01*
X55959523Y-148407380D01*
X57340476Y-148407380D02*
X56769047Y-148407380D01*
X57054761Y-148407380D02*
X57054761Y-147407380D01*
X56959523Y-147550238D01*
X56864285Y-147645476D01*
X56769047Y-147693095D01*
X58292857Y-148407380D02*
X57721428Y-148407380D01*
X58007142Y-148407380D02*
X58007142Y-147407380D01*
X57911904Y-147550238D01*
X57816666Y-147645476D01*
X57721428Y-147693095D01*
X74128333Y-117197142D02*
X74080714Y-117244761D01*
X73937857Y-117292380D01*
X73842619Y-117292380D01*
X73699761Y-117244761D01*
X73604523Y-117149523D01*
X73556904Y-117054285D01*
X73509285Y-116863809D01*
X73509285Y-116720952D01*
X73556904Y-116530476D01*
X73604523Y-116435238D01*
X73699761Y-116340000D01*
X73842619Y-116292380D01*
X73937857Y-116292380D01*
X74080714Y-116340000D01*
X74128333Y-116387619D01*
X74985476Y-116625714D02*
X74985476Y-117292380D01*
X74747380Y-116244761D02*
X74509285Y-116959047D01*
X75128333Y-116959047D01*
X81748333Y-117197142D02*
X81700714Y-117244761D01*
X81557857Y-117292380D01*
X81462619Y-117292380D01*
X81319761Y-117244761D01*
X81224523Y-117149523D01*
X81176904Y-117054285D01*
X81129285Y-116863809D01*
X81129285Y-116720952D01*
X81176904Y-116530476D01*
X81224523Y-116435238D01*
X81319761Y-116340000D01*
X81462619Y-116292380D01*
X81557857Y-116292380D01*
X81700714Y-116340000D01*
X81748333Y-116387619D01*
X82081666Y-116292380D02*
X82700714Y-116292380D01*
X82367380Y-116673333D01*
X82510238Y-116673333D01*
X82605476Y-116720952D01*
X82653095Y-116768571D01*
X82700714Y-116863809D01*
X82700714Y-117101904D01*
X82653095Y-117197142D01*
X82605476Y-117244761D01*
X82510238Y-117292380D01*
X82224523Y-117292380D01*
X82129285Y-117244761D01*
X82081666Y-117197142D01*
X70318333Y-129897142D02*
X70270714Y-129944761D01*
X70127857Y-129992380D01*
X70032619Y-129992380D01*
X69889761Y-129944761D01*
X69794523Y-129849523D01*
X69746904Y-129754285D01*
X69699285Y-129563809D01*
X69699285Y-129420952D01*
X69746904Y-129230476D01*
X69794523Y-129135238D01*
X69889761Y-129040000D01*
X70032619Y-128992380D01*
X70127857Y-128992380D01*
X70270714Y-129040000D01*
X70318333Y-129087619D01*
X70699285Y-129087619D02*
X70746904Y-129040000D01*
X70842142Y-128992380D01*
X71080238Y-128992380D01*
X71175476Y-129040000D01*
X71223095Y-129087619D01*
X71270714Y-129182857D01*
X71270714Y-129278095D01*
X71223095Y-129420952D01*
X70651666Y-129992380D01*
X71270714Y-129992380D01*
X77938333Y-117197142D02*
X77890714Y-117244761D01*
X77747857Y-117292380D01*
X77652619Y-117292380D01*
X77509761Y-117244761D01*
X77414523Y-117149523D01*
X77366904Y-117054285D01*
X77319285Y-116863809D01*
X77319285Y-116720952D01*
X77366904Y-116530476D01*
X77414523Y-116435238D01*
X77509761Y-116340000D01*
X77652619Y-116292380D01*
X77747857Y-116292380D01*
X77890714Y-116340000D01*
X77938333Y-116387619D01*
X78890714Y-117292380D02*
X78319285Y-117292380D01*
X78605000Y-117292380D02*
X78605000Y-116292380D01*
X78509761Y-116435238D01*
X78414523Y-116530476D01*
X78319285Y-116578095D01*
M02*
