G04 #@! TF.GenerationSoftware,KiCad,Pcbnew,(5.1.5-0)*
G04 #@! TF.CreationDate,2022-07-17T15:28:17+01:00*
G04 #@! TF.ProjectId,Esp32_Cnc_Shield_30Pin_SMD,45737033-325f-4436-9e63-5f536869656c,rev?*
G04 #@! TF.SameCoordinates,Original*
G04 #@! TF.FileFunction,Soldermask,Top*
G04 #@! TF.FilePolarity,Negative*
%FSLAX46Y46*%
G04 Gerber Fmt 4.6, Leading zero omitted, Abs format (unit mm)*
G04 Created by KiCad (PCBNEW (5.1.5-0)) date 2022-07-17 15:28:17*
%MOMM*%
%LPD*%
G04 APERTURE LIST*
%ADD10C,2.100000*%
%ADD11C,3.000000*%
%ADD12R,3.000000X3.000000*%
%ADD13O,1.700000X1.700000*%
%ADD14R,1.700000X1.700000*%
%ADD15O,1.700000X1.950000*%
%ADD16C,0.050000*%
%ADD17O,1.700000X2.000000*%
%ADD18O,2.000000X1.700000*%
%ADD19O,3.000000X2.000000*%
%ADD20R,3.000000X2.000000*%
G04 APERTURE END LIST*
D10*
X100711000Y-164211000D03*
X51943000Y-164211000D03*
X51689000Y-102489000D03*
X100838000Y-102362000D03*
D11*
X97840800Y-128305560D03*
D12*
X97840800Y-133385560D03*
D13*
X62865000Y-113030000D03*
X62865000Y-115570000D03*
X62865000Y-118110000D03*
X62865000Y-120650000D03*
X62865000Y-123190000D03*
X62865000Y-125730000D03*
X62865000Y-128270000D03*
D14*
X62865000Y-130810000D03*
D15*
X95384000Y-161925000D03*
X92884000Y-161925000D03*
X90384000Y-161925000D03*
D16*
G36*
X88508504Y-160951204D02*
G01*
X88532773Y-160954804D01*
X88556571Y-160960765D01*
X88579671Y-160969030D01*
X88601849Y-160979520D01*
X88622893Y-160992133D01*
X88642598Y-161006747D01*
X88660777Y-161023223D01*
X88677253Y-161041402D01*
X88691867Y-161061107D01*
X88704480Y-161082151D01*
X88714970Y-161104329D01*
X88723235Y-161127429D01*
X88729196Y-161151227D01*
X88732796Y-161175496D01*
X88734000Y-161200000D01*
X88734000Y-162650000D01*
X88732796Y-162674504D01*
X88729196Y-162698773D01*
X88723235Y-162722571D01*
X88714970Y-162745671D01*
X88704480Y-162767849D01*
X88691867Y-162788893D01*
X88677253Y-162808598D01*
X88660777Y-162826777D01*
X88642598Y-162843253D01*
X88622893Y-162857867D01*
X88601849Y-162870480D01*
X88579671Y-162880970D01*
X88556571Y-162889235D01*
X88532773Y-162895196D01*
X88508504Y-162898796D01*
X88484000Y-162900000D01*
X87284000Y-162900000D01*
X87259496Y-162898796D01*
X87235227Y-162895196D01*
X87211429Y-162889235D01*
X87188329Y-162880970D01*
X87166151Y-162870480D01*
X87145107Y-162857867D01*
X87125402Y-162843253D01*
X87107223Y-162826777D01*
X87090747Y-162808598D01*
X87076133Y-162788893D01*
X87063520Y-162767849D01*
X87053030Y-162745671D01*
X87044765Y-162722571D01*
X87038804Y-162698773D01*
X87035204Y-162674504D01*
X87034000Y-162650000D01*
X87034000Y-161200000D01*
X87035204Y-161175496D01*
X87038804Y-161151227D01*
X87044765Y-161127429D01*
X87053030Y-161104329D01*
X87063520Y-161082151D01*
X87076133Y-161061107D01*
X87090747Y-161041402D01*
X87107223Y-161023223D01*
X87125402Y-161006747D01*
X87145107Y-160992133D01*
X87166151Y-160979520D01*
X87188329Y-160969030D01*
X87211429Y-160960765D01*
X87235227Y-160954804D01*
X87259496Y-160951204D01*
X87284000Y-160950000D01*
X88484000Y-160950000D01*
X88508504Y-160951204D01*
G37*
D15*
X80525000Y-161925000D03*
X78025000Y-161925000D03*
X75525000Y-161925000D03*
D16*
G36*
X73649504Y-160951204D02*
G01*
X73673773Y-160954804D01*
X73697571Y-160960765D01*
X73720671Y-160969030D01*
X73742849Y-160979520D01*
X73763893Y-160992133D01*
X73783598Y-161006747D01*
X73801777Y-161023223D01*
X73818253Y-161041402D01*
X73832867Y-161061107D01*
X73845480Y-161082151D01*
X73855970Y-161104329D01*
X73864235Y-161127429D01*
X73870196Y-161151227D01*
X73873796Y-161175496D01*
X73875000Y-161200000D01*
X73875000Y-162650000D01*
X73873796Y-162674504D01*
X73870196Y-162698773D01*
X73864235Y-162722571D01*
X73855970Y-162745671D01*
X73845480Y-162767849D01*
X73832867Y-162788893D01*
X73818253Y-162808598D01*
X73801777Y-162826777D01*
X73783598Y-162843253D01*
X73763893Y-162857867D01*
X73742849Y-162870480D01*
X73720671Y-162880970D01*
X73697571Y-162889235D01*
X73673773Y-162895196D01*
X73649504Y-162898796D01*
X73625000Y-162900000D01*
X72425000Y-162900000D01*
X72400496Y-162898796D01*
X72376227Y-162895196D01*
X72352429Y-162889235D01*
X72329329Y-162880970D01*
X72307151Y-162870480D01*
X72286107Y-162857867D01*
X72266402Y-162843253D01*
X72248223Y-162826777D01*
X72231747Y-162808598D01*
X72217133Y-162788893D01*
X72204520Y-162767849D01*
X72194030Y-162745671D01*
X72185765Y-162722571D01*
X72179804Y-162698773D01*
X72176204Y-162674504D01*
X72175000Y-162650000D01*
X72175000Y-161200000D01*
X72176204Y-161175496D01*
X72179804Y-161151227D01*
X72185765Y-161127429D01*
X72194030Y-161104329D01*
X72204520Y-161082151D01*
X72217133Y-161061107D01*
X72231747Y-161041402D01*
X72248223Y-161023223D01*
X72266402Y-161006747D01*
X72286107Y-160992133D01*
X72307151Y-160979520D01*
X72329329Y-160969030D01*
X72352429Y-160960765D01*
X72376227Y-160954804D01*
X72400496Y-160951204D01*
X72425000Y-160950000D01*
X73625000Y-160950000D01*
X73649504Y-160951204D01*
G37*
D15*
X64904000Y-161925000D03*
X62404000Y-161925000D03*
X59904000Y-161925000D03*
D16*
G36*
X58028504Y-160951204D02*
G01*
X58052773Y-160954804D01*
X58076571Y-160960765D01*
X58099671Y-160969030D01*
X58121849Y-160979520D01*
X58142893Y-160992133D01*
X58162598Y-161006747D01*
X58180777Y-161023223D01*
X58197253Y-161041402D01*
X58211867Y-161061107D01*
X58224480Y-161082151D01*
X58234970Y-161104329D01*
X58243235Y-161127429D01*
X58249196Y-161151227D01*
X58252796Y-161175496D01*
X58254000Y-161200000D01*
X58254000Y-162650000D01*
X58252796Y-162674504D01*
X58249196Y-162698773D01*
X58243235Y-162722571D01*
X58234970Y-162745671D01*
X58224480Y-162767849D01*
X58211867Y-162788893D01*
X58197253Y-162808598D01*
X58180777Y-162826777D01*
X58162598Y-162843253D01*
X58142893Y-162857867D01*
X58121849Y-162870480D01*
X58099671Y-162880970D01*
X58076571Y-162889235D01*
X58052773Y-162895196D01*
X58028504Y-162898796D01*
X58004000Y-162900000D01*
X56804000Y-162900000D01*
X56779496Y-162898796D01*
X56755227Y-162895196D01*
X56731429Y-162889235D01*
X56708329Y-162880970D01*
X56686151Y-162870480D01*
X56665107Y-162857867D01*
X56645402Y-162843253D01*
X56627223Y-162826777D01*
X56610747Y-162808598D01*
X56596133Y-162788893D01*
X56583520Y-162767849D01*
X56573030Y-162745671D01*
X56564765Y-162722571D01*
X56558804Y-162698773D01*
X56555204Y-162674504D01*
X56554000Y-162650000D01*
X56554000Y-161200000D01*
X56555204Y-161175496D01*
X56558804Y-161151227D01*
X56564765Y-161127429D01*
X56573030Y-161104329D01*
X56583520Y-161082151D01*
X56596133Y-161061107D01*
X56610747Y-161041402D01*
X56627223Y-161023223D01*
X56645402Y-161006747D01*
X56665107Y-160992133D01*
X56686151Y-160979520D01*
X56708329Y-160969030D01*
X56731429Y-160960765D01*
X56755227Y-160954804D01*
X56779496Y-160951204D01*
X56804000Y-160950000D01*
X58004000Y-160950000D01*
X58028504Y-160951204D01*
G37*
D13*
X100330000Y-156845000D03*
X100330000Y-154305000D03*
X100330000Y-151765000D03*
X100330000Y-149225000D03*
X100330000Y-146685000D03*
X100330000Y-144145000D03*
X100330000Y-141605000D03*
D14*
X100330000Y-139065000D03*
D13*
X83185000Y-156845000D03*
X83185000Y-154305000D03*
X83185000Y-151765000D03*
X83185000Y-149225000D03*
X83185000Y-146685000D03*
X83185000Y-144145000D03*
X83185000Y-141605000D03*
D14*
X83185000Y-139065000D03*
D13*
X66040000Y-156845000D03*
X66040000Y-154305000D03*
X66040000Y-151765000D03*
X66040000Y-149225000D03*
X66040000Y-146685000D03*
X66040000Y-144145000D03*
X66040000Y-141605000D03*
D14*
X66040000Y-139065000D03*
D13*
X87630000Y-156845000D03*
X87630000Y-154305000D03*
X87630000Y-151765000D03*
X87630000Y-149225000D03*
X87630000Y-146685000D03*
X87630000Y-144145000D03*
X87630000Y-141605000D03*
D14*
X87630000Y-139065000D03*
D13*
X70485000Y-156845000D03*
X70485000Y-154305000D03*
X70485000Y-151765000D03*
X70485000Y-149225000D03*
X70485000Y-146685000D03*
X70485000Y-144145000D03*
X70485000Y-141605000D03*
D14*
X70485000Y-139065000D03*
D17*
X66360000Y-104140000D03*
D16*
G36*
X69484504Y-103141204D02*
G01*
X69508773Y-103144804D01*
X69532571Y-103150765D01*
X69555671Y-103159030D01*
X69577849Y-103169520D01*
X69598893Y-103182133D01*
X69618598Y-103196747D01*
X69636777Y-103213223D01*
X69653253Y-103231402D01*
X69667867Y-103251107D01*
X69680480Y-103272151D01*
X69690970Y-103294329D01*
X69699235Y-103317429D01*
X69705196Y-103341227D01*
X69708796Y-103365496D01*
X69710000Y-103390000D01*
X69710000Y-104890000D01*
X69708796Y-104914504D01*
X69705196Y-104938773D01*
X69699235Y-104962571D01*
X69690970Y-104985671D01*
X69680480Y-105007849D01*
X69667867Y-105028893D01*
X69653253Y-105048598D01*
X69636777Y-105066777D01*
X69618598Y-105083253D01*
X69598893Y-105097867D01*
X69577849Y-105110480D01*
X69555671Y-105120970D01*
X69532571Y-105129235D01*
X69508773Y-105135196D01*
X69484504Y-105138796D01*
X69460000Y-105140000D01*
X68260000Y-105140000D01*
X68235496Y-105138796D01*
X68211227Y-105135196D01*
X68187429Y-105129235D01*
X68164329Y-105120970D01*
X68142151Y-105110480D01*
X68121107Y-105097867D01*
X68101402Y-105083253D01*
X68083223Y-105066777D01*
X68066747Y-105048598D01*
X68052133Y-105028893D01*
X68039520Y-105007849D01*
X68029030Y-104985671D01*
X68020765Y-104962571D01*
X68014804Y-104938773D01*
X68011204Y-104914504D01*
X68010000Y-104890000D01*
X68010000Y-103390000D01*
X68011204Y-103365496D01*
X68014804Y-103341227D01*
X68020765Y-103317429D01*
X68029030Y-103294329D01*
X68039520Y-103272151D01*
X68052133Y-103251107D01*
X68066747Y-103231402D01*
X68083223Y-103213223D01*
X68101402Y-103196747D01*
X68121107Y-103182133D01*
X68142151Y-103169520D01*
X68164329Y-103159030D01*
X68187429Y-103150765D01*
X68211227Y-103144804D01*
X68235496Y-103141204D01*
X68260000Y-103140000D01*
X69460000Y-103140000D01*
X69484504Y-103141204D01*
G37*
D17*
X57470000Y-104140000D03*
D16*
G36*
X60594504Y-103141204D02*
G01*
X60618773Y-103144804D01*
X60642571Y-103150765D01*
X60665671Y-103159030D01*
X60687849Y-103169520D01*
X60708893Y-103182133D01*
X60728598Y-103196747D01*
X60746777Y-103213223D01*
X60763253Y-103231402D01*
X60777867Y-103251107D01*
X60790480Y-103272151D01*
X60800970Y-103294329D01*
X60809235Y-103317429D01*
X60815196Y-103341227D01*
X60818796Y-103365496D01*
X60820000Y-103390000D01*
X60820000Y-104890000D01*
X60818796Y-104914504D01*
X60815196Y-104938773D01*
X60809235Y-104962571D01*
X60800970Y-104985671D01*
X60790480Y-105007849D01*
X60777867Y-105028893D01*
X60763253Y-105048598D01*
X60746777Y-105066777D01*
X60728598Y-105083253D01*
X60708893Y-105097867D01*
X60687849Y-105110480D01*
X60665671Y-105120970D01*
X60642571Y-105129235D01*
X60618773Y-105135196D01*
X60594504Y-105138796D01*
X60570000Y-105140000D01*
X59370000Y-105140000D01*
X59345496Y-105138796D01*
X59321227Y-105135196D01*
X59297429Y-105129235D01*
X59274329Y-105120970D01*
X59252151Y-105110480D01*
X59231107Y-105097867D01*
X59211402Y-105083253D01*
X59193223Y-105066777D01*
X59176747Y-105048598D01*
X59162133Y-105028893D01*
X59149520Y-105007849D01*
X59139030Y-104985671D01*
X59130765Y-104962571D01*
X59124804Y-104938773D01*
X59121204Y-104914504D01*
X59120000Y-104890000D01*
X59120000Y-103390000D01*
X59121204Y-103365496D01*
X59124804Y-103341227D01*
X59130765Y-103317429D01*
X59139030Y-103294329D01*
X59149520Y-103272151D01*
X59162133Y-103251107D01*
X59176747Y-103231402D01*
X59193223Y-103213223D01*
X59211402Y-103196747D01*
X59231107Y-103182133D01*
X59252151Y-103169520D01*
X59274329Y-103159030D01*
X59297429Y-103150765D01*
X59321227Y-103144804D01*
X59345496Y-103141204D01*
X59370000Y-103140000D01*
X60570000Y-103140000D01*
X60594504Y-103141204D01*
G37*
D18*
X97790000Y-119970000D03*
D16*
G36*
X98564504Y-121621204D02*
G01*
X98588773Y-121624804D01*
X98612571Y-121630765D01*
X98635671Y-121639030D01*
X98657849Y-121649520D01*
X98678893Y-121662133D01*
X98698598Y-121676747D01*
X98716777Y-121693223D01*
X98733253Y-121711402D01*
X98747867Y-121731107D01*
X98760480Y-121752151D01*
X98770970Y-121774329D01*
X98779235Y-121797429D01*
X98785196Y-121821227D01*
X98788796Y-121845496D01*
X98790000Y-121870000D01*
X98790000Y-123070000D01*
X98788796Y-123094504D01*
X98785196Y-123118773D01*
X98779235Y-123142571D01*
X98770970Y-123165671D01*
X98760480Y-123187849D01*
X98747867Y-123208893D01*
X98733253Y-123228598D01*
X98716777Y-123246777D01*
X98698598Y-123263253D01*
X98678893Y-123277867D01*
X98657849Y-123290480D01*
X98635671Y-123300970D01*
X98612571Y-123309235D01*
X98588773Y-123315196D01*
X98564504Y-123318796D01*
X98540000Y-123320000D01*
X97040000Y-123320000D01*
X97015496Y-123318796D01*
X96991227Y-123315196D01*
X96967429Y-123309235D01*
X96944329Y-123300970D01*
X96922151Y-123290480D01*
X96901107Y-123277867D01*
X96881402Y-123263253D01*
X96863223Y-123246777D01*
X96846747Y-123228598D01*
X96832133Y-123208893D01*
X96819520Y-123187849D01*
X96809030Y-123165671D01*
X96800765Y-123142571D01*
X96794804Y-123118773D01*
X96791204Y-123094504D01*
X96790000Y-123070000D01*
X96790000Y-121870000D01*
X96791204Y-121845496D01*
X96794804Y-121821227D01*
X96800765Y-121797429D01*
X96809030Y-121774329D01*
X96819520Y-121752151D01*
X96832133Y-121731107D01*
X96846747Y-121711402D01*
X96863223Y-121693223D01*
X96881402Y-121676747D01*
X96901107Y-121662133D01*
X96922151Y-121649520D01*
X96944329Y-121639030D01*
X96967429Y-121630765D01*
X96991227Y-121624804D01*
X97015496Y-121621204D01*
X97040000Y-121620000D01*
X98540000Y-121620000D01*
X98564504Y-121621204D01*
G37*
D17*
X75250000Y-104140000D03*
D16*
G36*
X78374504Y-103141204D02*
G01*
X78398773Y-103144804D01*
X78422571Y-103150765D01*
X78445671Y-103159030D01*
X78467849Y-103169520D01*
X78488893Y-103182133D01*
X78508598Y-103196747D01*
X78526777Y-103213223D01*
X78543253Y-103231402D01*
X78557867Y-103251107D01*
X78570480Y-103272151D01*
X78580970Y-103294329D01*
X78589235Y-103317429D01*
X78595196Y-103341227D01*
X78598796Y-103365496D01*
X78600000Y-103390000D01*
X78600000Y-104890000D01*
X78598796Y-104914504D01*
X78595196Y-104938773D01*
X78589235Y-104962571D01*
X78580970Y-104985671D01*
X78570480Y-105007849D01*
X78557867Y-105028893D01*
X78543253Y-105048598D01*
X78526777Y-105066777D01*
X78508598Y-105083253D01*
X78488893Y-105097867D01*
X78467849Y-105110480D01*
X78445671Y-105120970D01*
X78422571Y-105129235D01*
X78398773Y-105135196D01*
X78374504Y-105138796D01*
X78350000Y-105140000D01*
X77150000Y-105140000D01*
X77125496Y-105138796D01*
X77101227Y-105135196D01*
X77077429Y-105129235D01*
X77054329Y-105120970D01*
X77032151Y-105110480D01*
X77011107Y-105097867D01*
X76991402Y-105083253D01*
X76973223Y-105066777D01*
X76956747Y-105048598D01*
X76942133Y-105028893D01*
X76929520Y-105007849D01*
X76919030Y-104985671D01*
X76910765Y-104962571D01*
X76904804Y-104938773D01*
X76901204Y-104914504D01*
X76900000Y-104890000D01*
X76900000Y-103390000D01*
X76901204Y-103365496D01*
X76904804Y-103341227D01*
X76910765Y-103317429D01*
X76919030Y-103294329D01*
X76929520Y-103272151D01*
X76942133Y-103251107D01*
X76956747Y-103231402D01*
X76973223Y-103213223D01*
X76991402Y-103196747D01*
X77011107Y-103182133D01*
X77032151Y-103169520D01*
X77054329Y-103159030D01*
X77077429Y-103150765D01*
X77101227Y-103144804D01*
X77125496Y-103141204D01*
X77150000Y-103140000D01*
X78350000Y-103140000D01*
X78374504Y-103141204D01*
G37*
D17*
X84201000Y-104140000D03*
D16*
G36*
X87325504Y-103141204D02*
G01*
X87349773Y-103144804D01*
X87373571Y-103150765D01*
X87396671Y-103159030D01*
X87418849Y-103169520D01*
X87439893Y-103182133D01*
X87459598Y-103196747D01*
X87477777Y-103213223D01*
X87494253Y-103231402D01*
X87508867Y-103251107D01*
X87521480Y-103272151D01*
X87531970Y-103294329D01*
X87540235Y-103317429D01*
X87546196Y-103341227D01*
X87549796Y-103365496D01*
X87551000Y-103390000D01*
X87551000Y-104890000D01*
X87549796Y-104914504D01*
X87546196Y-104938773D01*
X87540235Y-104962571D01*
X87531970Y-104985671D01*
X87521480Y-105007849D01*
X87508867Y-105028893D01*
X87494253Y-105048598D01*
X87477777Y-105066777D01*
X87459598Y-105083253D01*
X87439893Y-105097867D01*
X87418849Y-105110480D01*
X87396671Y-105120970D01*
X87373571Y-105129235D01*
X87349773Y-105135196D01*
X87325504Y-105138796D01*
X87301000Y-105140000D01*
X86101000Y-105140000D01*
X86076496Y-105138796D01*
X86052227Y-105135196D01*
X86028429Y-105129235D01*
X86005329Y-105120970D01*
X85983151Y-105110480D01*
X85962107Y-105097867D01*
X85942402Y-105083253D01*
X85924223Y-105066777D01*
X85907747Y-105048598D01*
X85893133Y-105028893D01*
X85880520Y-105007849D01*
X85870030Y-104985671D01*
X85861765Y-104962571D01*
X85855804Y-104938773D01*
X85852204Y-104914504D01*
X85851000Y-104890000D01*
X85851000Y-103390000D01*
X85852204Y-103365496D01*
X85855804Y-103341227D01*
X85861765Y-103317429D01*
X85870030Y-103294329D01*
X85880520Y-103272151D01*
X85893133Y-103251107D01*
X85907747Y-103231402D01*
X85924223Y-103213223D01*
X85942402Y-103196747D01*
X85962107Y-103182133D01*
X85983151Y-103169520D01*
X86005329Y-103159030D01*
X86028429Y-103150765D01*
X86052227Y-103144804D01*
X86076496Y-103141204D01*
X86101000Y-103140000D01*
X87301000Y-103140000D01*
X87325504Y-103141204D01*
G37*
D18*
X97790000Y-110530000D03*
D16*
G36*
X98564504Y-112181204D02*
G01*
X98588773Y-112184804D01*
X98612571Y-112190765D01*
X98635671Y-112199030D01*
X98657849Y-112209520D01*
X98678893Y-112222133D01*
X98698598Y-112236747D01*
X98716777Y-112253223D01*
X98733253Y-112271402D01*
X98747867Y-112291107D01*
X98760480Y-112312151D01*
X98770970Y-112334329D01*
X98779235Y-112357429D01*
X98785196Y-112381227D01*
X98788796Y-112405496D01*
X98790000Y-112430000D01*
X98790000Y-113630000D01*
X98788796Y-113654504D01*
X98785196Y-113678773D01*
X98779235Y-113702571D01*
X98770970Y-113725671D01*
X98760480Y-113747849D01*
X98747867Y-113768893D01*
X98733253Y-113788598D01*
X98716777Y-113806777D01*
X98698598Y-113823253D01*
X98678893Y-113837867D01*
X98657849Y-113850480D01*
X98635671Y-113860970D01*
X98612571Y-113869235D01*
X98588773Y-113875196D01*
X98564504Y-113878796D01*
X98540000Y-113880000D01*
X97040000Y-113880000D01*
X97015496Y-113878796D01*
X96991227Y-113875196D01*
X96967429Y-113869235D01*
X96944329Y-113860970D01*
X96922151Y-113850480D01*
X96901107Y-113837867D01*
X96881402Y-113823253D01*
X96863223Y-113806777D01*
X96846747Y-113788598D01*
X96832133Y-113768893D01*
X96819520Y-113747849D01*
X96809030Y-113725671D01*
X96800765Y-113702571D01*
X96794804Y-113678773D01*
X96791204Y-113654504D01*
X96790000Y-113630000D01*
X96790000Y-112430000D01*
X96791204Y-112405496D01*
X96794804Y-112381227D01*
X96800765Y-112357429D01*
X96809030Y-112334329D01*
X96819520Y-112312151D01*
X96832133Y-112291107D01*
X96846747Y-112271402D01*
X96863223Y-112253223D01*
X96881402Y-112236747D01*
X96901107Y-112222133D01*
X96922151Y-112209520D01*
X96944329Y-112199030D01*
X96967429Y-112190765D01*
X96991227Y-112184804D01*
X97015496Y-112181204D01*
X97040000Y-112180000D01*
X98540000Y-112180000D01*
X98564504Y-112181204D01*
G37*
D13*
X53340000Y-109220000D03*
X55880000Y-109220000D03*
X58420000Y-109220000D03*
X60960000Y-109220000D03*
X63500000Y-109220000D03*
X66040000Y-109220000D03*
X68580000Y-109220000D03*
X71120000Y-109220000D03*
X73660000Y-109220000D03*
X76200000Y-109220000D03*
X78740000Y-109220000D03*
X81280000Y-109220000D03*
X83820000Y-109220000D03*
X86360000Y-109220000D03*
D14*
X88900000Y-109220000D03*
D17*
X93131000Y-104140000D03*
D16*
G36*
X96255504Y-103141204D02*
G01*
X96279773Y-103144804D01*
X96303571Y-103150765D01*
X96326671Y-103159030D01*
X96348849Y-103169520D01*
X96369893Y-103182133D01*
X96389598Y-103196747D01*
X96407777Y-103213223D01*
X96424253Y-103231402D01*
X96438867Y-103251107D01*
X96451480Y-103272151D01*
X96461970Y-103294329D01*
X96470235Y-103317429D01*
X96476196Y-103341227D01*
X96479796Y-103365496D01*
X96481000Y-103390000D01*
X96481000Y-104890000D01*
X96479796Y-104914504D01*
X96476196Y-104938773D01*
X96470235Y-104962571D01*
X96461970Y-104985671D01*
X96451480Y-105007849D01*
X96438867Y-105028893D01*
X96424253Y-105048598D01*
X96407777Y-105066777D01*
X96389598Y-105083253D01*
X96369893Y-105097867D01*
X96348849Y-105110480D01*
X96326671Y-105120970D01*
X96303571Y-105129235D01*
X96279773Y-105135196D01*
X96255504Y-105138796D01*
X96231000Y-105140000D01*
X95031000Y-105140000D01*
X95006496Y-105138796D01*
X94982227Y-105135196D01*
X94958429Y-105129235D01*
X94935329Y-105120970D01*
X94913151Y-105110480D01*
X94892107Y-105097867D01*
X94872402Y-105083253D01*
X94854223Y-105066777D01*
X94837747Y-105048598D01*
X94823133Y-105028893D01*
X94810520Y-105007849D01*
X94800030Y-104985671D01*
X94791765Y-104962571D01*
X94785804Y-104938773D01*
X94782204Y-104914504D01*
X94781000Y-104890000D01*
X94781000Y-103390000D01*
X94782204Y-103365496D01*
X94785804Y-103341227D01*
X94791765Y-103317429D01*
X94800030Y-103294329D01*
X94810520Y-103272151D01*
X94823133Y-103251107D01*
X94837747Y-103231402D01*
X94854223Y-103213223D01*
X94872402Y-103196747D01*
X94892107Y-103182133D01*
X94913151Y-103169520D01*
X94935329Y-103159030D01*
X94958429Y-103150765D01*
X94982227Y-103144804D01*
X95006496Y-103141204D01*
X95031000Y-103140000D01*
X96231000Y-103140000D01*
X96255504Y-103141204D01*
G37*
D13*
X53340000Y-134620000D03*
X55880000Y-134620000D03*
X58420000Y-134620000D03*
X60960000Y-134620000D03*
X63500000Y-134620000D03*
X66040000Y-134620000D03*
X68580000Y-134620000D03*
X71120000Y-134620000D03*
X73660000Y-134620000D03*
X76200000Y-134620000D03*
X78740000Y-134620000D03*
X81280000Y-134620000D03*
X83820000Y-134620000D03*
X86360000Y-134620000D03*
D14*
X88900000Y-134620000D03*
D16*
G36*
X93054504Y-139536204D02*
G01*
X93078773Y-139539804D01*
X93102571Y-139545765D01*
X93125671Y-139554030D01*
X93147849Y-139564520D01*
X93168893Y-139577133D01*
X93188598Y-139591747D01*
X93206777Y-139608223D01*
X93223253Y-139626402D01*
X93237867Y-139646107D01*
X93250480Y-139667151D01*
X93260970Y-139689329D01*
X93269235Y-139712429D01*
X93275196Y-139736227D01*
X93278796Y-139760496D01*
X93280000Y-139785000D01*
X93280000Y-140885000D01*
X93278796Y-140909504D01*
X93275196Y-140933773D01*
X93269235Y-140957571D01*
X93260970Y-140980671D01*
X93250480Y-141002849D01*
X93237867Y-141023893D01*
X93223253Y-141043598D01*
X93206777Y-141061777D01*
X93188598Y-141078253D01*
X93168893Y-141092867D01*
X93147849Y-141105480D01*
X93125671Y-141115970D01*
X93102571Y-141124235D01*
X93078773Y-141130196D01*
X93054504Y-141133796D01*
X93030000Y-141135000D01*
X90530000Y-141135000D01*
X90505496Y-141133796D01*
X90481227Y-141130196D01*
X90457429Y-141124235D01*
X90434329Y-141115970D01*
X90412151Y-141105480D01*
X90391107Y-141092867D01*
X90371402Y-141078253D01*
X90353223Y-141061777D01*
X90336747Y-141043598D01*
X90322133Y-141023893D01*
X90309520Y-141002849D01*
X90299030Y-140980671D01*
X90290765Y-140957571D01*
X90284804Y-140933773D01*
X90281204Y-140909504D01*
X90280000Y-140885000D01*
X90280000Y-139785000D01*
X90281204Y-139760496D01*
X90284804Y-139736227D01*
X90290765Y-139712429D01*
X90299030Y-139689329D01*
X90309520Y-139667151D01*
X90322133Y-139646107D01*
X90336747Y-139626402D01*
X90353223Y-139608223D01*
X90371402Y-139591747D01*
X90391107Y-139577133D01*
X90412151Y-139564520D01*
X90434329Y-139554030D01*
X90457429Y-139545765D01*
X90481227Y-139539804D01*
X90505496Y-139536204D01*
X90530000Y-139535000D01*
X93030000Y-139535000D01*
X93054504Y-139536204D01*
G37*
G36*
X97454504Y-139536204D02*
G01*
X97478773Y-139539804D01*
X97502571Y-139545765D01*
X97525671Y-139554030D01*
X97547849Y-139564520D01*
X97568893Y-139577133D01*
X97588598Y-139591747D01*
X97606777Y-139608223D01*
X97623253Y-139626402D01*
X97637867Y-139646107D01*
X97650480Y-139667151D01*
X97660970Y-139689329D01*
X97669235Y-139712429D01*
X97675196Y-139736227D01*
X97678796Y-139760496D01*
X97680000Y-139785000D01*
X97680000Y-140885000D01*
X97678796Y-140909504D01*
X97675196Y-140933773D01*
X97669235Y-140957571D01*
X97660970Y-140980671D01*
X97650480Y-141002849D01*
X97637867Y-141023893D01*
X97623253Y-141043598D01*
X97606777Y-141061777D01*
X97588598Y-141078253D01*
X97568893Y-141092867D01*
X97547849Y-141105480D01*
X97525671Y-141115970D01*
X97502571Y-141124235D01*
X97478773Y-141130196D01*
X97454504Y-141133796D01*
X97430000Y-141135000D01*
X94930000Y-141135000D01*
X94905496Y-141133796D01*
X94881227Y-141130196D01*
X94857429Y-141124235D01*
X94834329Y-141115970D01*
X94812151Y-141105480D01*
X94791107Y-141092867D01*
X94771402Y-141078253D01*
X94753223Y-141061777D01*
X94736747Y-141043598D01*
X94722133Y-141023893D01*
X94709520Y-141002849D01*
X94699030Y-140980671D01*
X94690765Y-140957571D01*
X94684804Y-140933773D01*
X94681204Y-140909504D01*
X94680000Y-140885000D01*
X94680000Y-139785000D01*
X94681204Y-139760496D01*
X94684804Y-139736227D01*
X94690765Y-139712429D01*
X94699030Y-139689329D01*
X94709520Y-139667151D01*
X94722133Y-139646107D01*
X94736747Y-139626402D01*
X94753223Y-139608223D01*
X94771402Y-139591747D01*
X94791107Y-139577133D01*
X94812151Y-139564520D01*
X94834329Y-139554030D01*
X94857429Y-139545765D01*
X94881227Y-139539804D01*
X94905496Y-139536204D01*
X94930000Y-139535000D01*
X97430000Y-139535000D01*
X97454504Y-139536204D01*
G37*
G36*
X75909504Y-139536204D02*
G01*
X75933773Y-139539804D01*
X75957571Y-139545765D01*
X75980671Y-139554030D01*
X76002849Y-139564520D01*
X76023893Y-139577133D01*
X76043598Y-139591747D01*
X76061777Y-139608223D01*
X76078253Y-139626402D01*
X76092867Y-139646107D01*
X76105480Y-139667151D01*
X76115970Y-139689329D01*
X76124235Y-139712429D01*
X76130196Y-139736227D01*
X76133796Y-139760496D01*
X76135000Y-139785000D01*
X76135000Y-140885000D01*
X76133796Y-140909504D01*
X76130196Y-140933773D01*
X76124235Y-140957571D01*
X76115970Y-140980671D01*
X76105480Y-141002849D01*
X76092867Y-141023893D01*
X76078253Y-141043598D01*
X76061777Y-141061777D01*
X76043598Y-141078253D01*
X76023893Y-141092867D01*
X76002849Y-141105480D01*
X75980671Y-141115970D01*
X75957571Y-141124235D01*
X75933773Y-141130196D01*
X75909504Y-141133796D01*
X75885000Y-141135000D01*
X73385000Y-141135000D01*
X73360496Y-141133796D01*
X73336227Y-141130196D01*
X73312429Y-141124235D01*
X73289329Y-141115970D01*
X73267151Y-141105480D01*
X73246107Y-141092867D01*
X73226402Y-141078253D01*
X73208223Y-141061777D01*
X73191747Y-141043598D01*
X73177133Y-141023893D01*
X73164520Y-141002849D01*
X73154030Y-140980671D01*
X73145765Y-140957571D01*
X73139804Y-140933773D01*
X73136204Y-140909504D01*
X73135000Y-140885000D01*
X73135000Y-139785000D01*
X73136204Y-139760496D01*
X73139804Y-139736227D01*
X73145765Y-139712429D01*
X73154030Y-139689329D01*
X73164520Y-139667151D01*
X73177133Y-139646107D01*
X73191747Y-139626402D01*
X73208223Y-139608223D01*
X73226402Y-139591747D01*
X73246107Y-139577133D01*
X73267151Y-139564520D01*
X73289329Y-139554030D01*
X73312429Y-139545765D01*
X73336227Y-139539804D01*
X73360496Y-139536204D01*
X73385000Y-139535000D01*
X75885000Y-139535000D01*
X75909504Y-139536204D01*
G37*
G36*
X80309504Y-139536204D02*
G01*
X80333773Y-139539804D01*
X80357571Y-139545765D01*
X80380671Y-139554030D01*
X80402849Y-139564520D01*
X80423893Y-139577133D01*
X80443598Y-139591747D01*
X80461777Y-139608223D01*
X80478253Y-139626402D01*
X80492867Y-139646107D01*
X80505480Y-139667151D01*
X80515970Y-139689329D01*
X80524235Y-139712429D01*
X80530196Y-139736227D01*
X80533796Y-139760496D01*
X80535000Y-139785000D01*
X80535000Y-140885000D01*
X80533796Y-140909504D01*
X80530196Y-140933773D01*
X80524235Y-140957571D01*
X80515970Y-140980671D01*
X80505480Y-141002849D01*
X80492867Y-141023893D01*
X80478253Y-141043598D01*
X80461777Y-141061777D01*
X80443598Y-141078253D01*
X80423893Y-141092867D01*
X80402849Y-141105480D01*
X80380671Y-141115970D01*
X80357571Y-141124235D01*
X80333773Y-141130196D01*
X80309504Y-141133796D01*
X80285000Y-141135000D01*
X77785000Y-141135000D01*
X77760496Y-141133796D01*
X77736227Y-141130196D01*
X77712429Y-141124235D01*
X77689329Y-141115970D01*
X77667151Y-141105480D01*
X77646107Y-141092867D01*
X77626402Y-141078253D01*
X77608223Y-141061777D01*
X77591747Y-141043598D01*
X77577133Y-141023893D01*
X77564520Y-141002849D01*
X77554030Y-140980671D01*
X77545765Y-140957571D01*
X77539804Y-140933773D01*
X77536204Y-140909504D01*
X77535000Y-140885000D01*
X77535000Y-139785000D01*
X77536204Y-139760496D01*
X77539804Y-139736227D01*
X77545765Y-139712429D01*
X77554030Y-139689329D01*
X77564520Y-139667151D01*
X77577133Y-139646107D01*
X77591747Y-139626402D01*
X77608223Y-139608223D01*
X77626402Y-139591747D01*
X77646107Y-139577133D01*
X77667151Y-139564520D01*
X77689329Y-139554030D01*
X77712429Y-139545765D01*
X77736227Y-139539804D01*
X77760496Y-139536204D01*
X77785000Y-139535000D01*
X80285000Y-139535000D01*
X80309504Y-139536204D01*
G37*
G36*
X58764504Y-139536204D02*
G01*
X58788773Y-139539804D01*
X58812571Y-139545765D01*
X58835671Y-139554030D01*
X58857849Y-139564520D01*
X58878893Y-139577133D01*
X58898598Y-139591747D01*
X58916777Y-139608223D01*
X58933253Y-139626402D01*
X58947867Y-139646107D01*
X58960480Y-139667151D01*
X58970970Y-139689329D01*
X58979235Y-139712429D01*
X58985196Y-139736227D01*
X58988796Y-139760496D01*
X58990000Y-139785000D01*
X58990000Y-140885000D01*
X58988796Y-140909504D01*
X58985196Y-140933773D01*
X58979235Y-140957571D01*
X58970970Y-140980671D01*
X58960480Y-141002849D01*
X58947867Y-141023893D01*
X58933253Y-141043598D01*
X58916777Y-141061777D01*
X58898598Y-141078253D01*
X58878893Y-141092867D01*
X58857849Y-141105480D01*
X58835671Y-141115970D01*
X58812571Y-141124235D01*
X58788773Y-141130196D01*
X58764504Y-141133796D01*
X58740000Y-141135000D01*
X56240000Y-141135000D01*
X56215496Y-141133796D01*
X56191227Y-141130196D01*
X56167429Y-141124235D01*
X56144329Y-141115970D01*
X56122151Y-141105480D01*
X56101107Y-141092867D01*
X56081402Y-141078253D01*
X56063223Y-141061777D01*
X56046747Y-141043598D01*
X56032133Y-141023893D01*
X56019520Y-141002849D01*
X56009030Y-140980671D01*
X56000765Y-140957571D01*
X55994804Y-140933773D01*
X55991204Y-140909504D01*
X55990000Y-140885000D01*
X55990000Y-139785000D01*
X55991204Y-139760496D01*
X55994804Y-139736227D01*
X56000765Y-139712429D01*
X56009030Y-139689329D01*
X56019520Y-139667151D01*
X56032133Y-139646107D01*
X56046747Y-139626402D01*
X56063223Y-139608223D01*
X56081402Y-139591747D01*
X56101107Y-139577133D01*
X56122151Y-139564520D01*
X56144329Y-139554030D01*
X56167429Y-139545765D01*
X56191227Y-139539804D01*
X56215496Y-139536204D01*
X56240000Y-139535000D01*
X58740000Y-139535000D01*
X58764504Y-139536204D01*
G37*
G36*
X63164504Y-139536204D02*
G01*
X63188773Y-139539804D01*
X63212571Y-139545765D01*
X63235671Y-139554030D01*
X63257849Y-139564520D01*
X63278893Y-139577133D01*
X63298598Y-139591747D01*
X63316777Y-139608223D01*
X63333253Y-139626402D01*
X63347867Y-139646107D01*
X63360480Y-139667151D01*
X63370970Y-139689329D01*
X63379235Y-139712429D01*
X63385196Y-139736227D01*
X63388796Y-139760496D01*
X63390000Y-139785000D01*
X63390000Y-140885000D01*
X63388796Y-140909504D01*
X63385196Y-140933773D01*
X63379235Y-140957571D01*
X63370970Y-140980671D01*
X63360480Y-141002849D01*
X63347867Y-141023893D01*
X63333253Y-141043598D01*
X63316777Y-141061777D01*
X63298598Y-141078253D01*
X63278893Y-141092867D01*
X63257849Y-141105480D01*
X63235671Y-141115970D01*
X63212571Y-141124235D01*
X63188773Y-141130196D01*
X63164504Y-141133796D01*
X63140000Y-141135000D01*
X60640000Y-141135000D01*
X60615496Y-141133796D01*
X60591227Y-141130196D01*
X60567429Y-141124235D01*
X60544329Y-141115970D01*
X60522151Y-141105480D01*
X60501107Y-141092867D01*
X60481402Y-141078253D01*
X60463223Y-141061777D01*
X60446747Y-141043598D01*
X60432133Y-141023893D01*
X60419520Y-141002849D01*
X60409030Y-140980671D01*
X60400765Y-140957571D01*
X60394804Y-140933773D01*
X60391204Y-140909504D01*
X60390000Y-140885000D01*
X60390000Y-139785000D01*
X60391204Y-139760496D01*
X60394804Y-139736227D01*
X60400765Y-139712429D01*
X60409030Y-139689329D01*
X60419520Y-139667151D01*
X60432133Y-139646107D01*
X60446747Y-139626402D01*
X60463223Y-139608223D01*
X60481402Y-139591747D01*
X60501107Y-139577133D01*
X60522151Y-139564520D01*
X60544329Y-139554030D01*
X60567429Y-139545765D01*
X60591227Y-139539804D01*
X60615496Y-139536204D01*
X60640000Y-139535000D01*
X63140000Y-139535000D01*
X63164504Y-139536204D01*
G37*
G36*
X75669505Y-111696204D02*
G01*
X75693773Y-111699804D01*
X75717572Y-111705765D01*
X75740671Y-111714030D01*
X75762850Y-111724520D01*
X75783893Y-111737132D01*
X75803599Y-111751747D01*
X75821777Y-111768223D01*
X75838253Y-111786401D01*
X75852868Y-111806107D01*
X75865480Y-111827150D01*
X75875970Y-111849329D01*
X75884235Y-111872428D01*
X75890196Y-111896227D01*
X75893796Y-111920495D01*
X75895000Y-111944999D01*
X75895000Y-112845001D01*
X75893796Y-112869505D01*
X75890196Y-112893773D01*
X75884235Y-112917572D01*
X75875970Y-112940671D01*
X75865480Y-112962850D01*
X75852868Y-112983893D01*
X75838253Y-113003599D01*
X75821777Y-113021777D01*
X75803599Y-113038253D01*
X75783893Y-113052868D01*
X75762850Y-113065480D01*
X75740671Y-113075970D01*
X75717572Y-113084235D01*
X75693773Y-113090196D01*
X75669505Y-113093796D01*
X75645001Y-113095000D01*
X74994999Y-113095000D01*
X74970495Y-113093796D01*
X74946227Y-113090196D01*
X74922428Y-113084235D01*
X74899329Y-113075970D01*
X74877150Y-113065480D01*
X74856107Y-113052868D01*
X74836401Y-113038253D01*
X74818223Y-113021777D01*
X74801747Y-113003599D01*
X74787132Y-112983893D01*
X74774520Y-112962850D01*
X74764030Y-112940671D01*
X74755765Y-112917572D01*
X74749804Y-112893773D01*
X74746204Y-112869505D01*
X74745000Y-112845001D01*
X74745000Y-111944999D01*
X74746204Y-111920495D01*
X74749804Y-111896227D01*
X74755765Y-111872428D01*
X74764030Y-111849329D01*
X74774520Y-111827150D01*
X74787132Y-111806107D01*
X74801747Y-111786401D01*
X74818223Y-111768223D01*
X74836401Y-111751747D01*
X74856107Y-111737132D01*
X74877150Y-111724520D01*
X74899329Y-111714030D01*
X74922428Y-111705765D01*
X74946227Y-111699804D01*
X74970495Y-111696204D01*
X74994999Y-111695000D01*
X75645001Y-111695000D01*
X75669505Y-111696204D01*
G37*
G36*
X73619505Y-111696204D02*
G01*
X73643773Y-111699804D01*
X73667572Y-111705765D01*
X73690671Y-111714030D01*
X73712850Y-111724520D01*
X73733893Y-111737132D01*
X73753599Y-111751747D01*
X73771777Y-111768223D01*
X73788253Y-111786401D01*
X73802868Y-111806107D01*
X73815480Y-111827150D01*
X73825970Y-111849329D01*
X73834235Y-111872428D01*
X73840196Y-111896227D01*
X73843796Y-111920495D01*
X73845000Y-111944999D01*
X73845000Y-112845001D01*
X73843796Y-112869505D01*
X73840196Y-112893773D01*
X73834235Y-112917572D01*
X73825970Y-112940671D01*
X73815480Y-112962850D01*
X73802868Y-112983893D01*
X73788253Y-113003599D01*
X73771777Y-113021777D01*
X73753599Y-113038253D01*
X73733893Y-113052868D01*
X73712850Y-113065480D01*
X73690671Y-113075970D01*
X73667572Y-113084235D01*
X73643773Y-113090196D01*
X73619505Y-113093796D01*
X73595001Y-113095000D01*
X72944999Y-113095000D01*
X72920495Y-113093796D01*
X72896227Y-113090196D01*
X72872428Y-113084235D01*
X72849329Y-113075970D01*
X72827150Y-113065480D01*
X72806107Y-113052868D01*
X72786401Y-113038253D01*
X72768223Y-113021777D01*
X72751747Y-113003599D01*
X72737132Y-112983893D01*
X72724520Y-112962850D01*
X72714030Y-112940671D01*
X72705765Y-112917572D01*
X72699804Y-112893773D01*
X72696204Y-112869505D01*
X72695000Y-112845001D01*
X72695000Y-111944999D01*
X72696204Y-111920495D01*
X72699804Y-111896227D01*
X72705765Y-111872428D01*
X72714030Y-111849329D01*
X72724520Y-111827150D01*
X72737132Y-111806107D01*
X72751747Y-111786401D01*
X72768223Y-111768223D01*
X72786401Y-111751747D01*
X72806107Y-111737132D01*
X72827150Y-111724520D01*
X72849329Y-111714030D01*
X72872428Y-111705765D01*
X72896227Y-111699804D01*
X72920495Y-111696204D01*
X72944999Y-111695000D01*
X73595001Y-111695000D01*
X73619505Y-111696204D01*
G37*
G36*
X83289505Y-111696204D02*
G01*
X83313773Y-111699804D01*
X83337572Y-111705765D01*
X83360671Y-111714030D01*
X83382850Y-111724520D01*
X83403893Y-111737132D01*
X83423599Y-111751747D01*
X83441777Y-111768223D01*
X83458253Y-111786401D01*
X83472868Y-111806107D01*
X83485480Y-111827150D01*
X83495970Y-111849329D01*
X83504235Y-111872428D01*
X83510196Y-111896227D01*
X83513796Y-111920495D01*
X83515000Y-111944999D01*
X83515000Y-112845001D01*
X83513796Y-112869505D01*
X83510196Y-112893773D01*
X83504235Y-112917572D01*
X83495970Y-112940671D01*
X83485480Y-112962850D01*
X83472868Y-112983893D01*
X83458253Y-113003599D01*
X83441777Y-113021777D01*
X83423599Y-113038253D01*
X83403893Y-113052868D01*
X83382850Y-113065480D01*
X83360671Y-113075970D01*
X83337572Y-113084235D01*
X83313773Y-113090196D01*
X83289505Y-113093796D01*
X83265001Y-113095000D01*
X82614999Y-113095000D01*
X82590495Y-113093796D01*
X82566227Y-113090196D01*
X82542428Y-113084235D01*
X82519329Y-113075970D01*
X82497150Y-113065480D01*
X82476107Y-113052868D01*
X82456401Y-113038253D01*
X82438223Y-113021777D01*
X82421747Y-113003599D01*
X82407132Y-112983893D01*
X82394520Y-112962850D01*
X82384030Y-112940671D01*
X82375765Y-112917572D01*
X82369804Y-112893773D01*
X82366204Y-112869505D01*
X82365000Y-112845001D01*
X82365000Y-111944999D01*
X82366204Y-111920495D01*
X82369804Y-111896227D01*
X82375765Y-111872428D01*
X82384030Y-111849329D01*
X82394520Y-111827150D01*
X82407132Y-111806107D01*
X82421747Y-111786401D01*
X82438223Y-111768223D01*
X82456401Y-111751747D01*
X82476107Y-111737132D01*
X82497150Y-111724520D01*
X82519329Y-111714030D01*
X82542428Y-111705765D01*
X82566227Y-111699804D01*
X82590495Y-111696204D01*
X82614999Y-111695000D01*
X83265001Y-111695000D01*
X83289505Y-111696204D01*
G37*
G36*
X81239505Y-111696204D02*
G01*
X81263773Y-111699804D01*
X81287572Y-111705765D01*
X81310671Y-111714030D01*
X81332850Y-111724520D01*
X81353893Y-111737132D01*
X81373599Y-111751747D01*
X81391777Y-111768223D01*
X81408253Y-111786401D01*
X81422868Y-111806107D01*
X81435480Y-111827150D01*
X81445970Y-111849329D01*
X81454235Y-111872428D01*
X81460196Y-111896227D01*
X81463796Y-111920495D01*
X81465000Y-111944999D01*
X81465000Y-112845001D01*
X81463796Y-112869505D01*
X81460196Y-112893773D01*
X81454235Y-112917572D01*
X81445970Y-112940671D01*
X81435480Y-112962850D01*
X81422868Y-112983893D01*
X81408253Y-113003599D01*
X81391777Y-113021777D01*
X81373599Y-113038253D01*
X81353893Y-113052868D01*
X81332850Y-113065480D01*
X81310671Y-113075970D01*
X81287572Y-113084235D01*
X81263773Y-113090196D01*
X81239505Y-113093796D01*
X81215001Y-113095000D01*
X80564999Y-113095000D01*
X80540495Y-113093796D01*
X80516227Y-113090196D01*
X80492428Y-113084235D01*
X80469329Y-113075970D01*
X80447150Y-113065480D01*
X80426107Y-113052868D01*
X80406401Y-113038253D01*
X80388223Y-113021777D01*
X80371747Y-113003599D01*
X80357132Y-112983893D01*
X80344520Y-112962850D01*
X80334030Y-112940671D01*
X80325765Y-112917572D01*
X80319804Y-112893773D01*
X80316204Y-112869505D01*
X80315000Y-112845001D01*
X80315000Y-111944999D01*
X80316204Y-111920495D01*
X80319804Y-111896227D01*
X80325765Y-111872428D01*
X80334030Y-111849329D01*
X80344520Y-111827150D01*
X80357132Y-111806107D01*
X80371747Y-111786401D01*
X80388223Y-111768223D01*
X80406401Y-111751747D01*
X80426107Y-111737132D01*
X80447150Y-111724520D01*
X80469329Y-111714030D01*
X80492428Y-111705765D01*
X80516227Y-111699804D01*
X80540495Y-111696204D01*
X80564999Y-111695000D01*
X81215001Y-111695000D01*
X81239505Y-111696204D01*
G37*
G36*
X68439505Y-131381204D02*
G01*
X68463773Y-131384804D01*
X68487572Y-131390765D01*
X68510671Y-131399030D01*
X68532850Y-131409520D01*
X68553893Y-131422132D01*
X68573599Y-131436747D01*
X68591777Y-131453223D01*
X68608253Y-131471401D01*
X68622868Y-131491107D01*
X68635480Y-131512150D01*
X68645970Y-131534329D01*
X68654235Y-131557428D01*
X68660196Y-131581227D01*
X68663796Y-131605495D01*
X68665000Y-131629999D01*
X68665000Y-132530001D01*
X68663796Y-132554505D01*
X68660196Y-132578773D01*
X68654235Y-132602572D01*
X68645970Y-132625671D01*
X68635480Y-132647850D01*
X68622868Y-132668893D01*
X68608253Y-132688599D01*
X68591777Y-132706777D01*
X68573599Y-132723253D01*
X68553893Y-132737868D01*
X68532850Y-132750480D01*
X68510671Y-132760970D01*
X68487572Y-132769235D01*
X68463773Y-132775196D01*
X68439505Y-132778796D01*
X68415001Y-132780000D01*
X67764999Y-132780000D01*
X67740495Y-132778796D01*
X67716227Y-132775196D01*
X67692428Y-132769235D01*
X67669329Y-132760970D01*
X67647150Y-132750480D01*
X67626107Y-132737868D01*
X67606401Y-132723253D01*
X67588223Y-132706777D01*
X67571747Y-132688599D01*
X67557132Y-132668893D01*
X67544520Y-132647850D01*
X67534030Y-132625671D01*
X67525765Y-132602572D01*
X67519804Y-132578773D01*
X67516204Y-132554505D01*
X67515000Y-132530001D01*
X67515000Y-131629999D01*
X67516204Y-131605495D01*
X67519804Y-131581227D01*
X67525765Y-131557428D01*
X67534030Y-131534329D01*
X67544520Y-131512150D01*
X67557132Y-131491107D01*
X67571747Y-131471401D01*
X67588223Y-131453223D01*
X67606401Y-131436747D01*
X67626107Y-131422132D01*
X67647150Y-131409520D01*
X67669329Y-131399030D01*
X67692428Y-131390765D01*
X67716227Y-131384804D01*
X67740495Y-131381204D01*
X67764999Y-131380000D01*
X68415001Y-131380000D01*
X68439505Y-131381204D01*
G37*
G36*
X66389505Y-131381204D02*
G01*
X66413773Y-131384804D01*
X66437572Y-131390765D01*
X66460671Y-131399030D01*
X66482850Y-131409520D01*
X66503893Y-131422132D01*
X66523599Y-131436747D01*
X66541777Y-131453223D01*
X66558253Y-131471401D01*
X66572868Y-131491107D01*
X66585480Y-131512150D01*
X66595970Y-131534329D01*
X66604235Y-131557428D01*
X66610196Y-131581227D01*
X66613796Y-131605495D01*
X66615000Y-131629999D01*
X66615000Y-132530001D01*
X66613796Y-132554505D01*
X66610196Y-132578773D01*
X66604235Y-132602572D01*
X66595970Y-132625671D01*
X66585480Y-132647850D01*
X66572868Y-132668893D01*
X66558253Y-132688599D01*
X66541777Y-132706777D01*
X66523599Y-132723253D01*
X66503893Y-132737868D01*
X66482850Y-132750480D01*
X66460671Y-132760970D01*
X66437572Y-132769235D01*
X66413773Y-132775196D01*
X66389505Y-132778796D01*
X66365001Y-132780000D01*
X65714999Y-132780000D01*
X65690495Y-132778796D01*
X65666227Y-132775196D01*
X65642428Y-132769235D01*
X65619329Y-132760970D01*
X65597150Y-132750480D01*
X65576107Y-132737868D01*
X65556401Y-132723253D01*
X65538223Y-132706777D01*
X65521747Y-132688599D01*
X65507132Y-132668893D01*
X65494520Y-132647850D01*
X65484030Y-132625671D01*
X65475765Y-132602572D01*
X65469804Y-132578773D01*
X65466204Y-132554505D01*
X65465000Y-132530001D01*
X65465000Y-131629999D01*
X65466204Y-131605495D01*
X65469804Y-131581227D01*
X65475765Y-131557428D01*
X65484030Y-131534329D01*
X65494520Y-131512150D01*
X65507132Y-131491107D01*
X65521747Y-131471401D01*
X65538223Y-131453223D01*
X65556401Y-131436747D01*
X65576107Y-131422132D01*
X65597150Y-131409520D01*
X65619329Y-131399030D01*
X65642428Y-131390765D01*
X65666227Y-131384804D01*
X65690495Y-131381204D01*
X65714999Y-131380000D01*
X66365001Y-131380000D01*
X66389505Y-131381204D01*
G37*
G36*
X79479505Y-111696204D02*
G01*
X79503773Y-111699804D01*
X79527572Y-111705765D01*
X79550671Y-111714030D01*
X79572850Y-111724520D01*
X79593893Y-111737132D01*
X79613599Y-111751747D01*
X79631777Y-111768223D01*
X79648253Y-111786401D01*
X79662868Y-111806107D01*
X79675480Y-111827150D01*
X79685970Y-111849329D01*
X79694235Y-111872428D01*
X79700196Y-111896227D01*
X79703796Y-111920495D01*
X79705000Y-111944999D01*
X79705000Y-112845001D01*
X79703796Y-112869505D01*
X79700196Y-112893773D01*
X79694235Y-112917572D01*
X79685970Y-112940671D01*
X79675480Y-112962850D01*
X79662868Y-112983893D01*
X79648253Y-113003599D01*
X79631777Y-113021777D01*
X79613599Y-113038253D01*
X79593893Y-113052868D01*
X79572850Y-113065480D01*
X79550671Y-113075970D01*
X79527572Y-113084235D01*
X79503773Y-113090196D01*
X79479505Y-113093796D01*
X79455001Y-113095000D01*
X78804999Y-113095000D01*
X78780495Y-113093796D01*
X78756227Y-113090196D01*
X78732428Y-113084235D01*
X78709329Y-113075970D01*
X78687150Y-113065480D01*
X78666107Y-113052868D01*
X78646401Y-113038253D01*
X78628223Y-113021777D01*
X78611747Y-113003599D01*
X78597132Y-112983893D01*
X78584520Y-112962850D01*
X78574030Y-112940671D01*
X78565765Y-112917572D01*
X78559804Y-112893773D01*
X78556204Y-112869505D01*
X78555000Y-112845001D01*
X78555000Y-111944999D01*
X78556204Y-111920495D01*
X78559804Y-111896227D01*
X78565765Y-111872428D01*
X78574030Y-111849329D01*
X78584520Y-111827150D01*
X78597132Y-111806107D01*
X78611747Y-111786401D01*
X78628223Y-111768223D01*
X78646401Y-111751747D01*
X78666107Y-111737132D01*
X78687150Y-111724520D01*
X78709329Y-111714030D01*
X78732428Y-111705765D01*
X78756227Y-111699804D01*
X78780495Y-111696204D01*
X78804999Y-111695000D01*
X79455001Y-111695000D01*
X79479505Y-111696204D01*
G37*
G36*
X77429505Y-111696204D02*
G01*
X77453773Y-111699804D01*
X77477572Y-111705765D01*
X77500671Y-111714030D01*
X77522850Y-111724520D01*
X77543893Y-111737132D01*
X77563599Y-111751747D01*
X77581777Y-111768223D01*
X77598253Y-111786401D01*
X77612868Y-111806107D01*
X77625480Y-111827150D01*
X77635970Y-111849329D01*
X77644235Y-111872428D01*
X77650196Y-111896227D01*
X77653796Y-111920495D01*
X77655000Y-111944999D01*
X77655000Y-112845001D01*
X77653796Y-112869505D01*
X77650196Y-112893773D01*
X77644235Y-112917572D01*
X77635970Y-112940671D01*
X77625480Y-112962850D01*
X77612868Y-112983893D01*
X77598253Y-113003599D01*
X77581777Y-113021777D01*
X77563599Y-113038253D01*
X77543893Y-113052868D01*
X77522850Y-113065480D01*
X77500671Y-113075970D01*
X77477572Y-113084235D01*
X77453773Y-113090196D01*
X77429505Y-113093796D01*
X77405001Y-113095000D01*
X76754999Y-113095000D01*
X76730495Y-113093796D01*
X76706227Y-113090196D01*
X76682428Y-113084235D01*
X76659329Y-113075970D01*
X76637150Y-113065480D01*
X76616107Y-113052868D01*
X76596401Y-113038253D01*
X76578223Y-113021777D01*
X76561747Y-113003599D01*
X76547132Y-112983893D01*
X76534520Y-112962850D01*
X76524030Y-112940671D01*
X76515765Y-112917572D01*
X76509804Y-112893773D01*
X76506204Y-112869505D01*
X76505000Y-112845001D01*
X76505000Y-111944999D01*
X76506204Y-111920495D01*
X76509804Y-111896227D01*
X76515765Y-111872428D01*
X76524030Y-111849329D01*
X76534520Y-111827150D01*
X76547132Y-111806107D01*
X76561747Y-111786401D01*
X76578223Y-111768223D01*
X76596401Y-111751747D01*
X76616107Y-111737132D01*
X76637150Y-111724520D01*
X76659329Y-111714030D01*
X76682428Y-111705765D01*
X76706227Y-111699804D01*
X76730495Y-111696204D01*
X76754999Y-111695000D01*
X77405001Y-111695000D01*
X77429505Y-111696204D01*
G37*
D19*
X53340000Y-156845000D03*
X53340000Y-154305000D03*
X53340000Y-151765000D03*
X53340000Y-149225000D03*
X53340000Y-146685000D03*
X53340000Y-144145000D03*
X53340000Y-141605000D03*
D20*
X53340000Y-139065000D03*
D16*
G36*
X75669505Y-114236204D02*
G01*
X75693773Y-114239804D01*
X75717572Y-114245765D01*
X75740671Y-114254030D01*
X75762850Y-114264520D01*
X75783893Y-114277132D01*
X75803599Y-114291747D01*
X75821777Y-114308223D01*
X75838253Y-114326401D01*
X75852868Y-114346107D01*
X75865480Y-114367150D01*
X75875970Y-114389329D01*
X75884235Y-114412428D01*
X75890196Y-114436227D01*
X75893796Y-114460495D01*
X75895000Y-114484999D01*
X75895000Y-115385001D01*
X75893796Y-115409505D01*
X75890196Y-115433773D01*
X75884235Y-115457572D01*
X75875970Y-115480671D01*
X75865480Y-115502850D01*
X75852868Y-115523893D01*
X75838253Y-115543599D01*
X75821777Y-115561777D01*
X75803599Y-115578253D01*
X75783893Y-115592868D01*
X75762850Y-115605480D01*
X75740671Y-115615970D01*
X75717572Y-115624235D01*
X75693773Y-115630196D01*
X75669505Y-115633796D01*
X75645001Y-115635000D01*
X74994999Y-115635000D01*
X74970495Y-115633796D01*
X74946227Y-115630196D01*
X74922428Y-115624235D01*
X74899329Y-115615970D01*
X74877150Y-115605480D01*
X74856107Y-115592868D01*
X74836401Y-115578253D01*
X74818223Y-115561777D01*
X74801747Y-115543599D01*
X74787132Y-115523893D01*
X74774520Y-115502850D01*
X74764030Y-115480671D01*
X74755765Y-115457572D01*
X74749804Y-115433773D01*
X74746204Y-115409505D01*
X74745000Y-115385001D01*
X74745000Y-114484999D01*
X74746204Y-114460495D01*
X74749804Y-114436227D01*
X74755765Y-114412428D01*
X74764030Y-114389329D01*
X74774520Y-114367150D01*
X74787132Y-114346107D01*
X74801747Y-114326401D01*
X74818223Y-114308223D01*
X74836401Y-114291747D01*
X74856107Y-114277132D01*
X74877150Y-114264520D01*
X74899329Y-114254030D01*
X74922428Y-114245765D01*
X74946227Y-114239804D01*
X74970495Y-114236204D01*
X74994999Y-114235000D01*
X75645001Y-114235000D01*
X75669505Y-114236204D01*
G37*
G36*
X73619505Y-114236204D02*
G01*
X73643773Y-114239804D01*
X73667572Y-114245765D01*
X73690671Y-114254030D01*
X73712850Y-114264520D01*
X73733893Y-114277132D01*
X73753599Y-114291747D01*
X73771777Y-114308223D01*
X73788253Y-114326401D01*
X73802868Y-114346107D01*
X73815480Y-114367150D01*
X73825970Y-114389329D01*
X73834235Y-114412428D01*
X73840196Y-114436227D01*
X73843796Y-114460495D01*
X73845000Y-114484999D01*
X73845000Y-115385001D01*
X73843796Y-115409505D01*
X73840196Y-115433773D01*
X73834235Y-115457572D01*
X73825970Y-115480671D01*
X73815480Y-115502850D01*
X73802868Y-115523893D01*
X73788253Y-115543599D01*
X73771777Y-115561777D01*
X73753599Y-115578253D01*
X73733893Y-115592868D01*
X73712850Y-115605480D01*
X73690671Y-115615970D01*
X73667572Y-115624235D01*
X73643773Y-115630196D01*
X73619505Y-115633796D01*
X73595001Y-115635000D01*
X72944999Y-115635000D01*
X72920495Y-115633796D01*
X72896227Y-115630196D01*
X72872428Y-115624235D01*
X72849329Y-115615970D01*
X72827150Y-115605480D01*
X72806107Y-115592868D01*
X72786401Y-115578253D01*
X72768223Y-115561777D01*
X72751747Y-115543599D01*
X72737132Y-115523893D01*
X72724520Y-115502850D01*
X72714030Y-115480671D01*
X72705765Y-115457572D01*
X72699804Y-115433773D01*
X72696204Y-115409505D01*
X72695000Y-115385001D01*
X72695000Y-114484999D01*
X72696204Y-114460495D01*
X72699804Y-114436227D01*
X72705765Y-114412428D01*
X72714030Y-114389329D01*
X72724520Y-114367150D01*
X72737132Y-114346107D01*
X72751747Y-114326401D01*
X72768223Y-114308223D01*
X72786401Y-114291747D01*
X72806107Y-114277132D01*
X72827150Y-114264520D01*
X72849329Y-114254030D01*
X72872428Y-114245765D01*
X72896227Y-114239804D01*
X72920495Y-114236204D01*
X72944999Y-114235000D01*
X73595001Y-114235000D01*
X73619505Y-114236204D01*
G37*
G36*
X83289505Y-114236204D02*
G01*
X83313773Y-114239804D01*
X83337572Y-114245765D01*
X83360671Y-114254030D01*
X83382850Y-114264520D01*
X83403893Y-114277132D01*
X83423599Y-114291747D01*
X83441777Y-114308223D01*
X83458253Y-114326401D01*
X83472868Y-114346107D01*
X83485480Y-114367150D01*
X83495970Y-114389329D01*
X83504235Y-114412428D01*
X83510196Y-114436227D01*
X83513796Y-114460495D01*
X83515000Y-114484999D01*
X83515000Y-115385001D01*
X83513796Y-115409505D01*
X83510196Y-115433773D01*
X83504235Y-115457572D01*
X83495970Y-115480671D01*
X83485480Y-115502850D01*
X83472868Y-115523893D01*
X83458253Y-115543599D01*
X83441777Y-115561777D01*
X83423599Y-115578253D01*
X83403893Y-115592868D01*
X83382850Y-115605480D01*
X83360671Y-115615970D01*
X83337572Y-115624235D01*
X83313773Y-115630196D01*
X83289505Y-115633796D01*
X83265001Y-115635000D01*
X82614999Y-115635000D01*
X82590495Y-115633796D01*
X82566227Y-115630196D01*
X82542428Y-115624235D01*
X82519329Y-115615970D01*
X82497150Y-115605480D01*
X82476107Y-115592868D01*
X82456401Y-115578253D01*
X82438223Y-115561777D01*
X82421747Y-115543599D01*
X82407132Y-115523893D01*
X82394520Y-115502850D01*
X82384030Y-115480671D01*
X82375765Y-115457572D01*
X82369804Y-115433773D01*
X82366204Y-115409505D01*
X82365000Y-115385001D01*
X82365000Y-114484999D01*
X82366204Y-114460495D01*
X82369804Y-114436227D01*
X82375765Y-114412428D01*
X82384030Y-114389329D01*
X82394520Y-114367150D01*
X82407132Y-114346107D01*
X82421747Y-114326401D01*
X82438223Y-114308223D01*
X82456401Y-114291747D01*
X82476107Y-114277132D01*
X82497150Y-114264520D01*
X82519329Y-114254030D01*
X82542428Y-114245765D01*
X82566227Y-114239804D01*
X82590495Y-114236204D01*
X82614999Y-114235000D01*
X83265001Y-114235000D01*
X83289505Y-114236204D01*
G37*
G36*
X81239505Y-114236204D02*
G01*
X81263773Y-114239804D01*
X81287572Y-114245765D01*
X81310671Y-114254030D01*
X81332850Y-114264520D01*
X81353893Y-114277132D01*
X81373599Y-114291747D01*
X81391777Y-114308223D01*
X81408253Y-114326401D01*
X81422868Y-114346107D01*
X81435480Y-114367150D01*
X81445970Y-114389329D01*
X81454235Y-114412428D01*
X81460196Y-114436227D01*
X81463796Y-114460495D01*
X81465000Y-114484999D01*
X81465000Y-115385001D01*
X81463796Y-115409505D01*
X81460196Y-115433773D01*
X81454235Y-115457572D01*
X81445970Y-115480671D01*
X81435480Y-115502850D01*
X81422868Y-115523893D01*
X81408253Y-115543599D01*
X81391777Y-115561777D01*
X81373599Y-115578253D01*
X81353893Y-115592868D01*
X81332850Y-115605480D01*
X81310671Y-115615970D01*
X81287572Y-115624235D01*
X81263773Y-115630196D01*
X81239505Y-115633796D01*
X81215001Y-115635000D01*
X80564999Y-115635000D01*
X80540495Y-115633796D01*
X80516227Y-115630196D01*
X80492428Y-115624235D01*
X80469329Y-115615970D01*
X80447150Y-115605480D01*
X80426107Y-115592868D01*
X80406401Y-115578253D01*
X80388223Y-115561777D01*
X80371747Y-115543599D01*
X80357132Y-115523893D01*
X80344520Y-115502850D01*
X80334030Y-115480671D01*
X80325765Y-115457572D01*
X80319804Y-115433773D01*
X80316204Y-115409505D01*
X80315000Y-115385001D01*
X80315000Y-114484999D01*
X80316204Y-114460495D01*
X80319804Y-114436227D01*
X80325765Y-114412428D01*
X80334030Y-114389329D01*
X80344520Y-114367150D01*
X80357132Y-114346107D01*
X80371747Y-114326401D01*
X80388223Y-114308223D01*
X80406401Y-114291747D01*
X80426107Y-114277132D01*
X80447150Y-114264520D01*
X80469329Y-114254030D01*
X80492428Y-114245765D01*
X80516227Y-114239804D01*
X80540495Y-114236204D01*
X80564999Y-114235000D01*
X81215001Y-114235000D01*
X81239505Y-114236204D01*
G37*
G36*
X68684505Y-128841204D02*
G01*
X68708773Y-128844804D01*
X68732572Y-128850765D01*
X68755671Y-128859030D01*
X68777850Y-128869520D01*
X68798893Y-128882132D01*
X68818599Y-128896747D01*
X68836777Y-128913223D01*
X68853253Y-128931401D01*
X68867868Y-128951107D01*
X68880480Y-128972150D01*
X68890970Y-128994329D01*
X68899235Y-129017428D01*
X68905196Y-129041227D01*
X68908796Y-129065495D01*
X68910000Y-129089999D01*
X68910000Y-129990001D01*
X68908796Y-130014505D01*
X68905196Y-130038773D01*
X68899235Y-130062572D01*
X68890970Y-130085671D01*
X68880480Y-130107850D01*
X68867868Y-130128893D01*
X68853253Y-130148599D01*
X68836777Y-130166777D01*
X68818599Y-130183253D01*
X68798893Y-130197868D01*
X68777850Y-130210480D01*
X68755671Y-130220970D01*
X68732572Y-130229235D01*
X68708773Y-130235196D01*
X68684505Y-130238796D01*
X68660001Y-130240000D01*
X68009999Y-130240000D01*
X67985495Y-130238796D01*
X67961227Y-130235196D01*
X67937428Y-130229235D01*
X67914329Y-130220970D01*
X67892150Y-130210480D01*
X67871107Y-130197868D01*
X67851401Y-130183253D01*
X67833223Y-130166777D01*
X67816747Y-130148599D01*
X67802132Y-130128893D01*
X67789520Y-130107850D01*
X67779030Y-130085671D01*
X67770765Y-130062572D01*
X67764804Y-130038773D01*
X67761204Y-130014505D01*
X67760000Y-129990001D01*
X67760000Y-129089999D01*
X67761204Y-129065495D01*
X67764804Y-129041227D01*
X67770765Y-129017428D01*
X67779030Y-128994329D01*
X67789520Y-128972150D01*
X67802132Y-128951107D01*
X67816747Y-128931401D01*
X67833223Y-128913223D01*
X67851401Y-128896747D01*
X67871107Y-128882132D01*
X67892150Y-128869520D01*
X67914329Y-128859030D01*
X67937428Y-128850765D01*
X67961227Y-128844804D01*
X67985495Y-128841204D01*
X68009999Y-128840000D01*
X68660001Y-128840000D01*
X68684505Y-128841204D01*
G37*
G36*
X66634505Y-128841204D02*
G01*
X66658773Y-128844804D01*
X66682572Y-128850765D01*
X66705671Y-128859030D01*
X66727850Y-128869520D01*
X66748893Y-128882132D01*
X66768599Y-128896747D01*
X66786777Y-128913223D01*
X66803253Y-128931401D01*
X66817868Y-128951107D01*
X66830480Y-128972150D01*
X66840970Y-128994329D01*
X66849235Y-129017428D01*
X66855196Y-129041227D01*
X66858796Y-129065495D01*
X66860000Y-129089999D01*
X66860000Y-129990001D01*
X66858796Y-130014505D01*
X66855196Y-130038773D01*
X66849235Y-130062572D01*
X66840970Y-130085671D01*
X66830480Y-130107850D01*
X66817868Y-130128893D01*
X66803253Y-130148599D01*
X66786777Y-130166777D01*
X66768599Y-130183253D01*
X66748893Y-130197868D01*
X66727850Y-130210480D01*
X66705671Y-130220970D01*
X66682572Y-130229235D01*
X66658773Y-130235196D01*
X66634505Y-130238796D01*
X66610001Y-130240000D01*
X65959999Y-130240000D01*
X65935495Y-130238796D01*
X65911227Y-130235196D01*
X65887428Y-130229235D01*
X65864329Y-130220970D01*
X65842150Y-130210480D01*
X65821107Y-130197868D01*
X65801401Y-130183253D01*
X65783223Y-130166777D01*
X65766747Y-130148599D01*
X65752132Y-130128893D01*
X65739520Y-130107850D01*
X65729030Y-130085671D01*
X65720765Y-130062572D01*
X65714804Y-130038773D01*
X65711204Y-130014505D01*
X65710000Y-129990001D01*
X65710000Y-129089999D01*
X65711204Y-129065495D01*
X65714804Y-129041227D01*
X65720765Y-129017428D01*
X65729030Y-128994329D01*
X65739520Y-128972150D01*
X65752132Y-128951107D01*
X65766747Y-128931401D01*
X65783223Y-128913223D01*
X65801401Y-128896747D01*
X65821107Y-128882132D01*
X65842150Y-128869520D01*
X65864329Y-128859030D01*
X65887428Y-128850765D01*
X65911227Y-128844804D01*
X65935495Y-128841204D01*
X65959999Y-128840000D01*
X66610001Y-128840000D01*
X66634505Y-128841204D01*
G37*
G36*
X79479505Y-114236204D02*
G01*
X79503773Y-114239804D01*
X79527572Y-114245765D01*
X79550671Y-114254030D01*
X79572850Y-114264520D01*
X79593893Y-114277132D01*
X79613599Y-114291747D01*
X79631777Y-114308223D01*
X79648253Y-114326401D01*
X79662868Y-114346107D01*
X79675480Y-114367150D01*
X79685970Y-114389329D01*
X79694235Y-114412428D01*
X79700196Y-114436227D01*
X79703796Y-114460495D01*
X79705000Y-114484999D01*
X79705000Y-115385001D01*
X79703796Y-115409505D01*
X79700196Y-115433773D01*
X79694235Y-115457572D01*
X79685970Y-115480671D01*
X79675480Y-115502850D01*
X79662868Y-115523893D01*
X79648253Y-115543599D01*
X79631777Y-115561777D01*
X79613599Y-115578253D01*
X79593893Y-115592868D01*
X79572850Y-115605480D01*
X79550671Y-115615970D01*
X79527572Y-115624235D01*
X79503773Y-115630196D01*
X79479505Y-115633796D01*
X79455001Y-115635000D01*
X78804999Y-115635000D01*
X78780495Y-115633796D01*
X78756227Y-115630196D01*
X78732428Y-115624235D01*
X78709329Y-115615970D01*
X78687150Y-115605480D01*
X78666107Y-115592868D01*
X78646401Y-115578253D01*
X78628223Y-115561777D01*
X78611747Y-115543599D01*
X78597132Y-115523893D01*
X78584520Y-115502850D01*
X78574030Y-115480671D01*
X78565765Y-115457572D01*
X78559804Y-115433773D01*
X78556204Y-115409505D01*
X78555000Y-115385001D01*
X78555000Y-114484999D01*
X78556204Y-114460495D01*
X78559804Y-114436227D01*
X78565765Y-114412428D01*
X78574030Y-114389329D01*
X78584520Y-114367150D01*
X78597132Y-114346107D01*
X78611747Y-114326401D01*
X78628223Y-114308223D01*
X78646401Y-114291747D01*
X78666107Y-114277132D01*
X78687150Y-114264520D01*
X78709329Y-114254030D01*
X78732428Y-114245765D01*
X78756227Y-114239804D01*
X78780495Y-114236204D01*
X78804999Y-114235000D01*
X79455001Y-114235000D01*
X79479505Y-114236204D01*
G37*
G36*
X77429505Y-114236204D02*
G01*
X77453773Y-114239804D01*
X77477572Y-114245765D01*
X77500671Y-114254030D01*
X77522850Y-114264520D01*
X77543893Y-114277132D01*
X77563599Y-114291747D01*
X77581777Y-114308223D01*
X77598253Y-114326401D01*
X77612868Y-114346107D01*
X77625480Y-114367150D01*
X77635970Y-114389329D01*
X77644235Y-114412428D01*
X77650196Y-114436227D01*
X77653796Y-114460495D01*
X77655000Y-114484999D01*
X77655000Y-115385001D01*
X77653796Y-115409505D01*
X77650196Y-115433773D01*
X77644235Y-115457572D01*
X77635970Y-115480671D01*
X77625480Y-115502850D01*
X77612868Y-115523893D01*
X77598253Y-115543599D01*
X77581777Y-115561777D01*
X77563599Y-115578253D01*
X77543893Y-115592868D01*
X77522850Y-115605480D01*
X77500671Y-115615970D01*
X77477572Y-115624235D01*
X77453773Y-115630196D01*
X77429505Y-115633796D01*
X77405001Y-115635000D01*
X76754999Y-115635000D01*
X76730495Y-115633796D01*
X76706227Y-115630196D01*
X76682428Y-115624235D01*
X76659329Y-115615970D01*
X76637150Y-115605480D01*
X76616107Y-115592868D01*
X76596401Y-115578253D01*
X76578223Y-115561777D01*
X76561747Y-115543599D01*
X76547132Y-115523893D01*
X76534520Y-115502850D01*
X76524030Y-115480671D01*
X76515765Y-115457572D01*
X76509804Y-115433773D01*
X76506204Y-115409505D01*
X76505000Y-115385001D01*
X76505000Y-114484999D01*
X76506204Y-114460495D01*
X76509804Y-114436227D01*
X76515765Y-114412428D01*
X76524030Y-114389329D01*
X76534520Y-114367150D01*
X76547132Y-114346107D01*
X76561747Y-114326401D01*
X76578223Y-114308223D01*
X76596401Y-114291747D01*
X76616107Y-114277132D01*
X76637150Y-114264520D01*
X76659329Y-114254030D01*
X76682428Y-114245765D01*
X76706227Y-114239804D01*
X76730495Y-114236204D01*
X76754999Y-114235000D01*
X77405001Y-114235000D01*
X77429505Y-114236204D01*
G37*
M02*
